<svg width="29" height="29" viewBox="0 0 29 29" fill="none" xmlns="http://www.w3.org/2000/svg">
<g opacity="0.5">
<mask id="path-1-inside-1_204_2991" fill="white">
<path d="M0.121582 14.0843C0.121582 6.35376 6.38843 0.0869141 14.119 0.0869141C21.8495 0.0869141 28.1164 6.35376 28.1164 14.0843C28.1164 21.8149 21.8495 28.0817 14.119 28.0817C6.38843 28.0817 0.121582 21.8149 0.121582 14.0843Z"/>
</mask>
<path d="M14.119 25.3039C7.92256 25.3039 2.89936 20.2807 2.89936 14.0843H-2.6562C-2.6562 23.349 4.8543 30.8595 14.119 30.8595V25.3039ZM25.3386 14.0843C25.3386 20.2807 20.3154 25.3039 14.119 25.3039V30.8595C23.3837 30.8595 30.8942 23.349 30.8942 14.0843H25.3386ZM14.119 2.86469C20.3154 2.86469 25.3386 7.88789 25.3386 14.0843H30.8942C30.8942 4.81964 23.3837 -2.69087 14.119 -2.69087V2.86469ZM14.119 -2.69087C4.8543 -2.69087 -2.6562 4.81964 -2.6562 14.0843H2.89936C2.89936 7.88789 7.92256 2.86469 14.119 2.86469V-2.69087Z" fill="#797882" mask="url(#path-1-inside-1_204_2991)"/>
<g clip-path="url(#clip0_204_2991)">
<path d="M11.5127 18.3397L14.5553 14.0801L11.5127 9.8204" stroke="#797882" stroke-width="3" stroke-linecap="round" stroke-linejoin="round"/>
</g>
</g>
<defs>
<clipPath id="clip0_204_2991">
<rect width="5.99826" height="11.9965" fill="white" transform="translate(10.1216 8.08167)"/>
</clipPath>
</defs>
</svg>
