<svg width="29" height="29" viewBox="0 0 29 29" fill="none" xmlns="http://www.w3.org/2000/svg">
<g opacity="0.5">
<mask id="path-1-inside-1_204_2737" fill="white">
<path d="M0.121582 14.5877C0.121582 6.85718 6.38843 0.590332 14.119 0.590332C21.8495 0.590332 28.1164 6.85718 28.1164 14.5877C28.1164 22.3183 21.8495 28.5851 14.119 28.5851C6.38843 28.5851 0.121582 22.3183 0.121582 14.5877Z"/>
</mask>
<path d="M14.119 25.8073C7.92256 25.8073 2.89936 20.7842 2.89936 14.5877H-2.6562C-2.6562 23.8524 4.8543 31.3629 14.119 31.3629V25.8073ZM25.3386 14.5877C25.3386 20.7842 20.3154 25.8073 14.119 25.8073V31.3629C23.3837 31.3629 30.8942 23.8524 30.8942 14.5877H25.3386ZM14.119 3.36811C20.3154 3.36811 25.3386 8.39131 25.3386 14.5877H30.8942C30.8942 5.32305 23.3837 -2.18745 14.119 -2.18745V3.36811ZM14.119 -2.18745C4.8543 -2.18745 -2.6562 5.32305 -2.6562 14.5877H2.89936C2.89936 8.39131 7.92256 3.36811 14.119 3.36811V-2.18745Z" fill="#797882" mask="url(#path-1-inside-1_204_2737)"/>
<g clip-path="url(#clip0_204_2737)">
<path d="M11.5127 18.843L14.5553 14.5834L11.5127 10.3237" stroke="#797882" stroke-width="3" stroke-linecap="round" stroke-linejoin="round"/>
</g>
</g>
<defs>
<clipPath id="clip0_204_2737">
<rect width="5.99826" height="11.9965" fill="white" transform="translate(10.1216 8.58496)"/>
</clipPath>
</defs>
</svg>
