<svg width="29" height="29" viewBox="0 0 29 29" fill="none" xmlns="http://www.w3.org/2000/svg">
<mask id="path-1-inside-1_204_2740" fill="white">
<path d="M0.116211 14.5877C0.116211 6.85718 6.38306 0.590332 14.1136 0.590332C21.8442 0.590332 28.111 6.85718 28.111 14.5877C28.111 22.3183 21.8442 28.5851 14.1136 28.5851C6.38306 28.5851 0.116211 22.3183 0.116211 14.5877Z"/>
</mask>
<path d="M14.1136 25.8073C7.91718 25.8073 2.89399 20.7842 2.89399 14.5877H-2.66157C-2.66157 23.8524 4.84893 31.3629 14.1136 31.3629V25.8073ZM25.3332 14.5877C25.3332 20.7842 20.31 25.8073 14.1136 25.8073V31.3629C23.3783 31.3629 30.8888 23.8524 30.8888 14.5877H25.3332ZM14.1136 3.36811C20.31 3.36811 25.3332 8.39131 25.3332 14.5877H30.8888C30.8888 5.32305 23.3783 -2.18745 14.1136 -2.18745V3.36811ZM14.1136 -2.18745C4.84893 -2.18745 -2.66157 5.32305 -2.66157 14.5877H2.89399C2.89399 8.39131 7.91718 3.36811 14.1136 3.36811V-2.18745Z" fill="#797882" mask="url(#path-1-inside-1_204_2740)"/>
<g clip-path="url(#clip0_204_2740)">
<path d="M13.5039 18.843L16.5465 14.5834L13.5039 10.3237" stroke="#797882" stroke-width="3" stroke-linecap="round" stroke-linejoin="round"/>
</g>
<defs>
<clipPath id="clip0_204_2740">
<rect width="5.99826" height="11.9965" fill="white" transform="translate(12.1128 8.58496)"/>
</clipPath>
</defs>
</svg>
