<svg width="29" height="29" viewBox="0 0 29 29" fill="none" xmlns="http://www.w3.org/2000/svg">
<mask id="path-1-inside-1_204_2994" fill="white">
<path d="M0.116211 14.0843C0.116211 6.35376 6.38306 0.0869141 14.1136 0.0869141C21.8442 0.0869141 28.111 6.35376 28.111 14.0843C28.111 21.8149 21.8442 28.0817 14.1136 28.0817C6.38306 28.0817 0.116211 21.8149 0.116211 14.0843Z"/>
</mask>
<path d="M14.1136 25.3039C7.91718 25.3039 2.89399 20.2807 2.89399 14.0843H-2.66157C-2.66157 23.349 4.84893 30.8595 14.1136 30.8595V25.3039ZM25.3332 14.0843C25.3332 20.2807 20.31 25.3039 14.1136 25.3039V30.8595C23.3783 30.8595 30.8888 23.349 30.8888 14.0843H25.3332ZM14.1136 2.86469C20.31 2.86469 25.3332 7.88789 25.3332 14.0843H30.8888C30.8888 4.81964 23.3783 -2.69087 14.1136 -2.69087V2.86469ZM14.1136 -2.69087C4.84893 -2.69087 -2.66157 4.81964 -2.66157 14.0843H2.89399C2.89399 7.88789 7.91718 2.86469 14.1136 2.86469V-2.69087Z" fill="#797882" mask="url(#path-1-inside-1_204_2994)"/>
<g clip-path="url(#clip0_204_2994)">
<path d="M13.5039 18.3397L16.5465 14.0801L13.5039 9.8204" stroke="#797882" stroke-width="3" stroke-linecap="round" stroke-linejoin="round"/>
</g>
<defs>
<clipPath id="clip0_204_2994">
<rect width="5.99826" height="11.9965" fill="white" transform="translate(12.1128 8.08167)"/>
</clipPath>
</defs>
</svg>
