<svg width="29" height="29" viewBox="0 0 29 29" fill="none" xmlns="http://www.w3.org/2000/svg">
<g opacity="0.5">
<mask id="path-1-inside-1_204_3058" fill="white">
<path d="M0.121582 14.0758C0.121582 6.34522 6.38843 0.0783691 14.119 0.0783691C21.8495 0.0783691 28.1164 6.34522 28.1164 14.0758C28.1164 21.8063 21.8495 28.0732 14.119 28.0732C6.38843 28.0732 0.121582 21.8063 0.121582 14.0758Z"/>
</mask>
<path d="M14.119 25.2954C7.92256 25.2954 2.89936 20.2722 2.89936 14.0758H-2.6562C-2.6562 23.3404 4.8543 30.8509 14.119 30.8509V25.2954ZM25.3386 14.0758C25.3386 20.2722 20.3154 25.2954 14.119 25.2954V30.8509C23.3837 30.8509 30.8942 23.3404 30.8942 14.0758H25.3386ZM14.119 2.85615C20.3154 2.85615 25.3386 7.87934 25.3386 14.0758H30.8942C30.8942 4.81109 23.3837 -2.69941 14.119 -2.69941V2.85615ZM14.119 -2.69941C4.8543 -2.69941 -2.6562 4.81109 -2.6562 14.0758H2.89936C2.89936 7.87934 7.92256 2.85615 14.119 2.85615V-2.69941Z" fill="#797882" mask="url(#path-1-inside-1_204_3058)"/>
<g clip-path="url(#clip0_204_3058)">
<path d="M11.5127 18.3312L14.5553 14.0715L11.5127 9.81189" stroke="#797882" stroke-width="3" stroke-linecap="round" stroke-linejoin="round"/>
</g>
</g>
<defs>
<clipPath id="clip0_204_3058">
<rect width="5.99826" height="11.9965" fill="white" transform="translate(10.1216 8.07312)"/>
</clipPath>
</defs>
</svg>
