<svg width="29" height="29" viewBox="0 0 29 29" fill="none" xmlns="http://www.w3.org/2000/svg">
<mask id="path-1-inside-1_204_3061" fill="white">
<path d="M0.116211 14.0758C0.116211 6.34522 6.38306 0.0783691 14.1136 0.0783691C21.8442 0.0783691 28.111 6.34522 28.111 14.0758C28.111 21.8063 21.8442 28.0732 14.1136 28.0732C6.38306 28.0732 0.116211 21.8063 0.116211 14.0758Z"/>
</mask>
<path d="M14.1136 25.2954C7.91718 25.2954 2.89399 20.2722 2.89399 14.0758H-2.66157C-2.66157 23.3404 4.84893 30.8509 14.1136 30.8509V25.2954ZM25.3332 14.0758C25.3332 20.2722 20.31 25.2954 14.1136 25.2954V30.8509C23.3783 30.8509 30.8888 23.3404 30.8888 14.0758H25.3332ZM14.1136 2.85615C20.31 2.85615 25.3332 7.87934 25.3332 14.0758H30.8888C30.8888 4.81109 23.3783 -2.69941 14.1136 -2.69941V2.85615ZM14.1136 -2.69941C4.84893 -2.69941 -2.66157 4.81109 -2.66157 14.0758H2.89399C2.89399 7.87934 7.91718 2.85615 14.1136 2.85615V-2.69941Z" fill="#797882" mask="url(#path-1-inside-1_204_3061)"/>
<g clip-path="url(#clip0_204_3061)">
<path d="M13.5039 18.3312L16.5465 14.0715L13.5039 9.81189" stroke="#797882" stroke-width="3" stroke-linecap="round" stroke-linejoin="round"/>
</g>
<defs>
<clipPath id="clip0_204_3061">
<rect width="5.99826" height="11.9965" fill="white" transform="translate(12.1128 8.07312)"/>
</clipPath>
</defs>
</svg>
