<svg width="41" height="41" viewBox="0 0 41 41" fill="none" xmlns="http://www.w3.org/2000/svg">
<path d="M0.0537109 20.8848C0.0537109 9.83907 9.00802 0.884766 20.0537 0.884766C31.0994 0.884766 40.0537 9.83907 40.0537 20.8848C40.0537 31.9305 31.0994 40.8848 20.0537 40.8848C9.00802 40.8848 0.0537109 31.9305 0.0537109 20.8848Z" fill="#F35597"/>
<path fill-rule="evenodd" clip-rule="evenodd" d="M22.3166 16.0792C24.2685 18.0312 24.2685 21.1959 22.3166 23.1478C20.3647 25.0998 17.1999 25.0998 15.2479 23.1478C13.296 21.1959 13.296 18.0312 15.2479 16.0792C17.1999 14.1273 20.3647 14.1273 22.3166 16.0792ZM24.3871 23.8046C26.4419 21.0637 26.223 17.1582 23.7303 14.6655C20.9975 11.9328 16.5669 11.9328 13.8342 14.6655C11.1015 17.3982 11.1015 21.8289 13.8342 24.5615C16.3269 27.0542 20.2324 27.2732 22.9733 25.2183L25.8508 28.0959C26.2412 28.4863 26.8742 28.4863 27.2646 28.0959C27.6549 27.7055 27.6549 27.0725 27.2646 26.6822L24.3871 23.8046Z" fill="white"/>
</svg>
