<svg width="41" height="41" viewBox="0 0 41 41" fill="none" xmlns="http://www.w3.org/2000/svg">
<path d="M0.90625 20.6045C0.90625 9.5588 9.86056 0.604492 20.9062 0.604492C31.9519 0.604492 40.9062 9.5588 40.9062 20.6045C40.9062 31.6502 31.9519 40.6045 20.9062 40.6045C9.86056 40.6045 0.90625 31.6502 0.90625 20.6045Z" fill="#F35597"/>
<path fill-rule="evenodd" clip-rule="evenodd" d="M23.1691 15.799C25.121 17.7509 25.121 20.9156 23.1691 22.8675C21.2172 24.8196 18.0524 24.8196 16.1005 22.8675C14.1485 20.9156 14.1485 17.7509 16.1005 15.799C18.0524 13.847 21.2172 13.847 23.1691 15.799ZM25.2396 23.5243C27.2945 20.7835 27.0756 16.878 24.5828 14.3852C21.8501 11.6525 17.4195 11.6525 14.6867 14.3852C11.954 17.118 11.954 21.5486 14.6867 24.2812C17.1795 26.774 21.0849 26.9929 23.8259 24.938L26.7034 27.8156C27.0938 28.206 27.7267 28.206 28.1171 27.8156C28.5075 27.4253 28.5075 26.7923 28.1171 26.4019L25.2396 23.5243Z" fill="white"/>
</svg>
