<svg width="202" height="46" viewBox="0 0 202 46" fill="none" xmlns="http://www.w3.org/2000/svg">
<g clip-path="url(#clip0_204_2160)">
<path d="M72.2668 35.9191C71.6812 36.6547 70.9729 37.3152 70.1416 37.8998C69.4238 38.3904 68.536 38.8434 67.478 39.2582C66.4203 39.6733 65.1828 39.881 63.766 39.881C62.2359 39.881 60.8143 39.6073 59.5014 39.0602C58.1887 38.5129 57.0503 37.7727 56.0871 36.8386C55.1236 35.9049 54.368 34.8106 53.8202 33.5559C53.2722 32.3015 52.9985 30.9665 52.9985 29.5518C52.9985 28.1367 53.2722 26.8019 53.8202 25.5474C54.368 24.2928 55.1236 23.1985 56.0871 22.2646C57.0503 21.3307 58.1887 20.5903 59.5014 20.0432C60.8143 19.4961 62.2359 19.2224 63.766 19.2224C65.145 19.2224 66.3588 19.4299 67.4071 19.8451C68.4556 20.26 69.3294 20.713 70.0284 21.2033C70.8405 21.7884 71.5395 22.4487 72.1251 23.1843L69.2916 26.0142C68.876 25.4861 68.3941 25.0143 67.8465 24.5993C67.3741 24.2407 66.798 23.9153 66.1181 23.623C65.4379 23.3307 64.6538 23.1843 63.766 23.1843C62.8782 23.1843 62.0469 23.3493 61.2725 23.6797C60.4979 24.0098 59.8226 24.4626 59.2465 25.0379C58.6704 25.6133 58.217 26.2877 57.8863 27.0613C57.5557 27.8349 57.3905 28.665 57.3905 29.5518C57.3905 30.4382 57.5557 31.2685 57.8863 32.0419C58.217 32.8157 58.6704 33.4899 59.2465 34.0653C59.8226 34.6408 60.4979 35.0936 61.2725 35.4237C62.0469 35.7539 62.8782 35.9191 63.766 35.9191C64.6916 35.9191 65.504 35.7727 66.203 35.4804C66.9019 35.1879 67.497 34.8625 67.9882 34.5041C68.5548 34.0889 69.0365 33.6173 69.4331 33.089L72.2668 35.9191Z" fill="#4C35BC"/>
<path d="M72.9338 25.564H76.759V33.3464C76.759 34.1952 76.9858 34.8556 77.4391 35.3271C77.8925 35.7989 78.5157 36.0347 79.3093 36.0347C80.1595 36.0347 80.8678 35.747 81.4343 35.1715C82.0011 34.596 82.2847 33.8462 82.2847 32.9216V25.564H86.1099V39.4304H82.2847V37.4496H82.1428C81.8406 37.8647 81.4911 38.242 81.0944 38.5815C80.7544 38.8646 80.3246 39.124 79.8051 39.3598C79.2856 39.5956 78.6952 39.7136 78.0342 39.7136C77.3163 39.7136 76.6504 39.5766 76.0365 39.3032C75.4225 39.0297 74.8842 38.6429 74.4213 38.1431C73.9586 37.643 73.5949 37.0346 73.3304 36.3175C73.066 35.6009 72.9338 34.7989 72.9338 33.9122V25.564Z" fill="#4C35BC"/>
<path d="M94.9264 36.1929C95.4177 36.1929 95.8804 36.0984 96.3148 35.9099C96.7494 35.7213 97.127 35.4665 97.4484 35.1458C97.7696 34.8252 98.0196 34.4382 98.1991 33.9856C98.3786 33.5326 98.4684 33.0423 98.4684 32.514C98.4684 31.9857 98.3786 31.4951 98.1991 31.0425C98.0196 30.5895 97.7696 30.2029 97.4484 29.882C97.127 29.5614 96.7494 29.3068 96.3148 29.1181C95.8804 28.9293 95.4177 28.835 94.9264 28.835C94.4352 28.835 93.9725 28.9293 93.5379 29.1181C93.1035 29.3068 92.7257 29.5614 92.4045 29.882C92.0833 30.2029 91.8331 30.5895 91.6536 31.0425C91.4741 31.4951 91.3845 31.9857 91.3845 32.514C91.3845 33.0423 91.4741 33.5326 91.6536 33.9856C91.8331 34.4382 92.0833 34.8252 92.4045 35.1458C92.7257 35.4665 93.1035 35.7213 93.5379 35.9099C93.9725 36.0984 94.4352 36.1929 94.9264 36.1929ZM98.3269 37.4663H98.185C97.9016 37.8814 97.5428 38.2587 97.1084 38.5984C96.7304 38.8812 96.2675 39.1408 95.7199 39.3764C95.172 39.6124 94.5298 39.7301 93.793 39.7301C92.9808 39.7301 92.1967 39.5557 91.441 39.2066C90.6856 38.8576 90.0195 38.3624 89.4434 37.7211C88.8672 37.0797 88.4091 36.3154 88.0691 35.4288C87.7291 34.542 87.5591 33.5704 87.5591 32.514C87.5591 31.4574 87.7291 30.4859 88.0691 29.5991C88.4091 28.7123 88.8672 27.953 89.4434 27.321C90.0195 26.6891 90.6856 26.1939 91.441 25.8354C92.1967 25.4769 92.9808 25.2976 93.793 25.2976C94.5298 25.2976 95.172 25.4155 95.7199 25.6515C96.2675 25.8873 96.7304 26.1467 97.1084 26.4295C97.5428 26.7691 97.9016 27.1466 98.185 27.5616H98.3269V19.6379H102.152V39.4473H98.3269V37.4663Z" fill="#4C35BC"/>
<path d="M111.061 36.1929C111.552 36.1929 112.015 36.0984 112.45 35.9099C112.884 35.7213 113.262 35.4665 113.583 35.1458C113.904 34.8252 114.154 34.4382 114.334 33.9856C114.513 33.5326 114.603 33.0423 114.603 32.514C114.603 31.9857 114.513 31.4951 114.334 31.0425C114.154 30.5895 113.904 30.2029 113.583 29.882C113.262 29.5614 112.884 29.3068 112.45 29.1181C112.015 28.9293 111.552 28.835 111.061 28.835C110.57 28.835 110.107 28.9293 109.673 29.1181C109.238 29.3068 108.86 29.5614 108.539 29.882C108.218 30.2029 107.968 30.5895 107.788 31.0425C107.609 31.4951 107.519 31.9857 107.519 32.514C107.519 33.0423 107.609 33.5326 107.788 33.9856C107.968 34.4382 108.218 34.8252 108.539 35.1458C108.86 35.4665 109.238 35.7213 109.673 35.9099C110.107 36.0984 110.57 36.1929 111.061 36.1929ZM114.462 37.4663H114.32C114.036 37.8814 113.678 38.2587 113.243 38.5984C112.865 38.8812 112.402 39.1408 111.855 39.3764C111.307 39.6124 110.664 39.7301 109.928 39.7301C109.115 39.7301 108.332 39.5557 107.576 39.2066C106.82 38.8576 106.154 38.3624 105.578 37.7211C105.002 37.0797 104.544 36.3154 104.204 35.4288C103.864 34.542 103.694 33.5704 103.694 32.514C103.694 31.4574 103.864 30.4859 104.204 29.5991C104.544 28.7123 105.002 27.953 105.578 27.321C106.154 26.6891 106.82 26.1939 107.576 25.8354C108.332 25.4769 109.115 25.2976 109.928 25.2976C110.664 25.2976 111.307 25.4155 111.855 25.6515C112.402 25.8873 112.865 26.1467 113.243 26.4295C113.677 26.7691 114.036 27.1466 114.32 27.5616H114.462V19.6379H118.287V39.4473H114.462V37.4663Z" fill="#4C35BC"/>
<path d="M124.695 19.6379H120.87V39.4475H124.695V19.6379Z" fill="#4C35BC"/>
<path d="M126.22 41.4118C126.352 41.4683 126.503 41.5155 126.673 41.5533C126.994 41.6476 127.363 41.6946 127.778 41.6946C128.42 41.6946 128.931 41.5343 129.308 41.2137C129.686 40.893 129.979 40.4872 130.187 39.9968L130.47 39.2893L125.086 25.564H129.195L132.454 34.7613H132.595L135.712 25.564H139.821L134.154 40.5629C133.568 42.1284 132.846 43.3219 131.986 44.1427C131.127 44.9633 130.055 45.3737 128.77 45.3737C128.411 45.3737 128.076 45.3547 127.764 45.317C127.452 45.2793 127.183 45.232 126.957 45.1755C126.692 45.1 126.447 45.0247 126.22 44.949V41.4118Z" fill="#4C35BC"/>
<path d="M140.805 19.6379H144.631L154.265 31.9481V19.6379H158.515V39.4473H154.69L145.056 27.1373V39.4473H140.805V19.6379Z" fill="#FA368B"/>
<path d="M170.836 31.1567C170.628 30.5153 170.255 29.9539 169.717 29.4729C169.179 28.9918 168.513 28.7512 167.719 28.7512C166.926 28.7512 166.26 28.9918 165.721 29.4729C165.183 29.9539 164.81 30.5153 164.602 31.1567H170.836ZM173.953 37.524C173.537 37.9392 173.027 38.3165 172.423 38.6561C171.913 38.9391 171.29 39.1985 170.553 39.4343C169.816 39.6701 168.966 39.788 168.002 39.788C166.983 39.788 166.024 39.5992 165.126 39.2221C164.229 38.8448 163.445 38.326 162.775 37.6657C162.104 37.0052 161.58 36.2413 161.202 35.3734C160.824 34.5056 160.635 33.5715 160.635 32.5716C160.635 31.5907 160.824 30.6615 161.202 29.7842C161.58 28.9068 162.099 28.1383 162.76 27.478C163.422 26.8176 164.187 26.2988 165.056 25.9215C165.925 25.544 166.86 25.3555 167.861 25.3555C168.824 25.3555 169.726 25.5394 170.567 25.9074C171.408 26.2752 172.14 26.7704 172.763 27.393C173.386 28.0156 173.882 28.7465 174.251 29.5861C174.619 30.4257 174.803 31.3265 174.803 32.2888C174.803 32.5528 174.794 32.784 174.775 32.982C174.756 33.1803 174.737 33.3547 174.718 33.5057C174.699 33.6942 174.68 33.8547 174.662 33.9867H164.602C164.81 34.6281 165.212 35.1895 165.806 35.6704C166.402 36.1514 167.228 36.3921 168.286 36.3921C168.89 36.3921 169.419 36.3166 169.873 36.1658C170.326 36.0148 170.713 35.8355 171.034 35.628C171.393 35.4017 171.705 35.1374 171.969 34.8356L173.953 37.524Z" fill="#FA368B"/>
<path d="M177.111 34.8356C177.394 35.1376 177.725 35.4017 178.103 35.6282C178.424 35.8355 178.811 36.0148 179.264 36.1658C179.718 36.3167 180.228 36.3921 180.795 36.3921C181.437 36.3921 181.881 36.2978 182.126 36.1092C182.372 35.9205 182.495 35.6845 182.495 35.4017C182.495 35.1376 182.32 34.916 181.971 34.7367C181.621 34.5574 181.182 34.3828 180.653 34.213C180.124 34.0433 179.557 33.8452 178.953 33.6187C178.348 33.3924 177.782 33.1094 177.253 32.7699C176.724 32.4301 176.285 32.0058 175.935 31.4964C175.586 30.9871 175.411 30.3549 175.411 29.6004C175.411 29.0344 175.534 28.4966 175.779 27.9873C176.025 27.478 176.379 27.0252 176.842 26.6289C177.305 26.2326 177.881 25.9213 178.57 25.695C179.26 25.4687 180.049 25.3555 180.937 25.3555C181.824 25.3555 182.604 25.4687 183.274 25.695C183.945 25.9213 184.507 26.1668 184.96 26.4308C185.489 26.7514 185.942 27.1005 186.32 27.478L184.053 29.8833C183.827 29.6758 183.553 29.487 183.232 29.3172C182.967 29.1664 182.641 29.0344 182.254 28.9212C181.867 28.8079 181.428 28.7514 180.937 28.7514C180.445 28.7514 180.086 28.841 179.86 29.0203C179.633 29.1993 179.52 29.3927 179.52 29.6004C179.52 29.8645 179.694 30.0862 180.044 30.2654C180.393 30.4447 180.832 30.6191 181.361 30.7889C181.89 30.9587 182.457 31.1569 183.062 31.3832C183.666 31.6095 184.233 31.8925 184.762 32.2321C185.291 32.5716 185.73 32.9962 186.079 33.5057C186.429 34.015 186.604 34.6469 186.604 35.4017C186.604 36.0053 186.481 36.5713 186.235 37.0996C185.99 37.6279 185.621 38.09 185.13 38.4863C184.639 38.8825 184.035 39.1985 183.317 39.4343C182.599 39.6701 181.758 39.7881 180.795 39.7881C179.831 39.7881 178.981 39.6559 178.244 39.3919C177.508 39.1276 176.884 38.8353 176.374 38.5145C175.77 38.156 175.26 37.7315 174.844 37.2411L177.111 34.8356Z" fill="#FA368B"/>
<path d="M188.86 29.3959H186.451V25.8585H187.726C188.765 25.8585 189.285 25.2926 189.285 24.1605V21.6135H192.685V25.8585H195.802V29.3959H192.685V34.0652C192.685 34.7067 192.85 35.1971 193.181 35.5367C193.511 35.8764 193.96 36.0462 194.527 36.0462C194.942 36.0462 195.311 35.9989 195.632 35.9047C195.802 35.8669 195.953 35.8197 196.085 35.7631V39.3006C195.859 39.3761 195.613 39.4514 195.349 39.5269C195.122 39.5836 194.853 39.6306 194.541 39.6684C194.229 39.7061 193.894 39.7251 193.535 39.7251C192.118 39.7251 190.985 39.2864 190.135 38.4091C189.285 37.5318 188.86 36.2725 188.86 34.6311V29.3959Z" fill="#FA368B"/>
<path d="M196.914 37.496C196.914 36.8547 197.131 36.3169 197.565 35.8831C198 35.449 198.538 35.2322 199.18 35.2322C199.823 35.2322 200.361 35.449 200.796 35.8831C201.23 36.3169 201.447 36.8547 201.447 37.496C201.447 38.1376 201.23 38.6754 200.796 39.1092C200.361 39.5432 199.823 39.76 199.18 39.76C198.538 39.76 198 39.5432 197.565 39.1092C197.131 38.6754 196.914 38.1376 196.914 37.496Z" fill="#4C35BC"/>
<path d="M41.1233 18.1195C41.1233 18.1195 43.7613 20.8501 48.5221 21.9393C51.4047 17.429 57.2986 14.9114 63.6211 13.9892C56.6195 13.5172 53.8437 14.4415 52.391 14.5977C50.7368 14.7756 46.0618 11.1589 41.1233 18.1195Z" fill="#FA368B"/>
<path d="M23.9198 23.1731C23.9198 23.1731 21.5557 26.1229 20.0002 29.3164C21.0879 27.6683 22.4183 26.1362 25.6499 24.4653L23.9198 23.1731Z" fill="#4C35BC"/>
<path d="M17.545 11.4401C18.5395 12.3922 19.1889 13.2154 19.7944 14.0985C16.973 12.683 12.0502 12.7531 8.91406 13.1773C10.661 12.3637 14.6537 11.2865 17.545 11.4401Z" fill="#4C35BC"/>
<path d="M35.2883 10.8578C35.2883 10.8578 36.9774 11.9526 37.7385 14.0875C39.1991 11.1892 44.7584 8.79564 48.5156 7.8501C44.2627 7.99611 42.6453 8.7245 41.7783 8.90828C40.7917 9.11736 36.8584 7.72477 35.2883 10.8578Z" fill="#4C35BC"/>
<path d="M15.0639 39.9105C15.0639 39.9105 23.4946 32.2617 32.6666 32.2617C42.9815 32.2617 45.9616 27.3039 48.335 22.4652C48.335 22.4652 40.3826 21.4038 36.7752 13.0183C36.7752 13.0183 28.1743 1.04154 4.93388 1.79056C4.93388 1.79056 18.121 9.51866 21.3323 14.7163C24.6239 20.0437 33.1366 25.8353 32.7765 25.6579C25.3218 21.9931 20.2515 15.0292 20.0798 14.5818C19.9083 14.1344 12.8385 12.0728 0.481934 16.2255C0.481934 16.2255 13.759 13.6586 28.8992 26.3159C28.8992 26.3159 27.3684 27.0027 26.271 27.7601C19.4842 32.4435 15.0467 39.9148 15.0639 39.9105Z" fill="#FA368B"/>
</g>
<defs>
<clipPath id="clip0_204_2160">
<rect width="201.997" height="44.9992" fill="white" transform="translate(0 0.771484)"/>
</clipPath>
</defs>
</svg>
