<svg width="45" height="35" viewBox="0 0 45 35" fill="none" xmlns="http://www.w3.org/2000/svg">
<g clip-path="url(#clip0_204_2208)">
<path d="M29.1044 0.60791H15.1073C6.82471 0.60791 0.110352 7.32227 0.110352 15.6048V19.604C0.110352 27.8866 6.82471 34.601 15.1073 34.601H29.1044C37.387 34.601 44.1014 27.8866 44.1014 19.604V15.6048C44.1014 7.32227 37.387 0.60791 29.1044 0.60791Z" fill="white"/>
<path fill-rule="evenodd" clip-rule="evenodd" d="M34.1035 17.6045C34.1035 24.2305 28.732 29.602 22.1059 29.602C15.4799 29.602 10.1084 24.2305 10.1084 17.6045C10.1084 10.9784 15.4799 5.60693 22.1059 5.60693C28.732 5.60693 34.1035 10.9784 34.1035 17.6045ZM25.1053 13.1054C25.1053 15.038 23.7625 16.6047 22.1059 16.6047C20.4494 16.6047 19.1066 15.038 19.1066 13.1054C19.1066 11.1728 20.4494 9.60612 22.1059 9.60612C23.7625 9.60612 25.1053 11.1728 25.1053 13.1054ZM17.0779 20.5382C16.4568 20.9216 16.1072 21.6081 16.1072 22.3379C16.1072 23.589 17.1213 24.6031 18.3723 24.6031H25.8396C27.0906 24.6031 28.1047 23.589 28.1047 22.3379C28.1047 21.6081 27.7551 20.9216 27.134 20.5382C25.9007 19.7767 23.7367 18.6043 22.1059 18.6043C20.4752 18.6043 18.3112 19.7767 17.0779 20.5382Z" fill="black"/>
</g>
<defs>
<clipPath id="clip0_204_2208">
<rect width="43.991" height="33.9931" fill="white" transform="translate(0.110352 0.60791)"/>
</clipPath>
</defs>
</svg>
