<svg width="21" height="21" viewBox="0 0 21 21" fill="none" xmlns="http://www.w3.org/2000/svg">
<g clip-path="url(#clip0_204_2267)">
<path d="M7.54739 11.7262C9.85065 11.7262 11.7178 9.85898 11.7178 7.5557C11.7178 5.25242 9.85065 3.38525 7.54739 3.38525C5.24412 3.38525 3.37695 5.25242 3.37695 7.5557C3.37695 9.85898 5.24412 11.7262 7.54739 11.7262Z" fill="#64748B"/>
<path d="M15.0346 17.5645C15.0346 15.3636 14.0931 13.3782 12.5668 12.0062C12.2155 11.6903 11.6858 11.6782 11.3266 11.9851C9.1484 13.8465 5.94704 13.8469 3.76827 11.9853C3.40963 11.6788 2.87946 11.6883 2.52934 12.0045C1.01102 13.3759 0.054884 15.3584 0.053711 17.5605C0.0534765 18.0143 0.420996 18.3856 0.874764 18.3856H14.2136C14.6658 18.3856 15.0346 18.0193 15.0346 17.5645Z" fill="#64748B"/>
<path d="M18.4891 13.2552C18.0347 13.6253 17.5002 13.9008 16.916 14.0511C16.4689 14.1662 16.2044 14.626 16.3302 15.0702C16.7194 16.4446 16.6766 17.6011 16.6766 17.563C16.6766 18.0165 17.0442 18.3841 17.4976 18.3841H19.2246C19.678 18.3841 20.0456 18.0165 20.0456 17.563C20.0456 15.0051 20.1256 14.5072 19.7759 13.5879C19.5769 13.0647 18.9231 12.9017 18.4891 13.2552Z" fill="#64748B"/>
<path d="M15.8884 12.5597C17.2704 12.5597 18.3907 11.4394 18.3907 10.0574C18.3907 8.67547 17.2704 7.55518 15.8884 7.55518C14.5065 7.55518 13.3862 8.67547 13.3862 10.0574C13.3862 11.4394 14.5065 12.5597 15.8884 12.5597Z" fill="#64748B"/>
</g>
<defs>
<clipPath id="clip0_204_2267">
<rect width="20" height="20" fill="white" transform="translate(0.0537109 0.884766)"/>
</clipPath>
</defs>
</svg>
