<svg width="21" height="21" viewBox="0 0 21 21" fill="none" xmlns="http://www.w3.org/2000/svg">
<g clip-path="url(#clip0_204_2199)">
<path d="M8.2886 11.4459C10.5919 11.4459 12.459 9.57871 12.459 7.27543C12.459 4.97215 10.5919 3.10498 8.2886 3.10498C5.98533 3.10498 4.11816 4.97215 4.11816 7.27543C4.11816 9.57871 5.98533 11.4459 8.2886 11.4459Z" fill="#64748B"/>
<path d="M15.7758 17.2842C15.7758 15.0833 14.8343 13.0979 13.308 11.7259C12.9567 11.41 12.427 11.3979 12.0678 11.7048C9.88961 13.5662 6.68825 13.5666 4.50948 11.705C4.15084 11.3985 3.62067 11.408 3.27055 11.7242C1.75223 13.0956 0.796095 15.0781 0.794922 17.2802C0.794687 17.734 1.16221 18.1053 1.61597 18.1053H14.9548C15.407 18.1053 15.7758 17.739 15.7758 17.2842Z" fill="#64748B"/>
<path d="M19.2303 12.9749C18.7759 13.345 18.2414 13.6205 17.6572 13.7708C17.2101 13.8859 16.9456 14.3457 17.0714 14.7899C17.4606 16.1643 17.4178 17.3208 17.4178 17.2827C17.4178 17.7362 17.7854 18.1038 18.2388 18.1038H19.9658C20.4192 18.1038 20.7868 17.7362 20.7868 17.2827C20.7868 14.7248 20.8668 14.2269 20.5171 13.3076C20.3181 12.7844 19.6643 12.6214 19.2303 12.9749Z" fill="#64748B"/>
<path d="M16.6296 12.2794C18.0116 12.2794 19.1319 11.1591 19.1319 9.77715C19.1319 8.39519 18.0116 7.2749 16.6296 7.2749C15.2477 7.2749 14.1274 8.39519 14.1274 9.77715C14.1274 11.1591 15.2477 12.2794 16.6296 12.2794Z" fill="#64748B"/>
</g>
<defs>
<clipPath id="clip0_204_2199">
<rect width="20" height="20" fill="white" transform="translate(0.794922 0.604492)"/>
</clipPath>
</defs>
</svg>
