<svg width="17" height="18" viewBox="0 0 17 18" fill="none" xmlns="http://www.w3.org/2000/svg">
<g clip-path="url(#clip0_204_2256)">
<path d="M5.86494 9.23167C5.86494 9.03382 5.70447 8.87354 5.50646 8.87354H4.25551C4.05773 8.87354 3.89722 9.03382 3.89722 9.23167V10.4824C3.89722 10.6805 4.05773 10.8409 4.25551 10.8409H5.50646C5.70447 10.8409 5.86494 10.6805 5.86494 10.4824V9.23167Z" fill="#64748B"/>
<path d="M8.99047 9.23167C8.99047 9.03382 8.82996 8.87354 8.63235 8.87354H7.38123C7.18345 8.87354 7.02295 9.03382 7.02295 9.23167V10.4824C7.02295 10.6805 7.18345 10.8409 7.38123 10.8409H8.63235C8.82996 10.8409 8.99047 10.6805 8.99047 10.4824V9.23167Z" fill="#64748B"/>
<path d="M12.1161 9.23167C12.1161 9.03382 11.9556 8.87354 11.7579 8.87354H10.5069C10.3089 8.87354 10.1484 9.03382 10.1484 9.23167V10.4824C10.1484 10.6805 10.3089 10.8409 10.5069 10.8409H11.7579C11.9556 10.8409 12.1161 10.6805 12.1161 10.4824V9.23167Z" fill="#64748B"/>
<path d="M5.86494 12.3563C5.86494 12.1581 5.70447 11.998 5.50646 11.998H4.25551C4.05773 11.998 3.89722 12.1581 3.89722 12.3563V13.6068C3.89722 13.8048 4.05773 13.9651 4.25551 13.9651H5.50646C5.70447 13.9651 5.86494 13.8048 5.86494 13.6068V12.3563Z" fill="#64748B"/>
<path d="M8.99047 12.3563C8.99047 12.1581 8.82996 11.998 8.63235 11.998H7.38123C7.18345 11.998 7.02295 12.1581 7.02295 12.3563V13.6068C7.02295 13.8048 7.18345 13.9651 7.38123 13.9651H8.63235C8.82996 13.9651 8.99047 13.8048 8.99047 13.6068V12.3563Z" fill="#64748B"/>
<path d="M12.1161 12.3563C12.1161 12.1581 11.9556 11.998 11.758 11.998H10.5069C10.3089 11.998 10.1484 12.1581 10.1484 12.3563V13.6068C10.1484 13.8048 10.3089 13.9651 10.5069 13.9651H11.758C11.9556 13.9651 12.1161 13.8048 12.1161 13.6068V12.3563Z" fill="#64748B"/>
<path d="M14.1772 2.50027V4.41036C14.1772 5.2737 13.4769 5.96942 12.6136 5.96942H11.6272C10.764 5.96942 10.0544 5.2737 10.0544 4.41036V2.49341H5.60854V4.41036C5.60854 5.2737 4.89892 5.96942 4.03577 5.96942H3.04922C2.18603 5.96942 1.48569 5.2737 1.48569 4.41036V2.50027C0.731259 2.523 0.111328 3.14726 0.111328 3.91458V15.1087C0.111328 15.8904 0.744942 16.5324 1.52667 16.5324H14.1362C14.9168 16.5324 15.5515 15.889 15.5515 15.1087V3.91458C15.5515 3.14726 14.9317 2.523 14.1772 2.50027ZM13.7191 14.4116C13.7191 14.7494 13.4452 15.0235 13.1072 15.0235H2.52872C2.19075 15.0235 1.91684 14.7494 1.91684 14.4116V8.62942C1.91684 8.29145 2.19072 8.01738 2.52872 8.01738H13.1071C13.4452 8.01738 13.719 8.29145 13.719 8.62942L13.7191 14.4116Z" fill="#64748B"/>
<path d="M3.22093 4.72397H4.19678C4.49298 4.72397 4.73314 4.48416 4.73314 4.18796V1.05597C4.73314 0.759742 4.49298 0.519775 4.19678 0.519775H3.22093C2.9247 0.519775 2.68457 0.759742 2.68457 1.05597V4.18796C2.68457 4.48416 2.9247 4.72397 3.22093 4.72397Z" fill="#64748B"/>
<path d="M11.79 4.72397H12.7658C13.0618 4.72397 13.302 4.48416 13.302 4.18796V1.05597C13.302 0.759742 13.0619 0.519775 12.7658 0.519775H11.79C11.4938 0.519775 11.2537 0.759742 11.2537 1.05597V4.18796C11.2537 4.48416 11.4938 4.72397 11.79 4.72397Z" fill="#64748B"/>
</g>
<defs>
<clipPath id="clip0_204_2256">
<rect width="15.9967" height="16.9965" fill="white" transform="translate(0.0546875 0.38623)"/>
</clipPath>
</defs>
</svg>
