<svg width="16" height="21" viewBox="0 0 16 21" fill="none" xmlns="http://www.w3.org/2000/svg">
<g clip-path="url(#clip0_204_2251)">
<path d="M7.47404 0.884766C3.79811 0.884766 0.807373 3.87551 0.807373 7.55144C0.807373 8.65495 1.08327 9.74909 1.60776 10.7196L7.10947 20.6699C7.18271 20.8026 7.32228 20.8848 7.47404 20.8848C7.62579 20.8848 7.76537 20.8026 7.83861 20.6699L13.3424 10.7163C13.8648 9.74909 14.1407 8.65491 14.1407 7.5514C14.1407 3.87551 11.15 0.884766 7.47404 0.884766ZM7.47404 10.8847C5.63607 10.8847 4.14072 9.3894 4.14072 7.55144C4.14072 5.71347 5.63607 4.21812 7.47404 4.21812C9.312 4.21812 10.8074 5.71347 10.8074 7.55144C10.8074 9.3894 9.312 10.8847 7.47404 10.8847Z" fill="#64748B"/>
</g>
<defs>
<clipPath id="clip0_204_2251">
<rect width="15" height="20" fill="white" transform="translate(0.057373 0.884766)"/>
</clipPath>
</defs>
</svg>
