<svg width="18" height="13" viewBox="0 0 18 13" fill="none" xmlns="http://www.w3.org/2000/svg">
<g clip-path="url(#clip0_204_2243)">
<path d="M3.95888 7.29392C5.00801 7.29392 5.89983 8.00612 6.22585 8.99837L6.2649 8.99141L6.35818 8.98574H16.7552C17.1969 8.98574 17.5549 9.36445 17.5549 9.83166C17.5549 10.2655 17.2462 10.623 16.8484 10.6719L16.7552 10.6776H6.3582C6.31301 10.6776 6.2686 10.6735 6.22543 10.666C5.89986 11.6572 5.00803 12.3694 3.95887 12.3694C2.6338 12.3694 1.55957 11.2332 1.55957 9.83165C1.55957 8.43013 2.6338 7.29392 3.95888 7.29392ZM3.95888 8.98574C3.51715 8.98574 3.15911 9.36445 3.15911 9.83166C3.15911 10.2989 3.51715 10.6776 3.95888 10.6776C4.40061 10.6776 4.75865 10.2989 4.75865 9.83166C4.75865 9.36445 4.40061 8.98574 3.95888 8.98574ZM12.7563 1.37256C13.8054 1.37256 14.6973 2.08475 15.0233 3.07701L15.0624 3.07005L15.1556 3.06438H16.7552C17.1969 3.06438 17.5549 3.44308 17.5549 3.91028C17.5549 4.34409 17.2462 4.70167 16.8484 4.75052L16.7552 4.75618H15.1556C15.1104 4.75618 15.0661 4.75217 15.0229 4.74462C14.6973 5.73582 13.8055 6.44801 12.7563 6.44801C11.7071 6.44801 10.8154 5.73582 10.4894 4.74356L10.4503 4.75052L10.357 4.75619H2.35934C1.91761 4.75619 1.55958 4.37749 1.55958 3.91027C1.55958 3.47648 1.86832 3.1189 2.26606 3.07005L2.35933 3.06438H10.357C10.4022 3.06438 10.4466 3.0684 10.4898 3.07595C10.8154 2.08475 11.7072 1.37256 12.7563 1.37256ZM12.7563 3.06438C12.3147 3.06438 11.9566 3.44307 11.9566 3.91028C11.9566 4.3775 12.3147 4.7562 12.7563 4.7562C13.1981 4.7562 13.5561 4.3775 13.5561 3.91028C13.5561 3.44307 13.1981 3.06438 12.7563 3.06438Z" fill="#242526"/>
</g>
<defs>
<clipPath id="clip0_204_2243">
<rect width="16.9951" height="11.9965" fill="white" transform="translate(0.759766 0.872559)"/>
</clipPath>
</defs>
</svg>
