<svg width="136" height="41" viewBox="0 0 136 41" fill="none" xmlns="http://www.w3.org/2000/svg">
<g clip-path="url(#clip0_204_3612)">
<g clip-path="url(#clip1_204_3612)">
<path d="M1.5708 10.8633C1.5708 7.63348 1.5708 6.01857 2.09845 4.7447C2.80199 3.04621 4.15143 1.69677 5.84992 0.993229C7.12379 0.465576 8.7387 0.465576 11.9685 0.465576H124.761C127.991 0.465576 129.606 0.465576 130.88 0.993229C132.578 1.69677 133.928 3.04621 134.631 4.7447C135.159 6.01857 135.159 7.63348 135.159 10.8633V29.6494C135.159 32.8793 135.159 34.4942 134.631 35.768C133.928 37.4665 132.578 38.816 130.88 39.5195C129.606 40.0472 127.991 40.0472 124.761 40.0472H11.9685C8.73871 40.0472 7.12379 40.0472 5.84992 39.5195C4.15143 38.816 2.80199 37.4665 2.09845 35.768C1.5708 34.4942 1.5708 32.8793 1.5708 29.6494V10.8633Z" fill="white"/>
<path d="M68.9942 21.989C66.6668 21.989 64.7699 23.7593 64.7699 26.1975C64.7699 28.6209 66.6668 30.406 68.9942 30.406C71.3226 30.406 73.2195 28.6209 73.2195 26.1975C73.2186 23.7593 71.3216 21.989 68.9942 21.989ZM68.9942 28.7495C67.7187 28.7495 66.6193 27.6977 66.6193 26.1985C66.6193 24.6835 67.7197 23.6475 68.9942 23.6475C70.2697 23.6475 71.3691 24.6835 71.3691 26.1985C71.3691 27.6967 70.2697 28.7495 68.9942 28.7495ZM59.7776 21.989C57.4502 21.989 55.5533 23.7593 55.5533 26.1975C55.5533 28.6209 57.4502 30.406 59.7776 30.406C62.106 30.406 64.003 28.6209 64.003 26.1975C64.003 23.7593 62.106 21.989 59.7776 21.989ZM59.7776 28.7495C58.5021 28.7495 57.4027 27.6977 57.4027 26.1985C57.4027 24.6835 58.5031 23.6475 59.7776 23.6475C61.0531 23.6475 62.1525 24.6835 62.1525 26.1985C62.1535 27.6967 61.0531 28.7495 59.7776 28.7495ZM48.8155 23.2813V25.0665H53.0883C52.9607 26.0709 52.6262 26.8041 52.1156 27.3137C51.4942 27.9352 50.5215 28.6209 48.8155 28.6209C46.1853 28.6209 44.129 26.5003 44.129 23.8701C44.129 21.2399 46.1853 19.1193 48.8155 19.1193C50.2345 19.1193 51.2706 19.6774 52.0355 20.3949L53.2951 19.1352C52.2264 18.115 50.8084 17.3342 48.8155 17.3342C45.2126 17.3342 42.1836 20.2672 42.1836 23.8701C42.1836 27.473 45.2126 30.406 48.8155 30.406C50.7599 30.406 52.2274 29.7678 53.3743 28.5724C54.5538 27.3929 54.921 25.7344 54.921 24.3956C54.921 23.9819 54.8893 23.599 54.825 23.2804L48.8155 23.2813ZM93.6496 24.6677C93.2993 23.7276 92.2306 21.989 90.0467 21.989C87.8786 21.989 86.0766 23.695 86.0766 26.1975C86.0766 28.5566 87.8628 30.406 90.2535 30.406C92.1821 30.406 93.2983 29.2265 93.7614 28.5408L92.3266 27.5839C91.8486 28.2855 91.1945 28.7476 90.2535 28.7476C89.3134 28.7476 88.6435 28.3171 88.2131 27.4721L93.8406 25.1447L93.6496 24.6677ZM87.9103 26.0709C87.8628 24.4441 89.1699 23.6158 90.111 23.6158C90.8442 23.6158 91.4657 23.9829 91.6735 24.5084L87.9103 26.0709ZM83.3356 30.1517H85.1841V17.7815H83.3356V30.1517ZM80.3056 22.9301H80.2423C79.8277 22.4353 79.0301 21.989 78.0267 21.989C75.922 21.989 73.9934 23.8385 73.9934 26.2143C73.9934 28.5734 75.922 30.407 78.0267 30.407C79.0311 30.407 79.8277 29.9607 80.2423 29.4511H80.3056V30.0567C80.3056 31.6667 79.4447 32.5276 78.0584 32.5276C76.9264 32.5276 76.2248 31.7152 75.9378 31.0295L74.3278 31.6994C74.7899 32.8146 76.017 34.1861 78.0584 34.1861C80.2265 34.1861 82.0601 32.9106 82.0601 29.8014V22.2453H80.3066L80.3056 22.9301ZM78.186 28.7495C76.9105 28.7495 75.8428 27.6808 75.8428 26.2143C75.8428 24.731 76.9105 23.6475 78.186 23.6475C79.4447 23.6475 80.4333 24.731 80.4333 26.2143C80.4333 27.6808 79.4447 28.7495 78.186 28.7495ZM102.312 17.7815H97.8878V30.1517H99.7333V25.4653H102.311C104.358 25.4653 106.37 23.9839 106.37 21.6239C106.37 19.2638 104.359 17.7815 102.312 17.7815ZM102.36 23.7435H99.7333V19.5033H102.36C103.74 19.5033 104.524 20.6462 104.524 21.6239C104.524 22.5817 103.74 23.7435 102.36 23.7435ZM113.771 21.9672C112.434 21.9672 111.05 22.556 110.477 23.8612L112.116 24.545C112.466 23.8612 113.119 23.6376 113.803 23.6376C114.758 23.6376 115.728 24.2105 115.744 25.2288V25.3564C115.41 25.1654 114.693 24.8795 113.819 24.8795C112.052 24.8795 110.253 25.8502 110.253 27.664C110.253 29.3195 111.702 30.3853 113.325 30.3853C114.566 30.3853 115.25 29.8281 115.68 29.1751H115.743V30.13H117.526V25.3871C117.527 23.1923 115.887 21.9672 113.771 21.9672ZM113.547 28.7466C112.944 28.7466 112.1 28.4438 112.1 27.6957C112.1 26.7408 113.151 26.3746 114.058 26.3746C114.869 26.3746 115.251 26.5498 115.744 26.7883C115.601 27.9352 114.614 28.7466 113.547 28.7466ZM124.02 22.2374L121.903 27.6007H121.84L119.643 22.2374H117.654L120.948 29.7332L119.07 33.9031H120.996L126.073 22.2374H124.02ZM107.39 30.1517H109.235V17.7815H107.39V30.1517Z" fill="black"/>
<path d="M48.493 10.6011C48.493 11.4304 48.2476 12.0904 47.7558 12.5832C47.1977 13.169 46.4694 13.4619 45.5749 13.4619C44.7179 13.4619 43.9886 13.165 43.39 12.5713C42.7903 11.9766 42.4905 11.2404 42.4905 10.3617C42.4905 9.48202 42.7903 8.7458 43.39 8.15207C43.9886 7.55736 44.7179 7.2605 45.5749 7.2605C46.0004 7.2605 46.4071 7.34362 46.793 7.50887C47.1799 7.67512 47.4896 7.89578 47.7212 8.17187L47.1997 8.69434C46.8068 8.22431 46.2656 7.98979 45.5739 7.98979C44.9485 7.98979 44.4082 8.20947 43.952 8.64882C43.4958 9.08818 43.2682 9.65914 43.2682 10.3607C43.2682 11.0623 43.4958 11.6332 43.952 12.0726C44.4082 12.5119 44.9485 12.7316 45.5739 12.7316C46.2369 12.7316 46.79 12.511 47.2323 12.0686C47.5193 11.7807 47.6855 11.3799 47.7301 10.8663H45.5739V10.1529H48.4505C48.4801 10.3082 48.493 10.4577 48.493 10.6011Z" fill="black"/>
<path d="M53.0548 8.12138H50.3514V10.0035H52.7896V10.717H50.3514V12.5991H53.0548V13.3294H49.5884V7.39209H53.0548V8.12138Z" fill="black"/>
<path d="M56.2717 13.3294H55.5087V8.12138H53.8503V7.39209H57.9301V8.12138H56.2717V13.3294Z" fill="black"/>
<path d="M60.8818 13.3294V7.39209H61.6447V13.3294H60.8818Z" fill="black"/>
<path d="M65.0281 13.3294H64.2652V8.12138H62.6067V7.39209H66.6866V8.12138H65.0281V13.3294Z" fill="black"/>
<path d="M74.4098 12.5625C73.826 13.1621 73.1007 13.462 72.2328 13.462C71.365 13.462 70.6397 13.1621 70.0568 12.5625C69.473 11.9628 69.1821 11.2286 69.1821 10.3607C69.1821 9.49292 69.473 8.75868 70.0568 8.15902C70.6397 7.55936 71.365 7.25854 72.2328 7.25854C73.0957 7.25854 73.8201 7.56036 74.4059 8.16299C74.9917 8.76562 75.2846 9.49787 75.2846 10.3607C75.2846 11.2286 74.9927 11.9628 74.4098 12.5625ZM70.6199 12.0647C71.0593 12.51 71.5966 12.7317 72.2328 12.7317C72.8691 12.7317 73.4074 12.509 73.8458 12.0647C74.2852 11.6194 74.5058 11.0514 74.5058 10.3607C74.5058 9.67005 74.2852 9.10205 73.8458 8.65676C73.4074 8.21146 72.8691 7.98981 72.2328 7.98981C71.5966 7.98981 71.0593 8.21245 70.6199 8.65676C70.1815 9.10205 69.9609 9.67005 69.9609 10.3607C69.9609 11.0514 70.1815 11.6194 70.6199 12.0647Z" fill="black"/>
<path d="M76.3552 13.3294V7.39209H77.2834L80.1689 12.0103H80.2015L80.1689 10.8664V7.39209H80.9318V13.3294H80.1352L77.1162 8.48653H77.0835L77.1162 9.63043V13.3294H76.3552Z" fill="black"/>
<path d="M48.493 10.6011C48.493 11.4304 48.2476 12.0904 47.7558 12.5832C47.1977 13.169 46.4694 13.4619 45.5749 13.4619C44.7179 13.4619 43.9886 13.165 43.39 12.5713C42.7903 11.9766 42.4905 11.2404 42.4905 10.3617C42.4905 9.48202 42.7903 8.7458 43.39 8.15207C43.9886 7.55736 44.7179 7.2605 45.5749 7.2605C46.0004 7.2605 46.4071 7.34362 46.793 7.50887C47.1799 7.67512 47.4896 7.89578 47.7212 8.17187L47.1997 8.69434C46.8068 8.22431 46.2656 7.98979 45.5739 7.98979C44.9485 7.98979 44.4082 8.20947 43.952 8.64882C43.4958 9.08818 43.2682 9.65914 43.2682 10.3607C43.2682 11.0623 43.4958 11.6332 43.952 12.0726C44.4082 12.5119 44.9485 12.7316 45.5739 12.7316C46.2369 12.7316 46.79 12.511 47.2323 12.0686C47.5193 11.7807 47.6855 11.3799 47.7301 10.8663H45.5739V10.1529H48.4505C48.4801 10.3082 48.493 10.4577 48.493 10.6011Z" stroke="black" stroke-width="0.198052" stroke-miterlimit="10"/>
<path d="M53.0548 8.12138H50.3514V10.0035H52.7896V10.717H50.3514V12.5991H53.0548V13.3294H49.5884V7.39209H53.0548V8.12138Z" stroke="black" stroke-width="0.198052" stroke-miterlimit="10"/>
<path d="M56.2717 13.3294H55.5087V8.12138H53.8503V7.39209H57.9301V8.12138H56.2717V13.3294Z" stroke="black" stroke-width="0.198052" stroke-miterlimit="10"/>
<path d="M60.8818 13.3294V7.39209H61.6447V13.3294H60.8818Z" stroke="black" stroke-width="0.198052" stroke-miterlimit="10"/>
<path d="M65.0281 13.3294H64.2652V8.12138H62.6067V7.39209H66.6866V8.12138H65.0281V13.3294Z" stroke="black" stroke-width="0.198052" stroke-miterlimit="10"/>
<path d="M74.4098 12.5625C73.826 13.1621 73.1007 13.462 72.2328 13.462C71.365 13.462 70.6397 13.1621 70.0568 12.5625C69.473 11.9628 69.1821 11.2286 69.1821 10.3607C69.1821 9.49292 69.473 8.75868 70.0568 8.15902C70.6397 7.55936 71.365 7.25854 72.2328 7.25854C73.0957 7.25854 73.8201 7.56036 74.4059 8.16299C74.9917 8.76562 75.2846 9.49787 75.2846 10.3607C75.2846 11.2286 74.9927 11.9628 74.4098 12.5625ZM70.6199 12.0647C71.0593 12.51 71.5966 12.7317 72.2328 12.7317C72.8691 12.7317 73.4074 12.509 73.8458 12.0647C74.2852 11.6194 74.5058 11.0514 74.5058 10.3607C74.5058 9.67005 74.2852 9.10205 73.8458 8.65676C73.4074 8.21146 72.8691 7.98981 72.2328 7.98981C71.5966 7.98981 71.0593 8.21245 70.6199 8.65676C70.1815 9.10205 69.9609 9.67005 69.9609 10.3607C69.9609 11.0514 70.1815 11.6194 70.6199 12.0647Z" stroke="black" stroke-width="0.198052" stroke-miterlimit="10"/>
<path d="M76.3552 13.3294V7.39209H77.2834L80.1689 12.0103H80.2015L80.1689 10.8664V7.39209H80.9318V13.3294H80.1352L77.1162 8.48653H77.0835L77.1162 9.63043V13.3294H76.3552Z" stroke="black" stroke-width="0.198052" stroke-miterlimit="10"/>
<g filter="url(#filter0_dd_204_3612)">
<path d="M11.8976 7.92502C11.6097 8.2298 11.4395 8.7028 11.4395 9.31533V31.2C11.4395 31.8135 11.6097 32.2855 11.8976 32.5903L11.9708 32.6615L24.2303 20.4021V20.2576V20.1132L11.9708 7.85278L11.8976 7.92502Z" fill="url(#paint0_linear_204_3612)"/>
<path d="M28.3163 24.4896L24.2305 20.4019V20.2574V20.1129L28.3173 16.0261L28.4093 16.0785L33.2511 18.8295C34.6335 19.6152 34.6335 20.9006 33.2511 21.6873L28.4093 24.4382L28.3163 24.4896Z" fill="url(#paint1_linear_204_3612)"/>
<g filter="url(#filter1_d_204_3612)">
<path d="M28.4092 24.4375L24.2294 20.2576L11.8977 32.5903C12.3529 33.0732 13.1059 33.1326 13.954 32.6516L28.4092 24.4375Z" fill="url(#paint2_linear_204_3612)"/>
</g>
<path d="M28.4092 16.0772L13.954 7.86405C13.1059 7.38215 12.3529 7.44251 11.8977 7.92541L24.2303 20.258L28.4092 16.0772Z" fill="url(#paint3_linear_204_3612)"/>
</g>
<path d="M11.9685 0.782232H124.761V0.148926H11.9685V0.782232ZM134.842 10.8633V29.6494H135.476V10.8633H134.842ZM124.761 39.7305H11.9685V40.3638H124.761V39.7305ZM1.88746 29.6494V10.8633H1.25415V29.6494H1.88746ZM11.9685 39.7305C10.3493 39.7305 9.15072 39.7303 8.19731 39.6653C7.24674 39.6004 6.56303 39.4721 5.97111 39.227L5.72876 39.8121C6.41071 40.0945 7.17139 40.2301 8.1542 40.2971C9.13417 40.364 10.358 40.3638 11.9685 40.3638V39.7305ZM1.25415 29.6494C1.25415 31.26 1.25398 32.4838 1.32084 33.4638C1.3879 34.4466 1.52344 35.2073 1.80591 35.8892L2.39101 35.6469C2.14583 35.0549 2.01754 34.3712 1.95268 33.4207C1.88763 32.4673 1.88746 31.2687 1.88746 29.6494H1.25415ZM5.97111 39.227C4.35021 38.5556 3.06241 37.2678 2.39101 35.6469L1.80591 35.8892C2.54159 37.6653 3.95268 39.0764 5.72876 39.8121L5.97111 39.227ZM134.842 29.6494C134.842 31.2687 134.842 32.4673 134.777 33.4207C134.712 34.3712 134.584 35.0549 134.339 35.6469L134.924 35.8892C135.206 35.2073 135.342 34.4466 135.409 33.4638C135.476 32.4838 135.476 31.26 135.476 29.6494H134.842ZM124.761 40.3638C126.372 40.3638 127.596 40.364 128.576 40.2971C129.558 40.2301 130.319 40.0945 131.001 39.8121L130.759 39.227C130.167 39.4721 129.483 39.6004 128.532 39.6653C127.579 39.7303 126.38 39.7305 124.761 39.7305V40.3638ZM134.339 35.6469C133.667 37.2678 132.38 38.5556 130.759 39.227L131.001 39.8121C132.777 39.0764 134.188 37.6653 134.924 35.8892L134.339 35.6469ZM124.761 0.782232C126.38 0.782232 127.579 0.782403 128.532 0.847454C129.483 0.912311 130.167 1.0406 130.759 1.28578L131.001 0.700683C130.319 0.418211 129.558 0.282674 128.576 0.215617C127.596 0.148755 126.372 0.148926 124.761 0.148926V0.782232ZM135.476 10.8633C135.476 9.25273 135.476 8.02893 135.409 7.04897C135.342 6.06616 135.206 5.30547 134.924 4.62353L134.339 4.86588C134.584 5.4578 134.712 6.14151 134.777 7.09208C134.842 8.04549 134.842 9.24406 134.842 10.8633H135.476ZM130.759 1.28578C132.38 1.95718 133.667 3.24498 134.339 4.86588L134.924 4.62353C134.188 2.84745 132.777 1.43636 131.001 0.700683L130.759 1.28578ZM11.9685 0.148926C10.358 0.148926 9.13417 0.148755 8.1542 0.215617C7.17139 0.282674 6.41071 0.418211 5.72876 0.700683L5.97111 1.28578C6.56303 1.0406 7.24674 0.912311 8.19731 0.847454C9.15072 0.782403 10.3493 0.782232 11.9685 0.782232V0.148926ZM1.88746 10.8633C1.88746 9.24405 1.88763 8.04548 1.95268 7.09207C2.01754 6.14151 2.14583 5.4578 2.39101 4.86588L1.80591 4.62353C1.52344 5.30547 1.3879 6.06615 1.32084 7.04896C1.25398 8.02893 1.25415 9.25272 1.25415 10.8633H1.88746ZM5.72876 0.700683C3.95268 1.43636 2.54159 2.84745 1.80591 4.62353L2.39101 4.86588C3.06241 3.24498 4.35021 1.95718 5.97111 1.28578L5.72876 0.700683Z" fill="#DFE2E5"/>
</g>
</g>
<defs>
<filter id="filter0_dd_204_3612" x="11.4395" y="7.38296" width="22.8484" height="25.7493" filterUnits="userSpaceOnUse" color-interpolation-filters="sRGB">
<feFlood flood-opacity="0" result="BackgroundImageFix"/>
<feColorMatrix in="SourceAlpha" type="matrix" values="0 0 0 0 0 0 0 0 0 0 0 0 0 0 0 0 0 0 127 0" result="hardAlpha"/>
<feOffset dy="-0.148539"/>
<feComposite in2="hardAlpha" operator="out"/>
<feColorMatrix type="matrix" values="0 0 0 0 0 0 0 0 0 0 0 0 0 0 0 0 0 0 0.12 0"/>
<feBlend mode="normal" in2="BackgroundImageFix" result="effect1_dropShadow_204_3612"/>
<feColorMatrix in="SourceAlpha" type="matrix" values="0 0 0 0 0 0 0 0 0 0 0 0 0 0 0 0 0 0 127 0" result="hardAlpha"/>
<feOffset dy="0.148539"/>
<feComposite in2="hardAlpha" operator="out"/>
<feColorMatrix type="matrix" values="0 0 0 0 1 0 0 0 0 1 0 0 0 0 1 0 0 0 0.25 0"/>
<feBlend mode="normal" in2="effect1_dropShadow_204_3612" result="effect2_dropShadow_204_3612"/>
<feBlend mode="normal" in="SourceGraphic" in2="effect2_dropShadow_204_3612" result="shape"/>
</filter>
<filter id="filter1_d_204_3612" x="11.8977" y="20.109" width="16.5115" height="12.8747" filterUnits="userSpaceOnUse" color-interpolation-filters="sRGB">
<feFlood flood-opacity="0" result="BackgroundImageFix"/>
<feColorMatrix in="SourceAlpha" type="matrix" values="0 0 0 0 0 0 0 0 0 0 0 0 0 0 0 0 0 0 127 0" result="hardAlpha"/>
<feOffset dy="-0.148539"/>
<feComposite in2="hardAlpha" operator="out"/>
<feColorMatrix type="matrix" values="0 0 0 0 0 0 0 0 0 0 0 0 0 0 0 0 0 0 0.08 0"/>
<feBlend mode="normal" in2="BackgroundImageFix" result="effect1_dropShadow_204_3612"/>
<feBlend mode="normal" in="SourceGraphic" in2="effect1_dropShadow_204_3612" result="shape"/>
</filter>
<linearGradient id="paint0_linear_204_3612" x1="23.1435" y1="9.08377" x2="6.53703" y2="25.6902" gradientUnits="userSpaceOnUse">
<stop stop-color="#00A0FF"/>
<stop offset="0.0066" stop-color="#00A1FF"/>
<stop offset="0.2601" stop-color="#00BEFF"/>
<stop offset="0.5122" stop-color="#00D2FF"/>
<stop offset="0.7604" stop-color="#00DFFF"/>
<stop offset="1" stop-color="#00E3FF"/>
</linearGradient>
<linearGradient id="paint1_linear_204_3612" x1="35.0506" y1="20.2574" x2="11.1078" y2="20.2574" gradientUnits="userSpaceOnUse">
<stop stop-color="#FFE000"/>
<stop offset="0.4087" stop-color="#FFBD00"/>
<stop offset="0.7754" stop-color="#FFA500"/>
<stop offset="1" stop-color="#FF9C00"/>
</linearGradient>
<linearGradient id="paint2_linear_204_3612" x1="26.1393" y1="22.5276" x2="3.61883" y2="45.048" gradientUnits="userSpaceOnUse">
<stop stop-color="#FF3A44"/>
<stop offset="1" stop-color="#C31162"/>
</linearGradient>
<linearGradient id="paint3_linear_204_3612" x1="8.79194" y1="0.640214" x2="18.8479" y2="10.6962" gradientUnits="userSpaceOnUse">
<stop stop-color="#32A071"/>
<stop offset="0.0685" stop-color="#2DA771"/>
<stop offset="0.4762" stop-color="#15CF74"/>
<stop offset="0.8009" stop-color="#06E775"/>
<stop offset="1" stop-color="#00F076"/>
</linearGradient>
<clipPath id="clip0_204_3612">
<rect width="135" height="40" fill="white" transform="translate(0.987793 0.0471191)"/>
</clipPath>
<clipPath id="clip1_204_3612">
<rect width="135" height="40" fill="white" transform="translate(0.987793 0.0471191)"/>
</clipPath>
</defs>
</svg>
