<svg width="25" height="25" viewBox="0 0 25 25" fill="none" xmlns="http://www.w3.org/2000/svg">
<g clip-path="url(#clip0_204_2648)">
<path d="M18.5502 11.0467C18.5502 13.4879 15.6884 17.1362 13.9174 19.1601C13.1845 19.9978 11.915 19.9978 11.1821 19.1601C9.41115 17.1362 6.54932 13.4879 6.54932 11.0467C6.54932 7.51183 9.2358 4.64624 12.5498 4.64624C15.8637 4.64624 18.5502 7.51183 18.5502 11.0467Z" stroke="#797882" stroke-width="2"/>
<path d="M12.5496 12.6466C13.6542 12.6466 14.5496 11.7512 14.5496 10.6466C14.5496 9.54204 13.6542 8.64661 12.5496 8.64661C11.445 8.64661 10.5496 9.54204 10.5496 10.6466C10.5496 11.7512 11.445 12.6466 12.5496 12.6466Z" stroke="#797882" stroke-width="2"/>
</g>
<defs>
<clipPath id="clip0_204_2648">
<rect width="24.0017" height="24.0017" fill="white" transform="translate(0.548828 0.645996)"/>
</clipPath>
</defs>
</svg>
