<svg width="164" height="49" viewBox="0 0 164 49" fill="none" xmlns="http://www.w3.org/2000/svg">
<g clip-path="url(#clip0_204_3825)">
<g clip-path="url(#clip1_204_3825)">
<path d="M156.64 1.54004H7.80042C4.34264 1.54004 1.53955 4.24389 1.53955 7.57926V40.7995C1.53955 44.1348 4.34264 46.8387 7.80042 46.8387H156.64C160.098 46.8387 162.901 44.1348 162.901 40.7995V7.57926C162.901 4.24389 160.098 1.54004 156.64 1.54004Z" fill="white"/>
<path d="M99.1055 23.2612V25.9223H97.3762V27.6673H99.1055V33.5968C99.1055 35.6215 100.055 36.4313 102.444 36.4313C102.864 36.4313 103.263 36.3832 103.613 36.3254V34.5996C103.314 34.6285 103.124 34.6477 102.794 34.6477C101.724 34.6477 101.254 34.1656 101.254 33.0666V27.6673H103.613V25.9223H101.254V23.2612H99.1055Z" fill="black"/>
<path d="M109.699 36.5758C112.877 36.5758 114.827 34.5223 114.827 31.1188C114.827 27.7347 112.867 25.6714 109.699 25.6714C106.52 25.6714 104.561 27.7347 104.561 31.1188C104.561 34.5223 106.51 36.5758 109.699 36.5758ZM109.699 34.7343C107.83 34.7343 106.78 33.4134 106.78 31.1188C106.78 28.8435 107.83 27.5129 109.699 27.5129C111.558 27.5129 112.618 28.8435 112.618 31.1188C112.618 33.4038 111.558 34.7343 109.699 34.7343Z" fill="black"/>
<path d="M116.494 36.3737H118.643V30.1743C118.643 28.6992 119.792 27.706 121.421 27.706C121.801 27.706 122.441 27.7736 122.621 27.8315V25.7874C122.391 25.7296 121.981 25.7007 121.662 25.7007C120.242 25.7007 119.033 26.4527 118.723 27.4844H118.563V25.8743H116.494V36.3737Z" fill="black"/>
<path d="M127.957 27.4358C129.546 27.4358 130.586 28.5061 130.636 30.1548H125.138C125.258 28.5157 126.368 27.4358 127.957 27.4358ZM130.626 33.5389C130.226 34.3583 129.336 34.8114 128.037 34.8114C126.318 34.8114 125.208 33.6448 125.138 31.8033V31.6876H132.825V30.9645C132.825 27.6671 130.995 25.6714 127.967 25.6714C124.898 25.6714 122.949 27.8022 122.949 31.1574C122.949 34.5125 124.858 36.5758 127.977 36.5758C130.466 36.5758 132.205 35.419 132.695 33.5389H130.626Z" fill="black"/>
<path d="M85.0127 32.4963C85.1784 35.0745 87.4058 36.7234 90.7209 36.7234C94.2639 36.7234 96.481 34.9945 96.481 32.2365C96.481 30.068 95.217 28.8689 92.1505 28.1793L90.5034 27.7897C88.5557 27.35 87.7683 26.7603 87.7683 25.7311C87.7683 24.4321 88.9908 23.5825 90.8246 23.5825C92.565 23.5825 93.7667 24.412 93.9843 25.741H96.2427C96.108 23.3128 93.8909 21.604 90.8556 21.604C87.5923 21.604 85.4168 23.3128 85.4168 25.881C85.4168 27.9996 86.6495 29.2587 89.3533 29.8682L91.2803 30.3179C93.259 30.7675 94.1293 31.427 94.1293 32.5263C94.1293 33.8054 92.7618 34.7347 90.897 34.7347C88.8976 34.7347 87.5094 33.8654 87.3125 32.4963H85.0127Z" fill="black"/>
<path d="M62.7516 25.7007C61.2723 25.7007 59.993 26.4142 59.3333 27.6097H59.1733V25.8743H57.1042V39.8639H59.2534V34.783H59.4232C59.993 35.8916 61.2224 36.5473 62.7717 36.5473C65.5203 36.5473 67.2695 34.4551 67.2695 31.1191C67.2695 27.7832 65.5203 25.7007 62.7516 25.7007ZM62.142 34.6865C60.3427 34.6865 59.2134 33.3175 59.2134 31.1287C59.2134 28.9306 60.3427 27.5616 62.1519 27.5616C63.9711 27.5616 65.0605 28.9016 65.0605 31.1191C65.0605 33.3463 63.9711 34.6865 62.142 34.6865Z" fill="black"/>
<path d="M74.7892 25.7007C73.3099 25.7007 72.0305 26.4142 71.3708 27.6097H71.2108V25.8743H69.1418V39.8639H71.2908V34.783H71.4607C72.0305 35.8916 73.2598 36.5473 74.8091 36.5473C77.5579 36.5473 79.3069 34.4551 79.3069 31.1191C79.3069 27.7832 77.5579 25.7007 74.7892 25.7007ZM74.1794 34.6865C72.3803 34.6865 71.2508 33.3175 71.2508 31.1287C71.2508 28.9306 72.3803 27.5616 74.1894 27.5616C76.0086 27.5616 77.098 28.9016 77.098 31.1191C77.098 33.3463 76.0086 34.6865 74.1794 34.6865Z" fill="black"/>
<path d="M53.2486 36.3736H55.7142L50.3167 21.9536H47.8201L42.4226 36.3736H44.8054L46.1832 32.5462H51.8811L53.2486 36.3736ZM48.9493 24.5718H49.1255L51.2906 30.6675H46.7737L48.9493 24.5718Z" fill="black"/>
<path d="M43.866 11.0771V18.0334H46.4698C48.6187 18.0334 49.8631 16.7559 49.8631 14.5336C49.8631 12.345 48.6088 11.0771 46.4698 11.0771H43.866ZM44.9855 12.0606H46.3449C47.8391 12.0606 48.7237 12.9765 48.7237 14.548C48.7237 16.1437 47.854 17.05 46.3449 17.05H44.9855V12.0606Z" fill="black"/>
<path d="M53.6743 18.1349C55.2636 18.1349 56.2381 17.108 56.2381 15.4063C56.2381 13.7142 55.2586 12.6826 53.6743 12.6826C52.085 12.6826 51.1055 13.7142 51.1055 15.4063C51.1055 17.108 52.08 18.1349 53.6743 18.1349ZM53.6743 17.2141C52.7397 17.2141 52.215 16.5536 52.215 15.4063C52.215 14.2686 52.7397 13.6034 53.6743 13.6034C54.6039 13.6034 55.1337 14.2686 55.1337 15.4063C55.1337 16.5488 54.6039 17.2141 53.6743 17.2141Z" fill="black"/>
<path d="M64.5372 12.7837H63.4628L62.4932 16.7897H62.4083L61.2888 12.7837H60.2592L59.1398 16.7897H59.0599L58.0853 12.7837H56.9958L58.4951 18.0334H59.5995L60.719 14.1672H60.8039L61.9284 18.0334H63.043L64.5372 12.7837Z" fill="black"/>
<path d="M65.7747 18.0336H66.8492V14.9628C66.8492 14.1433 67.354 13.6323 68.1486 13.6323C68.9433 13.6323 69.323 14.0517 69.323 14.8953V18.0336H70.3975V14.635C70.3975 13.3864 69.7279 12.6826 68.5135 12.6826C67.6937 12.6826 67.1541 13.0345 66.8892 13.6178H66.8092V12.7839H65.7747V18.0336Z" fill="black"/>
<path d="M72.0896 18.0334H73.164V10.7349H72.0896V18.0334Z" fill="black"/>
<path d="M77.2053 18.1349C78.7946 18.1349 79.7691 17.108 79.7691 15.4063C79.7691 13.7142 78.7896 12.6826 77.2053 12.6826C75.6162 12.6826 74.6365 13.7142 74.6365 15.4063C74.6365 17.108 75.611 18.1349 77.2053 18.1349ZM77.2053 17.2141C76.2707 17.2141 75.746 16.5536 75.746 15.4063C75.746 14.2686 76.2707 13.6034 77.2053 13.6034C78.1349 13.6034 78.6647 14.2686 78.6647 15.4063C78.6647 16.5488 78.1349 17.2141 77.2053 17.2141Z" fill="black"/>
<path d="M82.9704 17.2478C82.3857 17.2478 81.9609 16.973 81.9609 16.5006C81.9609 16.0378 82.3006 15.792 83.0504 15.7438L84.3797 15.6618V16.1005C84.3797 16.7513 83.7799 17.2478 82.9704 17.2478ZM82.6954 18.1203C83.4102 18.1203 84.0048 17.8214 84.3296 17.296H84.4147V18.0336H85.4491V14.447C85.4491 13.3382 84.6795 12.6826 83.3151 12.6826C82.0808 12.6826 81.2012 13.2611 81.0912 14.1626H82.1307C82.2507 13.7914 82.6655 13.5793 83.2652 13.5793C83.9999 13.5793 84.3797 13.8926 84.3797 14.447V14.9001L82.9054 14.9821C81.611 15.0592 80.8813 15.604 80.8813 16.5488C80.8813 17.5081 81.6461 18.1203 82.6954 18.1203Z" fill="black"/>
<path d="M89.0956 18.1201C89.8452 18.1201 90.48 17.7779 90.8048 17.2042H90.8898V18.0334H91.9192V10.7349H90.8448V13.6176H90.7648C90.4699 13.0392 89.8402 12.6969 89.0956 12.6969C87.7213 12.6969 86.8367 13.7478 86.8367 15.4061C86.8367 17.0693 87.7114 18.1201 89.0956 18.1201ZM89.4005 13.6273C90.3001 13.6273 90.8647 14.3166 90.8647 15.4109C90.8647 16.5101 90.305 17.1898 89.4005 17.1898C88.491 17.1898 87.9462 16.5197 87.9462 15.4061C87.9462 14.3022 88.496 13.6273 89.4005 13.6273Z" fill="black"/>
<path d="M98.8869 18.1349C100.476 18.1349 101.451 17.108 101.451 15.4063C101.451 13.7142 100.471 12.6826 98.8869 12.6826C97.2976 12.6826 96.3181 13.7142 96.3181 15.4063C96.3181 17.108 97.2927 18.1349 98.8869 18.1349ZM98.8869 17.2141C97.9524 17.2141 97.4277 16.5536 97.4277 15.4063C97.4277 14.2686 97.9524 13.6034 98.8869 13.6034C99.8165 13.6034 100.346 14.2686 100.346 15.4063C100.346 16.5488 99.8165 17.2141 98.8869 17.2141Z" fill="black"/>
<path d="M102.873 18.0336H103.947V14.9628C103.947 14.1433 104.452 13.6323 105.247 13.6323C106.041 13.6323 106.421 14.0517 106.421 14.8953V18.0336H107.496V14.635C107.496 13.3864 106.826 12.6826 105.612 12.6826C104.792 12.6826 104.252 13.0345 103.987 13.6178H103.907V12.7839H102.873V18.0336Z" fill="black"/>
<path d="M112.444 11.4771V12.8075H111.58V13.6801H112.444V16.6448C112.444 17.6572 112.919 18.0622 114.114 18.0622C114.323 18.0622 114.523 18.038 114.698 18.009V17.1462C114.548 17.1606 114.454 17.1703 114.288 17.1703C113.754 17.1703 113.519 16.9293 113.519 16.3797V13.6801H114.698V12.8075H113.519V11.4771H112.444Z" fill="black"/>
<path d="M116.141 18.0334H117.215V14.9674C117.215 14.172 117.705 13.6369 118.585 13.6369C119.344 13.6369 119.749 14.0612 119.749 14.9V18.0334H120.823V14.6445C120.823 13.3959 120.109 12.6872 118.949 12.6872C118.13 12.6872 117.555 13.0392 117.29 13.6273H117.205V10.7349H116.141V18.0334Z" fill="black"/>
<path d="M124.7 13.5648C125.494 13.5648 126.014 14.0999 126.039 14.9242H123.29C123.35 14.1047 123.905 13.5648 124.7 13.5648ZM126.034 16.6163C125.834 17.0261 125.389 17.2526 124.74 17.2526C123.88 17.2526 123.325 16.6693 123.29 15.7486V15.6907H127.134V15.3292C127.134 13.6805 126.219 12.6826 124.705 12.6826C123.17 12.6826 122.196 13.748 122.196 15.4256C122.196 17.1032 123.15 18.1349 124.71 18.1349C125.954 18.1349 126.824 17.5563 127.068 16.6163H126.034Z" fill="black"/>
<path d="M30.7627 24.5386C30.7888 22.5861 31.8759 20.7386 33.6004 19.716C32.5125 18.2172 30.6903 17.267 28.7945 17.2098C26.7725 17.0051 24.8122 18.3769 23.7818 18.3769C22.7314 18.3769 21.145 17.2301 19.4367 17.264C17.2099 17.3334 15.134 18.5547 14.0507 20.4324C11.7219 24.3216 13.459 30.0375 15.6898 33.1812C16.8059 34.7206 18.1102 36.4402 19.817 36.3793C21.4873 36.3124 22.1112 35.3518 24.1271 35.3518C26.1246 35.3518 26.7098 36.3793 28.4511 36.3404C30.2434 36.3124 31.3725 34.7941 32.4495 33.2402C33.2514 32.1433 33.8686 30.931 34.2779 29.6482C32.1717 28.789 30.7651 26.7444 30.7627 24.5386Z" fill="black"/>
<path d="M27.4734 15.1423C28.4505 14.0107 28.9319 12.5563 28.8154 11.0879C27.3224 11.2391 25.9434 11.9274 24.953 13.0155C23.9846 14.0787 23.4805 15.5075 23.5759 16.9198C25.0693 16.9346 26.5374 16.265 27.4734 15.1423Z" fill="black"/>
<path d="M156.64 1.54004H7.80042C4.34264 1.54004 1.53955 4.24389 1.53955 7.57926V40.7995C1.53955 44.1348 4.34264 46.8387 7.80042 46.8387H156.64C160.098 46.8387 162.901 44.1348 162.901 40.7995V7.57926C162.901 4.24389 160.098 1.54004 156.64 1.54004Z" stroke="#A6A6A6" stroke-width="0.701818"/>
</g>
</g>
<defs>
<clipPath id="clip0_204_3825">
<rect width="162.995" height="47.9948" fill="white" transform="translate(0.9375 0.838867)"/>
</clipPath>
<clipPath id="clip1_204_3825">
<rect width="162.995" height="47.9948" fill="white" transform="translate(0.9375 0.838867)"/>
</clipPath>
</defs>
</svg>
