<svg width="119" height="41" viewBox="0 0 119 41" fill="none" xmlns="http://www.w3.org/2000/svg">
<g clip-path="url(#clip0_204_3585)">
<g clip-path="url(#clip1_204_3585)">
<path d="M-0.00512695 10.8633C-0.00512695 7.63348 -0.00512695 6.01857 0.522495 4.7447C1.22599 3.04621 2.57536 1.69677 4.27375 0.993229C5.54754 0.465576 7.16237 0.465576 10.392 0.465576H108.336C111.565 0.465576 113.18 0.465576 114.454 0.993229C116.152 1.69677 117.502 3.04621 118.205 4.7447C118.733 6.01857 118.733 7.63348 118.733 10.8633V29.6494C118.733 32.8793 118.733 34.4942 118.205 35.768C117.502 37.4665 116.152 38.816 114.454 39.5195C113.18 40.0472 111.565 40.0472 108.336 40.0472H10.392C7.16236 40.0472 5.54754 40.0472 4.27375 39.5195C2.57536 38.816 1.22599 37.4665 0.522495 35.768C-0.00512695 34.4942 -0.00512695 32.8793 -0.00512695 29.6494V10.8633Z" fill="white"/>
<path d="M80.6633 19.4659V21.733H79.2422V23.2197H80.6633V28.2713C80.6633 29.9962 81.4436 30.6862 83.4067 30.6862C83.7517 30.6862 84.0803 30.6451 84.3677 30.5959V29.1256C84.1213 29.1502 83.9653 29.1666 83.6942 29.1666C82.8153 29.1666 82.4293 28.7559 82.4293 27.8195V23.2197H84.3677V21.733H82.4293V19.4659H80.6633Z" fill="black"/>
<path d="M89.3684 30.8094C91.9805 30.8094 93.5822 29.0598 93.5822 26.1603C93.5822 23.2772 91.9723 21.5194 89.3684 21.5194C86.7564 21.5194 85.1465 23.2772 85.1465 26.1603C85.1465 29.0598 86.7482 30.8094 89.3684 30.8094ZM89.3684 29.2406C87.8324 29.2406 86.97 28.1152 86.97 26.1603C86.97 24.2218 87.8324 23.0883 89.3684 23.0883C90.8962 23.0883 91.7669 24.2218 91.7669 26.1603C91.7669 28.107 90.8962 29.2406 89.3684 29.2406Z" fill="black"/>
<path d="M94.9519 30.6369H96.7179V25.3554C96.7179 24.0986 97.6625 23.2526 99.0014 23.2526C99.3135 23.2526 99.8392 23.3101 99.9871 23.3594V21.618C99.7981 21.5687 99.4614 21.5441 99.1985 21.5441C98.0321 21.5441 97.0383 22.1848 96.7836 23.0637H96.6522V21.6919H94.9519V30.6369Z" fill="black"/>
<path d="M104.372 23.0226C105.678 23.0226 106.532 23.9343 106.573 25.3389H102.055C102.154 23.9426 103.066 23.0226 104.372 23.0226ZM106.565 28.222C106.236 28.9202 105.505 29.3063 104.437 29.3063C103.025 29.3063 102.113 28.3124 102.055 26.7435V26.6449H108.372V26.0289C108.372 23.2197 106.869 21.5194 104.38 21.5194C101.858 21.5194 100.257 23.3347 100.257 26.1932C100.257 29.0516 101.825 30.8094 104.388 30.8094C106.433 30.8094 107.863 29.8237 108.265 28.222H106.565Z" fill="black"/>
<path d="M69.0825 27.3338C69.2187 29.5303 71.0491 30.935 73.7734 30.935C76.6851 30.935 78.507 29.4622 78.507 27.1124C78.507 25.265 77.4683 24.2434 74.9483 23.6559L73.5947 23.3239C71.9941 22.9493 71.3471 22.447 71.3471 21.5701C71.3471 20.4634 72.3517 19.7397 73.8586 19.7397C75.2888 19.7397 76.2764 20.4463 76.4552 21.5786H78.3111C78.2005 19.5098 76.3786 18.054 73.8841 18.054C71.2024 18.054 69.4145 19.5098 69.4145 21.6978C69.4145 23.5027 70.4276 24.5754 72.6497 25.0947L74.2332 25.4778C75.8592 25.8609 76.5744 26.4228 76.5744 27.3593C76.5744 28.449 75.4506 29.2408 73.9182 29.2408C72.2751 29.2408 71.1342 28.5001 70.9725 27.3338H69.0825Z" fill="black"/>
<path d="M50.7901 21.5441C49.5745 21.5441 48.5231 22.1519 47.981 23.1704H47.8495V21.6919H46.1492V33.6104H47.9152V29.2816H48.0549C48.5231 30.2262 49.5334 30.7848 50.8066 30.7848C53.0654 30.7848 54.5028 29.0023 54.5028 26.1603C54.5028 23.3183 53.0654 21.5441 50.7901 21.5441ZM50.2891 29.1995C48.8106 29.1995 47.8824 28.0331 47.8824 26.1685C47.8824 24.2958 48.8106 23.1294 50.2973 23.1294C51.7922 23.1294 52.6875 24.2711 52.6875 26.1603C52.6875 28.0577 51.7922 29.1995 50.2891 29.1995Z" fill="black"/>
<path d="M60.6817 21.5441C59.466 21.5441 58.4146 22.1519 57.8725 23.1704H57.7411V21.6919H56.0408V33.6104H57.8068V29.2816H57.9464C58.4146 30.2262 59.4249 30.7848 60.6981 30.7848C62.9569 30.7848 64.3944 29.0023 64.3944 26.1603C64.3944 23.3183 62.9569 21.5441 60.6817 21.5441ZM60.1806 29.1995C58.7021 29.1995 57.7739 28.0331 57.7739 26.1685C57.7739 24.2958 58.7021 23.1294 60.1888 23.1294C61.6838 23.1294 62.5791 24.2711 62.5791 26.1603C62.5791 28.0577 61.6838 29.1995 60.1806 29.1995Z" fill="black"/>
<path d="M42.9813 30.6369H45.0075L40.572 18.3519H38.5202L34.0847 30.6369H36.0428L37.1751 27.3762H41.8575L42.9813 30.6369ZM39.4482 20.5825H39.5929L41.3723 25.7757H37.6604L39.4482 20.5825Z" fill="black"/>
<path d="M35.271 9.08533V15.0116H37.4108C39.1768 15.0116 40.1994 13.9233 40.1994 12.03C40.1994 10.1654 39.1685 9.08533 37.4108 9.08533H35.271ZM36.191 9.92315H37.3081C38.5361 9.92315 39.263 10.7034 39.263 12.0423C39.263 13.4017 38.5484 14.1738 37.3081 14.1738H36.191V9.92315Z" fill="black"/>
<path d="M43.3312 15.0979C44.6372 15.0979 45.4381 14.2231 45.4381 12.7733C45.4381 11.3318 44.6331 10.4529 43.3312 10.4529C42.0252 10.4529 41.2202 11.3318 41.2202 12.7733C41.2202 14.2231 42.021 15.0979 43.3312 15.0979ZM43.3312 14.3135C42.5632 14.3135 42.1319 13.7508 42.1319 12.7733C42.1319 11.8041 42.5632 11.2373 43.3312 11.2373C44.0951 11.2373 44.5304 11.8041 44.5304 12.7733C44.5304 13.7467 44.0951 14.3135 43.3312 14.3135Z" fill="black"/>
<path d="M52.2577 10.5391H51.3747L50.5779 13.952H50.5081L49.5882 10.5391H48.7421L47.8222 13.952H47.7565L46.9556 10.5391H46.0603L47.2924 15.0116H48.2L49.12 11.7179H49.1898L50.1139 15.0116H51.0297L52.2577 10.5391Z" fill="black"/>
<path d="M53.2742 15.0116H54.1572V12.3955C54.1572 11.6973 54.572 11.262 55.225 11.262C55.878 11.262 56.1901 11.6193 56.1901 12.338V15.0116H57.0731V12.1162C57.0731 11.0525 56.5228 10.4529 55.5248 10.4529C54.8513 10.4529 54.4077 10.7527 54.19 11.2497H54.1243V10.5391H53.2742V15.0116Z" fill="black"/>
<path d="M58.4636 15.0116H59.3466V8.7937H58.4636V15.0116Z" fill="black"/>
<path d="M62.6674 15.0979C63.9734 15.0979 64.7743 14.2231 64.7743 12.7733C64.7743 11.3318 63.9693 10.4529 62.6674 10.4529C61.3614 10.4529 60.5564 11.3318 60.5564 12.7733C60.5564 14.2231 61.3572 15.0979 62.6674 15.0979ZM62.6674 14.3135C61.8994 14.3135 61.4681 13.7508 61.4681 12.7733C61.4681 11.8041 61.8994 11.2373 62.6674 11.2373C63.4313 11.2373 63.8666 11.8041 63.8666 12.7733C63.8666 13.7467 63.4313 14.3135 62.6674 14.3135Z" fill="black"/>
<path d="M67.4049 14.3422C66.9244 14.3422 66.5753 14.1081 66.5753 13.7056C66.5753 13.3114 66.8545 13.1019 67.4706 13.0608L68.563 12.991V13.3647C68.563 13.9192 68.0702 14.3422 67.4049 14.3422ZM67.179 15.0856C67.7663 15.0856 68.255 14.8309 68.522 14.3833H68.5918V15.0116H69.4419V11.9561C69.4419 11.0115 68.8095 10.4529 67.6883 10.4529C66.6738 10.4529 65.951 10.9457 65.8607 11.7137H66.7149C66.8135 11.3975 67.1544 11.2168 67.6472 11.2168C68.2509 11.2168 68.563 11.4838 68.563 11.9561V12.3421L67.3515 12.4119C66.2878 12.4776 65.6882 12.9417 65.6882 13.7467C65.6882 14.564 66.3165 15.0856 67.179 15.0856Z" fill="black"/>
<path d="M72.438 15.0856C73.054 15.0856 73.5755 14.794 73.8425 14.3052H73.9123V15.0116H74.7583V8.7937H73.8753V11.2497H73.8096C73.5673 10.7568 73.0498 10.4652 72.438 10.4652C71.3086 10.4652 70.5815 11.3605 70.5815 12.7733C70.5815 14.1903 71.3004 15.0856 72.438 15.0856ZM72.6884 11.2579C73.4277 11.2579 73.8918 11.8452 73.8918 12.7775C73.8918 13.7138 73.4318 14.2929 72.6884 14.2929C71.9409 14.2929 71.4933 13.7221 71.4933 12.7733C71.4933 11.8328 71.9451 11.2579 72.6884 11.2579Z" fill="black"/>
<path d="M80.484 15.0979C81.79 15.0979 82.591 14.2231 82.591 12.7733C82.591 11.3318 81.7859 10.4529 80.484 10.4529C79.178 10.4529 78.373 11.3318 78.373 12.7733C78.373 14.2231 79.1739 15.0979 80.484 15.0979ZM80.484 14.3135C79.716 14.3135 79.2848 13.7508 79.2848 12.7733C79.2848 11.8041 79.716 11.2373 80.484 11.2373C81.2479 11.2373 81.6833 11.8041 81.6833 12.7733C81.6833 13.7467 81.2479 14.3135 80.484 14.3135Z" fill="black"/>
<path d="M83.7593 15.0116H84.6423V12.3955C84.6423 11.6973 85.0571 11.262 85.7101 11.262C86.3631 11.262 86.6753 11.6193 86.6753 12.338V15.0116H87.5583V12.1162C87.5583 11.0525 87.0079 10.4529 86.0099 10.4529C85.3364 10.4529 84.8928 10.7527 84.6752 11.2497H84.6095V10.5391H83.7593V15.0116Z" fill="black"/>
<path d="M91.6246 9.42615V10.5597H90.9141V11.303H91.6246V13.8288C91.6246 14.6913 92.0148 15.0363 92.9963 15.0363C93.1688 15.0363 93.3331 15.0158 93.4768 14.9911V14.256C93.3536 14.2683 93.2756 14.2765 93.1401 14.2765C92.7006 14.2765 92.5076 14.0711 92.5076 13.603V11.303H93.4768V10.5597H92.5076V9.42615H91.6246Z" fill="black"/>
<path d="M94.6619 15.0116H95.5449V12.3996C95.5449 11.722 95.9474 11.2661 96.6702 11.2661C97.2945 11.2661 97.6272 11.6275 97.6272 12.3421V15.0116H98.5102V12.1244C98.5102 11.0607 97.9229 10.457 96.97 10.457C96.2965 10.457 95.8242 10.7568 95.6065 11.2579H95.5367V8.7937H94.6619V15.0116Z" fill="black"/>
<path d="M101.695 11.2045C102.348 11.2045 102.775 11.6604 102.796 12.3626H100.537C100.586 11.6645 101.042 11.2045 101.695 11.2045ZM102.792 13.8042C102.628 14.1533 102.262 14.3463 101.728 14.3463C101.022 14.3463 100.566 13.8494 100.537 13.0649V13.0157H103.695V12.7076C103.695 11.303 102.944 10.4529 101.699 10.4529C100.438 10.4529 99.6377 11.3605 99.6377 12.7898C99.6377 14.219 100.422 15.0979 101.703 15.0979C102.726 15.0979 103.441 14.6051 103.642 13.8042H102.792Z" fill="black"/>
<path d="M24.5032 20.5543C24.5247 18.8909 25.418 17.3169 26.835 16.4457C25.941 15.1688 24.4437 14.3593 22.8858 14.3105C21.2242 14.1361 19.6134 15.3049 18.7668 15.3049C17.9036 15.3049 16.6 14.3279 15.1962 14.3567C13.3664 14.4159 11.6606 15.4562 10.7703 17.0561C8.85664 20.3695 10.2841 25.2391 12.1171 27.9174C13.0343 29.2288 14.1062 30.6938 15.5088 30.6419C16.8813 30.5849 17.3938 29.7666 19.0505 29.7666C20.6918 29.7666 21.1727 30.6419 22.6037 30.6088C24.0765 30.5849 25.0044 29.2915 25.8893 27.9676C26.5483 27.0331 27.0554 26.0003 27.3918 24.9074C25.6611 24.1754 24.5052 22.4336 24.5032 20.5543Z" fill="black"/>
<path d="M21.8004 12.5491C22.6035 11.585 22.9991 10.346 22.9033 9.09497C21.6764 9.22383 20.5432 9.81019 19.7293 10.7372C18.9334 11.643 18.5192 12.8602 18.5975 14.0634C19.8248 14.0761 21.0314 13.5056 21.8004 12.5491Z" fill="black"/>
<path d="M10.392 0.782232H108.336V0.148926H10.392V0.782232ZM118.416 10.8633V29.6494H119.049V10.8633H118.416ZM108.336 39.7305H10.392V40.3638H108.336V39.7305ZM0.311492 29.6494V10.8633H-0.321777V29.6494H0.311492ZM10.392 39.7305C8.77283 39.7305 7.57433 39.7303 6.62097 39.6653C5.67046 39.6004 4.98679 39.4721 4.3949 39.227L4.15257 39.8121C4.83448 40.0945 5.59511 40.2301 6.57786 40.2971C7.55777 40.364 8.78149 40.3638 10.392 40.3638V39.7305ZM-0.321777 29.6494C-0.321777 31.26 -0.321948 32.4838 -0.25509 33.4638C-0.188037 34.4466 -0.0525081 35.2073 0.229948 35.8892L0.815011 35.6469C0.569845 35.0549 0.441563 34.3712 0.37671 33.4207C0.311663 32.4673 0.311492 31.2687 0.311492 29.6494H-0.321777ZM4.3949 39.227C2.7741 38.5556 1.48637 37.2678 0.815011 35.6469L0.229948 35.8892C0.965581 37.6653 2.37659 39.0764 4.15257 39.8121L4.3949 39.227ZM118.416 29.6494C118.416 31.2687 118.416 32.4673 118.351 33.4207C118.286 34.3712 118.158 35.0549 117.913 35.6469L118.498 35.8892C118.78 35.2073 118.916 34.4466 118.983 33.4638C119.05 32.4838 119.049 31.26 119.049 29.6494H118.416ZM108.336 40.3638C109.946 40.3638 111.169 40.364 112.149 40.2971C113.132 40.2301 113.893 40.0945 114.575 39.8121L114.333 39.227C113.741 39.4721 113.057 39.6004 112.106 39.6653C111.153 39.7303 109.954 39.7305 108.336 39.7305V40.3638ZM117.913 35.6469C117.241 37.2678 115.953 38.5556 114.333 39.227L114.575 39.8121C116.351 39.0764 117.762 37.6653 118.498 35.8892L117.913 35.6469ZM108.336 0.782232C109.954 0.782232 111.153 0.782403 112.106 0.847454C113.057 0.912311 113.741 1.0406 114.333 1.28578L114.575 0.700683C113.893 0.418211 113.132 0.282674 112.149 0.215617C111.169 0.148755 109.946 0.148926 108.336 0.148926V0.782232ZM119.049 10.8633C119.049 9.25273 119.05 8.02893 118.983 7.04897C118.916 6.06615 118.78 5.30547 118.498 4.62353L117.913 4.86588C118.158 5.4578 118.286 6.14151 118.351 7.09208C118.416 8.04549 118.416 9.24406 118.416 10.8633H119.049ZM114.333 1.28578C115.953 1.95718 117.241 3.24498 117.913 4.86588L118.498 4.62353C117.762 2.84745 116.351 1.43636 114.575 0.700683L114.333 1.28578ZM10.392 0.148926C8.7815 0.148926 7.55778 0.148755 6.57786 0.215617C5.59511 0.282674 4.83448 0.418211 4.15257 0.700683L4.3949 1.28578C4.98679 1.0406 5.67046 0.912311 6.62097 0.847454C7.57433 0.782403 8.77283 0.782232 10.392 0.782232V0.148926ZM0.311492 10.8633C0.311492 9.24405 0.311663 8.04548 0.37671 7.09207C0.441563 6.14151 0.569845 5.4578 0.815011 4.86588L0.229948 4.62353C-0.052508 5.30547 -0.188037 6.06615 -0.25509 7.04896C-0.321948 8.02893 -0.321777 9.25272 -0.321777 10.8633H0.311492ZM4.15257 0.700683C2.37659 1.43636 0.965581 2.84745 0.229948 4.62353L0.815011 4.86588C1.48637 3.24498 2.7741 1.95718 4.3949 1.28578L4.15257 0.700683Z" fill="#DFE2E5"/>
</g>
</g>
<defs>
<clipPath id="clip0_204_3585">
<rect width="118.993" height="40" fill="white" transform="translate(-0.00512695 0.0471191)"/>
</clipPath>
<clipPath id="clip1_204_3585">
<rect width="118.993" height="40" fill="white" transform="translate(-0.00512695 0.0471191)"/>
</clipPath>
</defs>
</svg>
