<svg width="25" height="25" viewBox="0 0 25 25" fill="none" xmlns="http://www.w3.org/2000/svg">
<g clip-path="url(#clip0_204_3667)">
<path d="M6.49316 9.85761V17.4521C6.49316 18.0043 6.94088 18.4518 7.49316 18.4518H9.49316C10.0455 18.4518 10.4932 18.0043 10.4932 17.4521V14.096C10.4932 13.5439 10.9409 13.0963 11.4932 13.0963H13.4932C14.0455 13.0963 14.4932 13.5439 14.4932 14.096V17.4521C14.4932 18.0043 14.9409 18.4518 15.4932 18.4518H17.4932C18.0455 18.4518 18.4932 18.0043 18.4932 17.4521V9.85761C18.4932 9.29881 18.2593 8.76552 17.8482 8.38695L13.8482 4.7038C13.0825 3.9988 11.9039 3.9988 11.1382 4.7038L7.13821 8.38695C6.72707 8.76552 6.49316 9.29881 6.49316 9.85761Z" stroke="white" stroke-width="2"/>
</g>
<defs>
<clipPath id="clip0_204_3667">
<rect width="25" height="23.9931" fill="white" transform="translate(-0.00683594 0.457031)"/>
</clipPath>
</defs>
</svg>
