<svg width="164" height="49" viewBox="0 0 164 49" fill="none" xmlns="http://www.w3.org/2000/svg">
<g clip-path="url(#clip0_204_3800)">
<g clip-path="url(#clip1_204_3800)">
<path d="M156.633 0.758301H7.80042C4.34264 0.758301 1.53955 3.46215 1.53955 6.79752V40.0177C1.53955 43.3531 4.34264 46.0569 7.80042 46.0569H156.633C160.09 46.0569 162.893 43.3531 162.893 40.0177V6.79752C162.893 3.46215 160.09 0.758301 156.633 0.758301Z" fill="white"/>
<path d="M82.9821 25.4417C80.15 25.4417 77.8418 27.5197 77.8418 30.3816C77.8418 33.2261 80.15 35.3215 82.9821 35.3215C85.8155 35.3215 88.1238 33.2261 88.1238 30.3816C88.1226 27.5197 85.8143 25.4417 82.9821 25.4417ZM82.9821 33.377C81.4301 33.377 80.0923 32.1424 80.0923 30.3828C80.0923 28.6045 81.4313 27.3884 82.9821 27.3884C84.5343 27.3884 85.8721 28.6045 85.8721 30.3828C85.8721 32.1412 84.5343 33.377 82.9821 33.377ZM71.7669 25.4417C68.9347 25.4417 66.6264 27.5197 66.6264 30.3816C66.6264 33.2261 68.9347 35.3215 71.7669 35.3215C74.6002 35.3215 76.9084 33.2261 76.9084 30.3816C76.9084 27.5197 74.6002 25.4417 71.7669 25.4417ZM71.7669 33.377C70.2146 33.377 68.8769 32.1424 68.8769 30.3828C68.8769 28.6045 70.2158 27.3884 71.7669 27.3884C73.3189 27.3884 74.6567 28.6045 74.6567 30.3828C74.6579 32.1412 73.3189 33.377 71.7669 33.377ZM58.4274 26.9586V29.054H63.6269C63.4716 30.2329 63.0645 31.0936 62.4432 31.6917C61.6871 32.4211 60.5034 33.2261 58.4274 33.2261C55.2268 33.2261 52.7246 30.737 52.7246 27.6497C52.7246 24.5624 55.2268 22.0732 58.4274 22.0732C60.1541 22.0732 61.415 22.7285 62.3458 23.5705L63.8786 22.092C62.5781 20.8944 60.8526 19.978 58.4274 19.978C54.0432 19.978 50.3574 23.4207 50.3574 27.6497C50.3574 31.8787 54.0432 35.3215 58.4274 35.3215C60.7935 35.3215 62.5793 34.5723 63.9749 33.1691C65.4102 31.7846 65.857 29.838 65.857 28.2664C65.857 27.781 65.8184 27.3315 65.7402 26.9575L58.4274 26.9586ZM112.984 28.5858C112.558 27.4824 111.258 25.4417 108.6 25.4417C105.962 25.4417 103.769 27.4442 103.769 30.3816C103.769 33.1506 105.943 35.3215 108.852 35.3215C111.199 35.3215 112.557 33.9369 113.12 33.1321L111.374 32.0088C110.793 32.8324 109.997 33.3747 108.852 33.3747C107.708 33.3747 106.893 32.8694 106.369 31.8776L113.217 29.1457L112.984 28.5858ZM106 30.2329C105.943 28.3233 107.533 27.3512 108.678 27.3512C109.571 27.3512 110.327 27.7821 110.58 28.3988L106 30.2329ZM100.434 35.0229H102.683V20.503H100.434V35.0229ZM96.7466 26.5462H96.6696C96.165 25.9655 95.1945 25.4417 93.9735 25.4417C91.4122 25.4417 89.0654 27.6125 89.0654 30.4013C89.0654 33.1703 91.4122 35.3226 93.9735 35.3226C95.1957 35.3226 96.165 34.7988 96.6696 34.2005H96.7466V34.9114C96.7466 36.8012 95.699 37.8117 94.0121 37.8117C92.6345 37.8117 91.7807 36.8581 91.4316 36.0531L89.4724 36.8396C90.0348 38.1485 91.5278 39.7583 94.0121 39.7583C96.6503 39.7583 98.8815 38.2612 98.8815 34.6118V25.7425H96.7478L96.7466 26.5462ZM94.1673 33.377C92.6153 33.377 91.316 32.1227 91.316 30.4013C91.316 28.6603 92.6153 27.3884 94.1673 27.3884C95.699 27.3884 96.9019 28.6603 96.9019 30.4013C96.9019 32.1227 95.699 33.377 94.1673 33.377ZM123.525 20.503H118.142V35.0229H120.387V29.522H123.524C126.014 29.522 128.464 27.7833 128.464 25.013C128.464 22.2429 126.015 20.503 123.525 20.503ZM123.583 27.501H120.387V22.5241H123.583C125.263 22.5241 126.217 23.8656 126.217 25.013C126.217 26.1374 125.263 27.501 123.583 27.501ZM137.469 25.4162C135.842 25.4162 134.158 26.1073 133.461 27.6393L135.455 28.4418C135.881 27.6393 136.676 27.3767 137.508 27.3767C138.67 27.3767 139.851 28.0493 139.87 29.2445V29.3943C139.463 29.1702 138.591 28.8344 137.527 28.8344C135.378 28.8344 133.188 29.9739 133.188 32.1028C133.188 34.0461 134.951 35.297 136.926 35.297C138.436 35.297 139.269 34.6431 139.792 33.8765H139.869V34.9974H142.039V29.4304C142.04 26.854 140.044 25.4162 137.469 25.4162ZM137.197 33.3735C136.463 33.3735 135.435 33.0182 135.435 32.1401C135.435 31.0193 136.714 30.5895 137.818 30.5895C138.805 30.5895 139.271 30.7951 139.87 31.0749C139.696 32.4211 138.495 33.3735 137.197 33.3735ZM149.94 25.7333L147.365 32.0285H147.288L144.615 25.7333H142.194L146.203 34.5315L143.917 39.4262H146.261L152.439 25.7333H149.94ZM129.704 35.0229H131.95V20.503H129.704V35.0229Z" fill="black"/>
<path d="M58.0354 12.0755C58.0354 13.0489 57.7366 13.8236 57.1382 14.402C56.4591 15.0896 55.5728 15.4335 54.4843 15.4335C53.4415 15.4335 52.5541 15.085 51.8256 14.3881C51.0959 13.69 50.731 12.8259 50.731 11.7945C50.731 10.7619 51.0959 9.89772 51.8256 9.20082C52.5541 8.50276 53.4415 8.1543 54.4843 8.1543C55.0021 8.1543 55.4969 8.25186 55.9665 8.44584C56.4373 8.64096 56.8143 8.89999 57.096 9.22404L56.4615 9.83731C55.9835 9.2856 55.3248 9.01033 54.4831 9.01033C53.722 9.01033 53.0647 9.26817 52.5095 9.78389C51.9544 10.2996 51.6775 10.9698 51.6775 11.7933C51.6775 12.6168 51.9544 13.287 52.5095 13.8027C53.0647 14.3184 53.722 14.5762 54.4831 14.5762C55.2898 14.5762 55.9629 14.3172 56.5011 13.798C56.8505 13.4601 57.0528 12.9896 57.107 12.3868H54.4831V11.5494H57.9835C58.0196 11.7317 58.0354 11.9071 58.0354 12.0755Z" fill="black"/>
<path d="M63.5865 9.16511H60.2968V11.3743H63.2638V12.2117H60.2968V14.4209H63.5865V15.2781H59.3684V8.30908H63.5865V9.16511Z" fill="black"/>
<path d="M67.5009 15.2781H66.5725V9.16511H64.5544V8.30908H69.5191V9.16511H67.5009V15.2781Z" fill="black"/>
<path d="M73.1111 15.2781V8.30908H74.0395V15.2781H73.1111Z" fill="black"/>
<path d="M78.1566 15.2781H77.2283V9.16511H75.2102V8.30908H80.1749V9.16511H78.1566V15.2781Z" fill="black"/>
<path d="M89.5726 14.3775C88.8621 15.0814 87.9796 15.4333 86.9235 15.4333C85.8675 15.4333 84.9849 15.0814 84.2756 14.3775C83.5651 13.6736 83.2112 12.8118 83.2112 11.7932C83.2112 10.7745 83.5651 9.9127 84.2756 9.20882C84.9849 8.50495 85.8675 8.15186 86.9235 8.15186C87.9735 8.15186 88.8549 8.50611 89.5678 9.21347C90.2807 9.92083 90.6371 10.7803 90.6371 11.7932C90.6371 12.8118 90.2819 13.6736 89.5726 14.3775ZM84.9607 13.7933C85.4953 14.316 86.1492 14.5761 86.9235 14.5761C87.6978 14.5761 88.3527 14.3148 88.8863 13.7933C89.4209 13.2706 89.6895 12.6039 89.6895 11.7932C89.6895 10.9824 89.4209 10.3157 88.8863 9.79306C88.3527 9.27038 87.6978 9.0102 86.9235 9.0102C86.1492 9.0102 85.4953 9.27154 84.9607 9.79306C84.4273 10.3157 84.1588 10.9824 84.1588 11.7932C84.1588 12.6039 84.4273 13.2706 84.9607 13.7933Z" fill="black"/>
<path d="M91.9402 15.2781V8.30908H93.0697L96.5809 13.7298H96.6205L96.5809 12.3871V8.30908H97.5093V15.2781H96.5399L92.8662 9.5937H92.8264L92.8662 10.9364V15.2781H91.9402Z" fill="black"/>
<path d="M58.0354 12.0755C58.0354 13.0489 57.7366 13.8236 57.1382 14.402C56.4591 15.0896 55.5728 15.4335 54.4843 15.4335C53.4415 15.4335 52.5541 15.085 51.8256 14.3881C51.0959 13.69 50.731 12.8259 50.731 11.7945C50.731 10.7619 51.0959 9.89772 51.8256 9.20082C52.5541 8.50276 53.4415 8.1543 54.4843 8.1543C55.0021 8.1543 55.4969 8.25186 55.9665 8.44584C56.4373 8.64096 56.8143 8.89999 57.096 9.22404L56.4615 9.83731C55.9835 9.2856 55.3248 9.01033 54.4831 9.01033C53.722 9.01033 53.0647 9.26817 52.5095 9.78389C51.9544 10.2996 51.6775 10.9698 51.6775 11.7933C51.6775 12.6168 51.9544 13.287 52.5095 13.8027C53.0647 14.3184 53.722 14.5762 54.4831 14.5762C55.2898 14.5762 55.9629 14.3172 56.5011 13.798C56.8505 13.4601 57.0528 12.9896 57.107 12.3868H54.4831V11.5494H57.9835C58.0196 11.7317 58.0354 11.9071 58.0354 12.0755Z" stroke="black" stroke-width="0.140364" stroke-miterlimit="10"/>
<path d="M63.5865 9.16511H60.2968V11.3743H63.2638V12.2117H60.2968V14.4209H63.5865V15.2781H59.3684V8.30908H63.5865V9.16511Z" stroke="black" stroke-width="0.140364" stroke-miterlimit="10"/>
<path d="M67.5009 15.2781H66.5725V9.16511H64.5544V8.30908H69.5191V9.16511H67.5009V15.2781Z" stroke="black" stroke-width="0.140364" stroke-miterlimit="10"/>
<path d="M73.1111 15.2781V8.30908H74.0395V15.2781H73.1111Z" stroke="black" stroke-width="0.140364" stroke-miterlimit="10"/>
<path d="M78.1566 15.2781H77.2283V9.16511H75.2102V8.30908H80.1749V9.16511H78.1566V15.2781Z" stroke="black" stroke-width="0.140364" stroke-miterlimit="10"/>
<path d="M89.5726 14.3775C88.8621 15.0814 87.9796 15.4333 86.9235 15.4333C85.8675 15.4333 84.9849 15.0814 84.2756 14.3775C83.5651 13.6736 83.2112 12.8118 83.2112 11.7932C83.2112 10.7745 83.5651 9.9127 84.2756 9.20882C84.9849 8.50495 85.8675 8.15186 86.9235 8.15186C87.9735 8.15186 88.8549 8.50611 89.5678 9.21347C90.2807 9.92083 90.6371 10.7803 90.6371 11.7932C90.6371 12.8118 90.2819 13.6736 89.5726 14.3775ZM84.9607 13.7933C85.4953 14.316 86.1492 14.5761 86.9235 14.5761C87.6978 14.5761 88.3527 14.3148 88.8863 13.7933C89.4209 13.2706 89.6895 12.6039 89.6895 11.7932C89.6895 10.9824 89.4209 10.3157 88.8863 9.79306C88.3527 9.27038 87.6978 9.0102 86.9235 9.0102C86.1492 9.0102 85.4953 9.27154 84.9607 9.79306C84.4273 10.3157 84.1588 10.9824 84.1588 11.7932C84.1588 12.6039 84.4273 13.2706 84.9607 13.7933Z" stroke="black" stroke-width="0.140364" stroke-miterlimit="10"/>
<path d="M91.9402 15.2781V8.30908H93.0697L96.5809 13.7298H96.6205L96.5809 12.3871V8.30908H97.5093V15.2781H96.5399L92.8662 9.5937H92.8264L92.8662 10.9364V15.2781H91.9402Z" stroke="black" stroke-width="0.140364" stroke-miterlimit="10"/>
<g filter="url(#filter0_dd_204_3800)">
<path d="M13.5036 8.93342C13.1532 9.29116 12.946 9.84636 12.946 10.5653V36.2532C12.946 36.9733 13.1532 37.5274 13.5036 37.8851L13.5927 37.9686L28.5106 23.5788V23.4093V23.2397L13.5927 8.84863L13.5036 8.93342Z" fill="url(#paint0_linear_204_3800)"/>
<path d="M33.4826 28.3768L28.5107 23.5787V23.409V23.2394L33.4838 18.4424L33.5958 18.5039L39.4877 21.733C41.1698 22.6552 41.1698 24.164 39.4877 25.0873L33.5958 28.3164L33.4826 28.3768Z" fill="url(#paint1_linear_204_3800)"/>
<g filter="url(#filter1_d_204_3800)">
<path d="M33.5958 28.3154L28.5095 23.4092L13.5037 37.8851C14.0576 38.4519 14.9739 38.5216 16.0058 37.9571L33.5958 28.3154Z" fill="url(#paint2_linear_204_3800)"/>
</g>
<path d="M33.5958 18.503L16.0058 8.86251C14.9739 8.29687 14.0576 8.36772 13.5037 8.93454L28.5107 23.4104L33.5958 18.503Z" fill="url(#paint3_linear_204_3800)"/>
</g>
<path d="M156.633 0.758301H7.80042C4.34264 0.758301 1.53955 3.46215 1.53955 6.79752V40.0177C1.53955 43.3531 4.34264 46.0569 7.80042 46.0569H156.633C160.09 46.0569 162.893 43.3531 162.893 40.0177V6.79752C162.893 3.46215 160.09 0.758301 156.633 0.758301Z" stroke="#A6A6A6" stroke-width="0.701818"/>
</g>
</g>
<defs>
<filter id="filter0_dd_204_3800" x="12.946" y="8.36689" width="27.8032" height="30.0855" filterUnits="userSpaceOnUse" color-interpolation-filters="sRGB">
<feFlood flood-opacity="0" result="BackgroundImageFix"/>
<feColorMatrix in="SourceAlpha" type="matrix" values="0 0 0 0 0 0 0 0 0 0 0 0 0 0 0 0 0 0 127 0" result="hardAlpha"/>
<feOffset dy="-0.105273"/>
<feComposite in2="hardAlpha" operator="out"/>
<feColorMatrix type="matrix" values="0 0 0 0 0 0 0 0 0 0 0 0 0 0 0 0 0 0 0.12 0"/>
<feBlend mode="normal" in2="BackgroundImageFix" result="effect1_dropShadow_204_3800"/>
<feColorMatrix in="SourceAlpha" type="matrix" values="0 0 0 0 0 0 0 0 0 0 0 0 0 0 0 0 0 0 127 0" result="hardAlpha"/>
<feOffset dy="0.105273"/>
<feComposite in2="hardAlpha" operator="out"/>
<feColorMatrix type="matrix" values="0 0 0 0 1 0 0 0 0 1 0 0 0 0 1 0 0 0 0.25 0"/>
<feBlend mode="normal" in2="effect1_dropShadow_204_3800" result="effect2_dropShadow_204_3800"/>
<feBlend mode="normal" in="SourceGraphic" in2="effect2_dropShadow_204_3800" result="shape"/>
</filter>
<filter id="filter1_d_204_3800" x="13.5037" y="23.3039" width="20.092" height="15.0433" filterUnits="userSpaceOnUse" color-interpolation-filters="sRGB">
<feFlood flood-opacity="0" result="BackgroundImageFix"/>
<feColorMatrix in="SourceAlpha" type="matrix" values="0 0 0 0 0 0 0 0 0 0 0 0 0 0 0 0 0 0 127 0" result="hardAlpha"/>
<feOffset dy="-0.105273"/>
<feComposite in2="hardAlpha" operator="out"/>
<feColorMatrix type="matrix" values="0 0 0 0 0 0 0 0 0 0 0 0 0 0 0 0 0 0 0.08 0"/>
<feBlend mode="normal" in2="BackgroundImageFix" result="effect1_dropShadow_204_3800"/>
<feBlend mode="normal" in="SourceGraphic" in2="effect1_dropShadow_204_3800" result="shape"/>
</filter>
<linearGradient id="paint0_linear_204_3800" x1="27.1883" y1="10.2935" x2="7.70861" y2="30.4881" gradientUnits="userSpaceOnUse">
<stop stop-color="#00A0FF"/>
<stop offset="0.0066" stop-color="#00A1FF"/>
<stop offset="0.2601" stop-color="#00BEFF"/>
<stop offset="0.5122" stop-color="#00D2FF"/>
<stop offset="0.7604" stop-color="#00DFFF"/>
<stop offset="1" stop-color="#00E3FF"/>
</linearGradient>
<linearGradient id="paint1_linear_204_3800" x1="41.6773" y1="23.409" x2="12.5422" y2="23.409" gradientUnits="userSpaceOnUse">
<stop stop-color="#FFE000"/>
<stop offset="0.4087" stop-color="#FFBD00"/>
<stop offset="0.7754" stop-color="#FFA500"/>
<stop offset="1" stop-color="#FF9C00"/>
</linearGradient>
<linearGradient id="paint2_linear_204_3800" x1="30.8336" y1="26.0736" x2="4.41675" y2="53.46" gradientUnits="userSpaceOnUse">
<stop stop-color="#FF3A44"/>
<stop offset="1" stop-color="#C31162"/>
</linearGradient>
<linearGradient id="paint3_linear_204_3800" x1="9.72436" y1="0.383308" x2="21.5202" y2="12.6121" gradientUnits="userSpaceOnUse">
<stop stop-color="#32A071"/>
<stop offset="0.0685" stop-color="#2DA771"/>
<stop offset="0.4762" stop-color="#15CF74"/>
<stop offset="0.8009" stop-color="#06E775"/>
<stop offset="1" stop-color="#00F076"/>
</linearGradient>
<clipPath id="clip0_204_3800">
<rect width="162.995" height="47.9948" fill="white" transform="translate(0.9375 0.177734)"/>
</clipPath>
<clipPath id="clip1_204_3800">
<rect width="162.995" height="47.9948" fill="white" transform="translate(0.9375 0.177734)"/>
</clipPath>
</defs>
</svg>
