<svg width="25" height="25" viewBox="0 0 25 25" fill="none" xmlns="http://www.w3.org/2000/svg">
<g clip-path="url(#clip0_204_2629)">
<path d="M12.0736 7.13368C12.2121 6.65092 12.8963 6.65091 13.0348 7.13368L13.9154 10.2022C14.1053 10.8639 14.7213 11.3114 15.4092 11.2876L18.5997 11.1769C19.1017 11.1594 19.3131 11.8101 18.8967 12.091L16.2505 13.8768C15.6799 14.2619 15.4446 14.9859 15.6799 15.6329L16.7711 18.633C16.9428 19.105 16.3894 19.5071 15.9935 19.1979L13.4774 17.2331C12.9349 16.8094 12.1735 16.8094 11.631 17.2331L9.11487 19.198C8.71902 19.5071 8.16557 19.105 8.33724 18.633L9.42844 15.6329C9.66374 14.9859 9.42848 14.2618 8.85785 13.8768L6.21164 12.091C5.79531 11.8101 6.00671 11.1594 6.50866 11.1769L9.69914 11.2876C10.3871 11.3114 11.0031 10.8639 11.193 10.2022L12.0736 7.13368Z" fill="#797882" stroke="#797882"/>
<path d="M19.5549 2.64612L20.3652 4.83585L22.5549 5.64612L20.3652 6.45639L19.5549 8.64612L18.7446 6.45639L16.5549 5.64612L18.7446 4.83585L19.5549 2.64612Z" fill="#797882"/>
<path d="M3.55371 15.6471L4.09389 17.1069L5.55371 17.6471L4.09389 18.1873L3.55371 19.6471L3.01353 18.1873L1.55371 17.6471L3.01353 17.1069L3.55371 15.6471Z" fill="#797882"/>
</g>
<defs>
<clipPath id="clip0_204_2629">
<rect width="24.0017" height="24.0017" fill="white" transform="translate(0.553711 0.645996)"/>
</clipPath>
</defs>
</svg>
