<svg width="73" height="73" viewBox="0 0 73 73" fill="none" xmlns="http://www.w3.org/2000/svg">
<g clip-path="url(#clip0_204_2274)">
<g clip-path="url(#clip1_204_2274)">
<path d="M22.6661 1.46655H20.2227V3.91007H22.6661V1.46655Z" fill="white"/>
<path d="M27.5529 1.46655H25.1094V3.91007H27.5529V1.46655Z" fill="white"/>
<path d="M29.9967 1.46655H27.5532V3.91007H29.9967V1.46655Z" fill="white"/>
<path d="M37.3274 1.46655H34.8838V3.91007H37.3274V1.46655Z" fill="white"/>
<path d="M39.7697 1.46655H37.3262V3.91007H39.7697V1.46655Z" fill="white"/>
<path d="M42.2136 1.46655H39.77V3.91007H42.2136V1.46655Z" fill="white"/>
<path d="M47.1017 1.46655H44.6582V3.91007H47.1017V1.46655Z" fill="white"/>
<path d="M51.988 1.46655H49.5444V3.91007H51.988V1.46655Z" fill="white"/>
<path d="M22.6661 3.91016H20.2227V6.35368H22.6661V3.91016Z" fill="white"/>
<path d="M25.1091 3.91016H22.6655V6.35368H25.1091V3.91016Z" fill="white"/>
<path d="M27.5529 3.91016H25.1094V6.35368H27.5529V3.91016Z" fill="white"/>
<path d="M29.9967 3.91016H27.5532V6.35368H29.9967V3.91016Z" fill="white"/>
<path d="M32.4391 3.91016H29.9956V6.35368H32.4391V3.91016Z" fill="white"/>
<path d="M42.2136 3.91016H39.77V6.35368H42.2136V3.91016Z" fill="white"/>
<path d="M44.6578 3.91016H42.2144V6.35368H44.6578V3.91016Z" fill="white"/>
<path d="M49.5441 3.91016H47.1006V6.35368H49.5441V3.91016Z" fill="white"/>
<path d="M51.988 3.91016H49.5444V6.35368H51.988V3.91016Z" fill="white"/>
<path d="M22.6661 6.35376H20.2227V8.79726H22.6661V6.35376Z" fill="white"/>
<path d="M27.5529 6.35376H25.1094V8.79726H27.5529V6.35376Z" fill="white"/>
<path d="M42.2136 6.35376H39.77V8.79726H42.2136V6.35376Z" fill="white"/>
<path d="M47.1017 6.35376H44.6582V8.79726H47.1017V6.35376Z" fill="white"/>
<path d="M49.5441 6.35376H47.1006V8.79726H49.5441V6.35376Z" fill="white"/>
<path d="M51.988 6.35376H49.5444V8.79726H51.988V6.35376Z" fill="white"/>
<path d="M25.1091 8.79712H22.6655V11.2407H25.1091V8.79712Z" fill="white"/>
<path d="M44.6578 8.79712H42.2144V11.2407H44.6578V8.79712Z" fill="white"/>
<path d="M22.6661 11.2407H20.2227V13.6843H22.6661V11.2407Z" fill="white"/>
<path d="M25.1091 11.2407H22.6655V13.6843H25.1091V11.2407Z" fill="white"/>
<path d="M27.5529 11.2407H25.1094V13.6843H27.5529V11.2407Z" fill="white"/>
<path d="M32.4391 11.2407H29.9956V13.6843H32.4391V11.2407Z" fill="white"/>
<path d="M37.3274 11.2407H34.8838V13.6843H37.3274V11.2407Z" fill="white"/>
<path d="M42.2136 11.2407H39.77V13.6843H42.2136V11.2407Z" fill="white"/>
<path d="M44.6578 11.2407H42.2144V13.6843H44.6578V11.2407Z" fill="white"/>
<path d="M47.1017 11.2407H44.6582V13.6843H47.1017V11.2407Z" fill="white"/>
<path d="M49.5441 11.2407H47.1006V13.6843H49.5441V11.2407Z" fill="white"/>
<path d="M25.1091 13.6843H22.6655V16.1278H25.1091V13.6843Z" fill="white"/>
<path d="M29.9967 13.6843H27.5532V16.1278H29.9967V13.6843Z" fill="white"/>
<path d="M32.4391 13.6843H29.9956V16.1278H32.4391V13.6843Z" fill="white"/>
<path d="M42.2136 13.6843H39.77V16.1278H42.2136V13.6843Z" fill="white"/>
<path d="M47.1017 13.6843H44.6582V16.1278H47.1017V13.6843Z" fill="white"/>
<path d="M51.988 13.6843H49.5444V16.1278H51.988V13.6843Z" fill="white"/>
<path d="M22.6661 16.1277H20.2227V18.5712H22.6661V16.1277Z" fill="white"/>
<path d="M27.5529 16.1277H25.1094V18.5712H27.5529V16.1277Z" fill="white"/>
<path d="M32.4391 16.1277H29.9956V18.5712H32.4391V16.1277Z" fill="white"/>
<path d="M37.3274 16.1277H34.8838V18.5712H37.3274V16.1277Z" fill="white"/>
<path d="M42.2136 16.1277H39.77V18.5712H42.2136V16.1277Z" fill="white"/>
<path d="M47.1017 16.1277H44.6582V18.5712H47.1017V16.1277Z" fill="white"/>
<path d="M51.988 16.1277H49.5444V18.5712H51.988V16.1277Z" fill="white"/>
<path d="M25.1091 18.5713H22.6655V21.0148H25.1091V18.5713Z" fill="white"/>
<path d="M27.5529 18.5713H25.1094V21.0148H27.5529V18.5713Z" fill="white"/>
<path d="M29.9967 18.5713H27.5532V21.0148H29.9967V18.5713Z" fill="white"/>
<path d="M32.4391 18.5713H29.9956V21.0148H32.4391V18.5713Z" fill="white"/>
<path d="M34.8834 18.5713H32.4399V21.0148H34.8834V18.5713Z" fill="white"/>
<path d="M42.2136 18.5713H39.77V21.0148H42.2136V18.5713Z" fill="white"/>
<path d="M51.988 18.5713H49.5444V21.0148H51.988V18.5713Z" fill="white"/>
<path d="M3.11784 21.0149H0.674316V23.4584H3.11784V21.0149Z" fill="white"/>
<path d="M10.4479 21.0149H8.00439V23.4584H10.4479V21.0149Z" fill="white"/>
<path d="M12.8922 21.0149H10.4487V23.4584H12.8922V21.0149Z" fill="white"/>
<path d="M15.3346 21.0149H12.8911V23.4584H15.3346V21.0149Z" fill="white"/>
<path d="M17.7785 21.0149H15.335V23.4584H17.7785V21.0149Z" fill="white"/>
<path d="M20.2224 21.0149H17.7788V23.4584H20.2224V21.0149Z" fill="white"/>
<path d="M22.6661 21.0149H20.2227V23.4584H22.6661V21.0149Z" fill="white"/>
<path d="M27.5529 21.0149H25.1094V23.4584H27.5529V21.0149Z" fill="white"/>
<path d="M29.9967 21.0149H27.5532V23.4584H29.9967V21.0149Z" fill="white"/>
<path d="M34.8834 21.0149H32.4399V23.4584H34.8834V21.0149Z" fill="white"/>
<path d="M39.7697 21.0149H37.3262V23.4584H39.7697V21.0149Z" fill="white"/>
<path d="M42.2136 21.0149H39.77V23.4584H42.2136V21.0149Z" fill="white"/>
<path d="M44.6578 21.0149H42.2144V23.4584H44.6578V21.0149Z" fill="white"/>
<path d="M49.5441 21.0149H47.1006V23.4584H49.5441V21.0149Z" fill="white"/>
<path d="M51.988 21.0149H49.5444V23.4584H51.988V21.0149Z" fill="white"/>
<path d="M54.4318 21.0149H51.9883V23.4584H54.4318V21.0149Z" fill="white"/>
<path d="M61.7623 21.0149H59.3188V23.4584H61.7623V21.0149Z" fill="white"/>
<path d="M66.6491 21.0149H64.2056V23.4584H66.6491V21.0149Z" fill="white"/>
<path d="M69.093 21.0149H66.6494V23.4584H69.093V21.0149Z" fill="white"/>
<path d="M71.5368 21.0149H69.0933V23.4584H71.5368V21.0149Z" fill="white"/>
<path d="M10.4479 23.4583H8.00439V25.9017H10.4479V23.4583Z" fill="white"/>
<path d="M22.6661 23.4583H20.2227V25.9017H22.6661V23.4583Z" fill="white"/>
<path d="M29.9967 23.4583H27.5532V25.9017H29.9967V23.4583Z" fill="white"/>
<path d="M34.8834 23.4583H32.4399V25.9017H34.8834V23.4583Z" fill="white"/>
<path d="M39.7697 23.4583H37.3262V25.9017H39.7697V23.4583Z" fill="white"/>
<path d="M44.6578 23.4583H42.2144V25.9017H44.6578V23.4583Z" fill="white"/>
<path d="M47.1017 23.4583H44.6582V25.9017H47.1017V23.4583Z" fill="white"/>
<path d="M49.5441 23.4583H47.1006V25.9017H49.5441V23.4583Z" fill="white"/>
<path d="M59.3185 23.4583H56.875V25.9017H59.3185V23.4583Z" fill="white"/>
<path d="M61.7623 23.4583H59.3188V25.9017H61.7623V23.4583Z" fill="white"/>
<path d="M66.6491 23.4583H64.2056V25.9017H66.6491V23.4583Z" fill="white"/>
<path d="M69.093 23.4583H66.6494V25.9017H69.093V23.4583Z" fill="white"/>
<path d="M3.11784 25.9019H0.674316V28.3453H3.11784V25.9019Z" fill="white"/>
<path d="M5.56168 25.9019H3.11816V28.3453H5.56168V25.9019Z" fill="white"/>
<path d="M8.00409 25.9019H5.56055V28.3453H8.00409V25.9019Z" fill="white"/>
<path d="M10.4479 25.9019H8.00439V28.3453H10.4479V25.9019Z" fill="white"/>
<path d="M15.3346 25.9019H12.8911V28.3453H15.3346V25.9019Z" fill="white"/>
<path d="M17.7785 25.9019H15.335V28.3453H17.7785V25.9019Z" fill="white"/>
<path d="M20.2224 25.9019H17.7788V28.3453H20.2224V25.9019Z" fill="white"/>
<path d="M25.1091 25.9019H22.6655V28.3453H25.1091V25.9019Z" fill="white"/>
<path d="M27.5529 25.9019H25.1094V28.3453H27.5529V25.9019Z" fill="white"/>
<path d="M29.9967 25.9019H27.5532V28.3453H29.9967V25.9019Z" fill="white"/>
<path d="M34.8834 25.9019H32.4399V28.3453H34.8834V25.9019Z" fill="white"/>
<path d="M39.7697 25.9019H37.3262V28.3453H39.7697V25.9019Z" fill="white"/>
<path d="M42.2136 25.9019H39.77V28.3453H42.2136V25.9019Z" fill="white"/>
<path d="M54.4318 25.9019H51.9883V28.3453H54.4318V25.9019Z" fill="white"/>
<path d="M59.3185 25.9019H56.875V28.3453H59.3185V25.9019Z" fill="white"/>
<path d="M66.6491 25.9019H64.2056V28.3453H66.6491V25.9019Z" fill="white"/>
<path d="M3.11784 28.3452H0.674316V30.7887H3.11784V28.3452Z" fill="white"/>
<path d="M8.00409 28.3452H5.56055V30.7887H8.00409V28.3452Z" fill="white"/>
<path d="M20.2224 28.3452H17.7788V30.7887H20.2224V28.3452Z" fill="white"/>
<path d="M25.1091 28.3452H22.6655V30.7887H25.1091V28.3452Z" fill="white"/>
<path d="M27.5529 28.3452H25.1094V30.7887H27.5529V28.3452Z" fill="white"/>
<path d="M32.4391 28.3452H29.9956V30.7887H32.4391V28.3452Z" fill="white"/>
<path d="M34.8834 28.3452H32.4399V30.7887H34.8834V28.3452Z" fill="white"/>
<path d="M42.2136 28.3452H39.77V30.7887H42.2136V28.3452Z" fill="white"/>
<path d="M44.6578 28.3452H42.2144V30.7887H44.6578V28.3452Z" fill="white"/>
<path d="M51.988 28.3452H49.5444V30.7887H51.988V28.3452Z" fill="white"/>
<path d="M54.4318 28.3452H51.9883V30.7887H54.4318V28.3452Z" fill="white"/>
<path d="M64.2052 28.3452H61.7617V30.7887H64.2052V28.3452Z" fill="white"/>
<path d="M71.5368 28.3452H69.0933V30.7887H71.5368V28.3452Z" fill="white"/>
<path d="M5.56168 30.7888H3.11816V33.2324H5.56168V30.7888Z" fill="white"/>
<path d="M12.8922 30.7888H10.4487V33.2324H12.8922V30.7888Z" fill="white"/>
<path d="M15.3346 30.7888H12.8911V33.2324H15.3346V30.7888Z" fill="white"/>
<path d="M17.7785 30.7888H15.335V33.2324H17.7785V30.7888Z" fill="white"/>
<path d="M20.2224 30.7888H17.7788V33.2324H20.2224V30.7888Z" fill="white"/>
<path d="M25.1091 30.7888H22.6655V33.2324H25.1091V30.7888Z" fill="white"/>
<path d="M29.9967 30.7888H27.5532V33.2324H29.9967V30.7888Z" fill="white"/>
<path d="M34.8834 30.7888H32.4399V33.2324H34.8834V30.7888Z" fill="white"/>
<path d="M39.7697 30.7888H37.3262V33.2324H39.7697V30.7888Z" fill="white"/>
<path d="M42.2136 30.7888H39.77V33.2324H42.2136V30.7888Z" fill="white"/>
<path d="M49.5441 30.7888H47.1006V33.2324H49.5441V30.7888Z" fill="white"/>
<path d="M51.988 30.7888H49.5444V33.2324H51.988V30.7888Z" fill="white"/>
<path d="M56.8747 30.7888H54.4312V33.2324H56.8747V30.7888Z" fill="white"/>
<path d="M59.3185 30.7888H56.875V33.2324H59.3185V30.7888Z" fill="white"/>
<path d="M71.5368 30.7888H69.0933V33.2324H71.5368V30.7888Z" fill="white"/>
<path d="M5.56168 33.2322H3.11816V35.6757H5.56168V33.2322Z" fill="white"/>
<path d="M15.3346 33.2322H12.8911V35.6757H15.3346V33.2322Z" fill="white"/>
<path d="M20.2224 33.2322H17.7788V35.6757H20.2224V33.2322Z" fill="white"/>
<path d="M22.6661 33.2322H20.2227V35.6757H22.6661V33.2322Z" fill="white"/>
<path d="M32.4391 33.2322H29.9956V35.6757H32.4391V33.2322Z" fill="white"/>
<path d="M34.8834 33.2322H32.4399V35.6757H34.8834V33.2322Z" fill="white"/>
<path d="M37.3274 33.2322H34.8838V35.6757H37.3274V33.2322Z" fill="white"/>
<path d="M39.7697 33.2322H37.3262V35.6757H39.7697V33.2322Z" fill="white"/>
<path d="M42.2136 33.2322H39.77V35.6757H42.2136V33.2322Z" fill="white"/>
<path d="M44.6578 33.2322H42.2144V35.6757H44.6578V33.2322Z" fill="white"/>
<path d="M47.1017 33.2322H44.6582V35.6757H47.1017V33.2322Z" fill="white"/>
<path d="M54.4318 33.2322H51.9883V35.6757H54.4318V33.2322Z" fill="white"/>
<path d="M56.8747 33.2322H54.4312V35.6757H56.8747V33.2322Z" fill="white"/>
<path d="M61.7623 33.2322H59.3188V35.6757H61.7623V33.2322Z" fill="white"/>
<path d="M64.2052 33.2322H61.7617V35.6757H64.2052V33.2322Z" fill="white"/>
<path d="M66.6491 33.2322H64.2056V35.6757H66.6491V33.2322Z" fill="white"/>
<path d="M69.093 33.2322H66.6494V35.6757H69.093V33.2322Z" fill="white"/>
<path d="M71.5368 33.2322H69.0933V35.6757H71.5368V33.2322Z" fill="white"/>
<path d="M3.11784 35.6758H0.674316V38.1193H3.11784V35.6758Z" fill="white"/>
<path d="M5.56168 35.6758H3.11816V38.1193H5.56168V35.6758Z" fill="white"/>
<path d="M8.00409 35.6758H5.56055V38.1193H8.00409V35.6758Z" fill="white"/>
<path d="M10.4479 35.6758H8.00439V38.1193H10.4479V35.6758Z" fill="white"/>
<path d="M15.3346 35.6758H12.8911V38.1193H15.3346V35.6758Z" fill="white"/>
<path d="M17.7785 35.6758H15.335V38.1193H17.7785V35.6758Z" fill="white"/>
<path d="M29.9967 35.6758H27.5532V38.1193H29.9967V35.6758Z" fill="white"/>
<path d="M34.8834 35.6758H32.4399V38.1193H34.8834V35.6758Z" fill="white"/>
<path d="M39.7697 35.6758H37.3262V38.1193H39.7697V35.6758Z" fill="white"/>
<path d="M49.5441 35.6758H47.1006V38.1193H49.5441V35.6758Z" fill="white"/>
<path d="M56.8747 35.6758H54.4312V38.1193H56.8747V35.6758Z" fill="white"/>
<path d="M59.3185 35.6758H56.875V38.1193H59.3185V35.6758Z" fill="white"/>
<path d="M66.6491 35.6758H64.2056V38.1193H66.6491V35.6758Z" fill="white"/>
<path d="M71.5368 35.6758H69.0933V38.1193H71.5368V35.6758Z" fill="white"/>
<path d="M3.11784 38.1194H0.674316V40.5629H3.11784V38.1194Z" fill="white"/>
<path d="M15.3346 38.1194H12.8911V40.5629H15.3346V38.1194Z" fill="white"/>
<path d="M22.6661 38.1194H20.2227V40.5629H22.6661V38.1194Z" fill="white"/>
<path d="M25.1091 38.1194H22.6655V40.5629H25.1091V38.1194Z" fill="white"/>
<path d="M32.4391 38.1194H29.9956V40.5629H32.4391V38.1194Z" fill="white"/>
<path d="M39.7697 38.1194H37.3262V40.5629H39.7697V38.1194Z" fill="white"/>
<path d="M49.5441 38.1194H47.1006V40.5629H49.5441V38.1194Z" fill="white"/>
<path d="M54.4318 38.1194H51.9883V40.5629H54.4318V38.1194Z" fill="white"/>
<path d="M56.8747 38.1194H54.4312V40.5629H56.8747V38.1194Z" fill="white"/>
<path d="M59.3185 38.1194H56.875V40.5629H59.3185V38.1194Z" fill="white"/>
<path d="M61.7623 38.1194H59.3188V40.5629H61.7623V38.1194Z" fill="white"/>
<path d="M66.6491 38.1194H64.2056V40.5629H66.6491V38.1194Z" fill="white"/>
<path d="M71.5368 38.1194H69.0933V40.5629H71.5368V38.1194Z" fill="white"/>
<path d="M8.00409 40.563H5.56055V43.0065H8.00409V40.563Z" fill="white"/>
<path d="M10.4479 40.563H8.00439V43.0065H10.4479V40.563Z" fill="white"/>
<path d="M17.7785 40.563H15.335V43.0065H17.7785V40.563Z" fill="white"/>
<path d="M25.1091 40.563H22.6655V43.0065H25.1091V40.563Z" fill="white"/>
<path d="M27.5529 40.563H25.1094V43.0065H27.5529V40.563Z" fill="white"/>
<path d="M37.3274 40.563H34.8838V43.0065H37.3274V40.563Z" fill="white"/>
<path d="M47.1017 40.563H44.6582V43.0065H47.1017V40.563Z" fill="white"/>
<path d="M49.5441 40.563H47.1006V43.0065H49.5441V40.563Z" fill="white"/>
<path d="M51.988 40.563H49.5444V43.0065H51.988V40.563Z" fill="white"/>
<path d="M64.2052 40.563H61.7617V43.0065H64.2052V40.563Z" fill="white"/>
<path d="M3.11784 43.0066H0.674316V45.4501H3.11784V43.0066Z" fill="white"/>
<path d="M10.4479 43.0066H8.00439V45.4501H10.4479V43.0066Z" fill="white"/>
<path d="M20.2224 43.0066H17.7788V45.4501H20.2224V43.0066Z" fill="white"/>
<path d="M22.6661 43.0066H20.2227V45.4501H22.6661V43.0066Z" fill="white"/>
<path d="M25.1091 43.0066H22.6655V45.4501H25.1091V43.0066Z" fill="white"/>
<path d="M32.4391 43.0066H29.9956V45.4501H32.4391V43.0066Z" fill="white"/>
<path d="M34.8834 43.0066H32.4399V45.4501H34.8834V43.0066Z" fill="white"/>
<path d="M37.3274 43.0066H34.8838V45.4501H37.3274V43.0066Z" fill="white"/>
<path d="M39.7697 43.0066H37.3262V45.4501H39.7697V43.0066Z" fill="white"/>
<path d="M47.1017 43.0066H44.6582V45.4501H47.1017V43.0066Z" fill="white"/>
<path d="M49.5441 43.0066H47.1006V45.4501H49.5441V43.0066Z" fill="white"/>
<path d="M51.988 43.0066H49.5444V45.4501H51.988V43.0066Z" fill="white"/>
<path d="M61.7623 43.0066H59.3188V45.4501H61.7623V43.0066Z" fill="white"/>
<path d="M66.6491 43.0066H64.2056V45.4501H66.6491V43.0066Z" fill="white"/>
<path d="M69.093 43.0066H66.6494V45.4501H69.093V43.0066Z" fill="white"/>
<path d="M3.11784 45.45H0.674316V47.8934H3.11784V45.45Z" fill="white"/>
<path d="M5.56168 45.45H3.11816V47.8934H5.56168V45.45Z" fill="white"/>
<path d="M17.7785 45.45H15.335V47.8934H17.7785V45.45Z" fill="white"/>
<path d="M27.5529 45.45H25.1094V47.8934H27.5529V45.45Z" fill="white"/>
<path d="M32.4391 45.45H29.9956V47.8934H32.4391V45.45Z" fill="white"/>
<path d="M39.7697 45.45H37.3262V47.8934H39.7697V45.45Z" fill="white"/>
<path d="M42.2136 45.45H39.77V47.8934H42.2136V45.45Z" fill="white"/>
<path d="M49.5441 45.45H47.1006V47.8934H49.5441V45.45Z" fill="white"/>
<path d="M56.8747 45.45H54.4312V47.8934H56.8747V45.45Z" fill="white"/>
<path d="M64.2052 45.45H61.7617V47.8934H64.2052V45.45Z" fill="white"/>
<path d="M71.5368 45.45H69.0933V47.8934H71.5368V45.45Z" fill="white"/>
<path d="M3.11784 47.8936H0.674316V50.337H3.11784V47.8936Z" fill="white"/>
<path d="M5.56168 47.8936H3.11816V50.337H5.56168V47.8936Z" fill="white"/>
<path d="M8.00409 47.8936H5.56055V50.337H8.00409V47.8936Z" fill="white"/>
<path d="M10.4479 47.8936H8.00439V50.337H10.4479V47.8936Z" fill="white"/>
<path d="M12.8922 47.8936H10.4487V50.337H12.8922V47.8936Z" fill="white"/>
<path d="M22.6661 47.8936H20.2227V50.337H22.6661V47.8936Z" fill="white"/>
<path d="M25.1091 47.8936H22.6655V50.337H25.1091V47.8936Z" fill="white"/>
<path d="M37.3274 47.8936H34.8838V50.337H37.3274V47.8936Z" fill="white"/>
<path d="M42.2136 47.8936H39.77V50.337H42.2136V47.8936Z" fill="white"/>
<path d="M49.5441 47.8936H47.1006V50.337H49.5441V47.8936Z" fill="white"/>
<path d="M51.988 47.8936H49.5444V50.337H51.988V47.8936Z" fill="white"/>
<path d="M59.3185 47.8936H56.875V50.337H59.3185V47.8936Z" fill="white"/>
<path d="M61.7623 47.8936H59.3188V50.337H61.7623V47.8936Z" fill="white"/>
<path d="M64.2052 47.8936H61.7617V50.337H64.2052V47.8936Z" fill="white"/>
<path d="M66.6491 47.8936H64.2056V50.337H66.6491V47.8936Z" fill="white"/>
<path d="M3.11784 50.3369H0.674316V52.7804H3.11784V50.3369Z" fill="white"/>
<path d="M5.56168 50.3369H3.11816V52.7804H5.56168V50.3369Z" fill="white"/>
<path d="M15.3346 50.3369H12.8911V52.7804H15.3346V50.3369Z" fill="white"/>
<path d="M17.7785 50.3369H15.335V52.7804H17.7785V50.3369Z" fill="white"/>
<path d="M22.6661 50.3369H20.2227V52.7804H22.6661V50.3369Z" fill="white"/>
<path d="M29.9967 50.3369H27.5532V52.7804H29.9967V50.3369Z" fill="white"/>
<path d="M34.8834 50.3369H32.4399V52.7804H34.8834V50.3369Z" fill="white"/>
<path d="M37.3274 50.3369H34.8838V52.7804H37.3274V50.3369Z" fill="white"/>
<path d="M42.2136 50.3369H39.77V52.7804H42.2136V50.3369Z" fill="white"/>
<path d="M44.6578 50.3369H42.2144V52.7804H44.6578V50.3369Z" fill="white"/>
<path d="M51.988 50.3369H49.5444V52.7804H51.988V50.3369Z" fill="white"/>
<path d="M54.4318 50.3369H51.9883V52.7804H54.4318V50.3369Z" fill="white"/>
<path d="M56.8747 50.3369H54.4312V52.7804H56.8747V50.3369Z" fill="white"/>
<path d="M59.3185 50.3369H56.875V52.7804H59.3185V50.3369Z" fill="white"/>
<path d="M61.7623 50.3369H59.3188V52.7804H61.7623V50.3369Z" fill="white"/>
<path d="M64.2052 50.3369H61.7617V52.7804H64.2052V50.3369Z" fill="white"/>
<path d="M66.6491 50.3369H64.2056V52.7804H66.6491V50.3369Z" fill="white"/>
<path d="M69.093 50.3369H66.6494V52.7804H69.093V50.3369Z" fill="white"/>
<path d="M22.6661 52.7805H20.2227V55.2241H22.6661V52.7805Z" fill="white"/>
<path d="M25.1091 52.7805H22.6655V55.2241H25.1091V52.7805Z" fill="white"/>
<path d="M29.9967 52.7805H27.5532V55.2241H29.9967V52.7805Z" fill="white"/>
<path d="M37.3274 52.7805H34.8838V55.2241H37.3274V52.7805Z" fill="white"/>
<path d="M39.7697 52.7805H37.3262V55.2241H39.7697V52.7805Z" fill="white"/>
<path d="M47.1017 52.7805H44.6582V55.2241H47.1017V52.7805Z" fill="white"/>
<path d="M49.5441 52.7805H47.1006V55.2241H49.5441V52.7805Z" fill="white"/>
<path d="M51.988 52.7805H49.5444V55.2241H51.988V52.7805Z" fill="white"/>
<path d="M61.7623 52.7805H59.3188V55.2241H61.7623V52.7805Z" fill="white"/>
<path d="M64.2052 52.7805H61.7617V55.2241H64.2052V52.7805Z" fill="white"/>
<path d="M22.6661 55.2241H20.2227V57.6676H22.6661V55.2241Z" fill="white"/>
<path d="M27.5529 55.2241H25.1094V57.6676H27.5529V55.2241Z" fill="white"/>
<path d="M32.4391 55.2241H29.9956V57.6676H32.4391V55.2241Z" fill="white"/>
<path d="M37.3274 55.2241H34.8838V57.6676H37.3274V55.2241Z" fill="white"/>
<path d="M39.7697 55.2241H37.3262V57.6676H39.7697V55.2241Z" fill="white"/>
<path d="M44.6578 55.2241H42.2144V57.6676H44.6578V55.2241Z" fill="white"/>
<path d="M49.5441 55.2241H47.1006V57.6676H49.5441V55.2241Z" fill="white"/>
<path d="M51.988 55.2241H49.5444V57.6676H51.988V55.2241Z" fill="white"/>
<path d="M56.8747 55.2241H54.4312V57.6676H56.8747V55.2241Z" fill="white"/>
<path d="M61.7623 55.2241H59.3188V57.6676H61.7623V55.2241Z" fill="white"/>
<path d="M64.2052 55.2241H61.7617V57.6676H64.2052V55.2241Z" fill="white"/>
<path d="M22.6661 57.6675H20.2227V60.111H22.6661V57.6675Z" fill="white"/>
<path d="M25.1091 57.6675H22.6655V60.111H25.1091V57.6675Z" fill="white"/>
<path d="M29.9967 57.6675H27.5532V60.111H29.9967V57.6675Z" fill="white"/>
<path d="M32.4391 57.6675H29.9956V60.111H32.4391V57.6675Z" fill="white"/>
<path d="M37.3274 57.6675H34.8838V60.111H37.3274V57.6675Z" fill="white"/>
<path d="M39.7697 57.6675H37.3262V60.111H39.7697V57.6675Z" fill="white"/>
<path d="M44.6578 57.6675H42.2144V60.111H44.6578V57.6675Z" fill="white"/>
<path d="M47.1017 57.6675H44.6582V60.111H47.1017V57.6675Z" fill="white"/>
<path d="M49.5441 57.6675H47.1006V60.111H49.5441V57.6675Z" fill="white"/>
<path d="M51.988 57.6675H49.5444V60.111H51.988V57.6675Z" fill="white"/>
<path d="M61.7623 57.6675H59.3188V60.111H61.7623V57.6675Z" fill="white"/>
<path d="M71.5368 57.6675H69.0933V60.111H71.5368V57.6675Z" fill="white"/>
<path d="M22.6661 60.1111H20.2227V62.5546H22.6661V60.1111Z" fill="white"/>
<path d="M27.5529 60.1111H25.1094V62.5546H27.5529V60.1111Z" fill="white"/>
<path d="M32.4391 60.1111H29.9956V62.5546H32.4391V60.1111Z" fill="white"/>
<path d="M34.8834 60.1111H32.4399V62.5546H34.8834V60.1111Z" fill="white"/>
<path d="M37.3274 60.1111H34.8838V62.5546H37.3274V60.1111Z" fill="white"/>
<path d="M42.2136 60.1111H39.77V62.5546H42.2136V60.1111Z" fill="white"/>
<path d="M49.5441 60.1111H47.1006V62.5546H49.5441V60.1111Z" fill="white"/>
<path d="M51.988 60.1111H49.5444V62.5546H51.988V60.1111Z" fill="white"/>
<path d="M54.4318 60.1111H51.9883V62.5546H54.4318V60.1111Z" fill="white"/>
<path d="M56.8747 60.1111H54.4312V62.5546H56.8747V60.1111Z" fill="white"/>
<path d="M59.3185 60.1111H56.875V62.5546H59.3185V60.1111Z" fill="white"/>
<path d="M61.7623 60.1111H59.3188V62.5546H61.7623V60.1111Z" fill="white"/>
<path d="M64.2052 60.1111H61.7617V62.5546H64.2052V60.1111Z" fill="white"/>
<path d="M71.5368 60.1111H69.0933V62.5546H71.5368V60.1111Z" fill="white"/>
<path d="M22.6661 62.5544H20.2227V64.998H22.6661V62.5544Z" fill="white"/>
<path d="M27.5529 62.5544H25.1094V64.998H27.5529V62.5544Z" fill="white"/>
<path d="M29.9967 62.5544H27.5532V64.998H29.9967V62.5544Z" fill="white"/>
<path d="M32.4391 62.5544H29.9956V64.998H32.4391V62.5544Z" fill="white"/>
<path d="M34.8834 62.5544H32.4399V64.998H34.8834V62.5544Z" fill="white"/>
<path d="M39.7697 62.5544H37.3262V64.998H39.7697V62.5544Z" fill="white"/>
<path d="M42.2136 62.5544H39.77V64.998H42.2136V62.5544Z" fill="white"/>
<path d="M44.6578 62.5544H42.2144V64.998H44.6578V62.5544Z" fill="white"/>
<path d="M47.1017 62.5544H44.6582V64.998H47.1017V62.5544Z" fill="white"/>
<path d="M49.5441 62.5544H47.1006V64.998H49.5441V62.5544Z" fill="white"/>
<path d="M51.988 62.5544H49.5444V64.998H51.988V62.5544Z" fill="white"/>
<path d="M54.4318 62.5544H51.9883V64.998H54.4318V62.5544Z" fill="white"/>
<path d="M59.3185 62.5544H56.875V64.998H59.3185V62.5544Z" fill="white"/>
<path d="M71.5368 62.5544H69.0933V64.998H71.5368V62.5544Z" fill="white"/>
<path d="M34.8834 64.998H32.4399V67.4415H34.8834V64.998Z" fill="white"/>
<path d="M39.7697 64.998H37.3262V67.4415H39.7697V64.998Z" fill="white"/>
<path d="M44.6578 64.998H42.2144V67.4415H44.6578V64.998Z" fill="white"/>
<path d="M51.988 64.998H49.5444V67.4415H51.988V64.998Z" fill="white"/>
<path d="M54.4318 64.998H51.9883V67.4415H54.4318V64.998Z" fill="white"/>
<path d="M59.3185 64.998H56.875V67.4415H59.3185V64.998Z" fill="white"/>
<path d="M61.7623 64.998H59.3188V67.4415H61.7623V64.998Z" fill="white"/>
<path d="M66.6491 64.998H64.2056V67.4415H66.6491V64.998Z" fill="white"/>
<path d="M69.093 64.998H66.6494V67.4415H69.093V64.998Z" fill="white"/>
<path d="M71.5368 64.998H69.0933V67.4415H71.5368V64.998Z" fill="white"/>
<path d="M27.5529 67.4417H25.1094V69.8852H27.5529V67.4417Z" fill="white"/>
<path d="M29.9967 67.4417H27.5532V69.8852H29.9967V67.4417Z" fill="white"/>
<path d="M34.8834 67.4417H32.4399V69.8852H34.8834V67.4417Z" fill="white"/>
<path d="M37.3274 67.4417H34.8838V69.8852H37.3274V67.4417Z" fill="white"/>
<path d="M39.7697 67.4417H37.3262V69.8852H39.7697V67.4417Z" fill="white"/>
<path d="M54.4318 67.4417H51.9883V69.8852H54.4318V67.4417Z" fill="white"/>
<path d="M56.8747 67.4417H54.4312V69.8852H56.8747V67.4417Z" fill="white"/>
<path d="M59.3185 67.4417H56.875V69.8852H59.3185V67.4417Z" fill="white"/>
<path d="M64.2052 67.4417H61.7617V69.8852H64.2052V67.4417Z" fill="white"/>
<path d="M66.6491 67.4417H64.2056V69.8852H66.6491V67.4417Z" fill="white"/>
<path d="M71.5368 67.4417H69.0933V69.8852H71.5368V67.4417Z" fill="white"/>
<path d="M22.6661 69.885H20.2227V72.3286H22.6661V69.885Z" fill="white"/>
<path d="M29.9967 69.885H27.5532V72.3286H29.9967V69.885Z" fill="white"/>
<path d="M32.4391 69.885H29.9956V72.3286H32.4391V69.885Z" fill="white"/>
<path d="M34.8834 69.885H32.4399V72.3286H34.8834V69.885Z" fill="white"/>
<path d="M39.7697 69.885H37.3262V72.3286H39.7697V69.885Z" fill="white"/>
<path d="M42.2136 69.885H39.77V72.3286H42.2136V69.885Z" fill="white"/>
<path d="M49.5441 69.885H47.1006V72.3286H49.5441V69.885Z" fill="white"/>
<path d="M51.988 69.885H49.5444V72.3286H51.988V69.885Z" fill="white"/>
<path d="M54.4318 69.885H51.9883V72.3286H54.4318V69.885Z" fill="white"/>
<path d="M61.7623 69.885H59.3188V72.3286H61.7623V69.885Z" fill="white"/>
<path d="M64.2052 69.885H61.7617V72.3286H64.2052V69.885Z" fill="white"/>
<path d="M15.2132 1.46655H3.24001H0.674316V4.03225V16.0055V18.5712H3.24001H15.2132H17.779V16.0055V4.03225V1.46655H15.2132ZM15.2132 16.0055H3.24001V4.03225H15.2132V16.0055Z" fill="white"/>
<path d="M68.9701 1.46655H56.9969H54.4312V4.03225V16.0055V18.5712H56.9969H68.9701H71.5358V16.0055V4.03225V1.46655H68.9701ZM68.9701 16.0055H56.9969V4.03225H68.9701V16.0055Z" fill="white"/>
<path d="M15.2132 55.2241H3.24001H0.674316V57.7898V69.763V72.3288H3.24001H15.2132H17.779V69.763V57.7898V55.2241H15.2132ZM15.2132 69.763H3.24001V57.7898H15.2132V69.763Z" fill="white"/>
<path d="M12.8911 6.35376H5.56055V13.6843H12.8911V6.35376Z" fill="white"/>
<path d="M66.6494 6.35376H59.3188V13.6843H66.6494V6.35376Z" fill="white"/>
<path d="M12.8911 60.1111H5.56055V67.4416H12.8911V60.1111Z" fill="white"/>
</g>
</g>
<defs>
<clipPath id="clip0_204_2274">
<rect width="71.9965" height="71.9965" fill="white" transform="translate(0.107422 0.899414)"/>
</clipPath>
<clipPath id="clip1_204_2274">
<rect width="71.9965" height="71.9965" fill="white" transform="translate(0.107422 0.899414)"/>
</clipPath>
</defs>
</svg>
