<svg width="17" height="17" viewBox="0 0 17 17" fill="none" xmlns="http://www.w3.org/2000/svg">
<path fill-rule="evenodd" clip-rule="evenodd" d="M11.3225 3.75989C13.2749 5.71239 13.2749 8.87798 11.3225 10.8304C9.36999 12.783 6.20433 12.783 4.25183 10.8304C2.29934 8.87798 2.29934 5.71239 4.25183 3.75989C6.20433 1.8074 9.36999 1.8074 11.3225 3.75989ZM13.3935 11.4874C15.449 8.74579 15.23 4.8392 12.7366 2.34577C10.003 -0.387714 5.5712 -0.387724 2.83771 2.34577C0.104226 5.07926 0.104226 9.51114 2.83771 12.2446C5.33114 14.738 9.2377 14.957 11.9794 12.9015L14.8577 15.7799C15.2482 16.1704 15.8814 16.1704 16.2718 15.7799C16.6623 15.3894 16.6623 14.7563 16.2718 14.3658L13.3935 11.4874Z" fill="#F6551A"/>
</svg>
