<svg width="1161" height="219" viewBox="0 0 1161 219" fill="none" xmlns="http://www.w3.org/2000/svg">
<g clip-path="url(#clip0_211_973)">
<g clip-path="url(#clip1_211_973)">
<path d="M48.7399 51.719C33.873 60.3493 18.1031 67.3205 1.71392 72.507C-1.47408 73.54 -4.82508 74.447 -8.16608 74.139C-14.2921 73.576 -19.6951 68.759 -22.9501 62.975C-26.2061 57.191 -27.6361 50.685 -28.9041 44.307C-29.7221 40.447 -30.3811 36.212 -28.7731 32.767C-26.5451 28.037 -21.0441 26.667 -16.1131 25.955C3.26092 23.425 22.7219 25.081 40.8489 30.802C45.2749 32.132 49.7939 33.922 52.8199 37.695C55.6299 41.464 56.0159 47.535 48.7399 51.719Z" fill="#1FDFDF"/>
</g>
<g clip-path="url(#clip2_211_973)">
<path d="M1021.81 27.2009C1021.65 -3.56333 1030.4 -32.7126 1039.18 -60.993C1041.08 -67.1506 1043.04 -73.4383 1046.71 -78.043C1054.23 -87.4134 1066.69 -88.1734 1077.95 -88.3544C1093.38 -88.5744 1108.78 -88.8974 1124.24 -87.4804C1127.35 -87.2035 1130.52 -86.7235 1133.21 -84.8956C1137.45 -81.9948 1139.52 -75.9211 1139.46 -70.3134C1139.41 -64.7058 1137.31 -59.6931 1135.01 -55.0573C1127 -39.3982 1114.84 -27.4369 1102.9 -15.8676C1082.91 3.47826 1062.39 23.2001 1037.52 33.0365C1034.76 34.0785 1031.82 35.1774 1028.79 34.4365C1025.93 33.5355 1021.81 30.7077 1021.81 27.2009Z" fill="#FF5B00"/>
</g>
<g clip-path="url(#clip3_211_973)">
<path d="M963.766 446.513C1033.07 389.844 1085.99 369.774 1054.17 312.116C1031 270.402 905.806 148.838 878.224 213.744C851.342 276.015 788.087 485.629 824.852 508.198C860.276 529.762 918.088 484.336 963.766 446.513Z" fill="#FFC102"/>
</g>
</g>
<defs>
<clipPath id="clip0_211_973">
<rect width="1160" height="218.394" fill="white" transform="translate(0.0556641 0.605957)"/>
</clipPath>
<clipPath id="clip1_211_973">
<rect width="85" height="50" fill="white" transform="translate(-29.9443 24.599)"/>
</clipPath>
<clipPath id="clip2_211_973">
<rect width="118.993" height="124.993" fill="white" transform="translate(1021.06 -89.3904)"/>
</clipPath>
<clipPath id="clip3_211_973">
<rect width="250.995" height="318.993" fill="white" transform="translate(813.061 195.007)"/>
</clipPath>
</defs>
</svg>
