<svg width="17" height="17" viewBox="0 0 17 17" fill="none" xmlns="http://www.w3.org/2000/svg">
<g clip-path="url(#clip0_207_7286)">
<g clip-path="url(#clip1_207_7286)">
<path fill-rule="evenodd" clip-rule="evenodd" d="M8.65014 2.39046C7.92087 2.39046 7.22147 2.68016 6.7058 3.19583C6.19013 3.7115 5.90043 4.4109 5.90043 5.14016C5.90043 5.86943 6.19013 6.56883 6.7058 7.0845C7.22147 7.60017 7.92087 7.88987 8.65014 7.88987C9.3794 7.88987 10.0788 7.60017 10.5945 7.0845C11.1101 6.56883 11.3998 5.86943 11.3998 5.14016C11.3998 4.4109 11.1101 3.7115 10.5945 3.19583C10.0788 2.68016 9.3794 2.39046 8.65014 2.39046ZM4.4006 5.14016C4.4006 4.01312 4.84832 2.93223 5.64526 2.13529C6.4422 1.33834 7.52309 0.890625 8.65014 0.890625C9.77718 0.890625 10.8581 1.33834 11.655 2.13529C12.452 2.93223 12.8997 4.01312 12.8997 5.14016C12.8997 6.26721 12.452 7.3481 11.655 8.14504C10.8581 8.94199 9.77718 9.3897 8.65014 9.3897C7.52309 9.3897 6.4422 8.94199 5.64526 8.14504C4.84832 7.3481 4.4006 6.26721 4.4006 5.14016ZM8.65014 11.8894C5.98542 11.8894 3.65768 13.5443 2.86076 15.881L1.44092 15.3971C2.45581 12.4214 5.37749 10.3896 8.65014 10.3896C11.9228 10.3896 14.8445 12.4214 15.8594 15.3971L14.4395 15.881C13.6426 13.5443 11.3148 11.8894 8.65014 11.8894Z" fill="black"/>
</g>
</g>
<defs>
<clipPath id="clip0_207_7286">
<rect width="15.9983" height="15.9983" fill="white" transform="translate(0.650879 0.140625)"/>
</clipPath>
<clipPath id="clip1_207_7286">
<rect width="15.9983" height="15.9983" fill="white" transform="translate(0.650879 0.140625)"/>
</clipPath>
</defs>
</svg>
