<svg width="17" height="17" viewBox="0 0 17 17" fill="none" xmlns="http://www.w3.org/2000/svg">
<g clip-path="url(#clip0_207_7300)">
<g clip-path="url(#clip1_207_7300)">
<path d="M6.61751 7.60537H5.11768C5.11768 5.74957 6.45453 4.16974 8.36732 4.16974C10.1451 4.16974 11.9349 4.96365 11.9349 6.96444C11.9349 8.26229 11.083 8.94522 9.95115 9.33918C9.59119 9.46516 9.39121 9.53516 9.24923 9.63915C9.17224 9.69414 9.11724 9.74613 9.11724 9.94811V10.918L7.6174 10.919V9.94811C7.6174 9.25019 7.91437 8.75424 8.36732 8.42528C8.70229 8.1813 9.12624 8.03632 9.42521 7.93433L9.45521 7.92433C9.97315 7.74735 10.4351 7.58937 10.4351 6.96444C10.4351 5.84756 9.28522 5.66958 8.36732 5.66958C7.27844 5.66958 6.61751 6.56548 6.61751 7.60537ZM9.11724 12.6688C9.11724 12.4699 9.03823 12.2792 8.8976 12.1385C8.75696 11.9979 8.56621 11.9189 8.36732 11.9189C8.16843 11.9189 7.97769 11.9979 7.83705 12.1385C7.69641 12.2792 7.6174 12.4699 7.6174 12.6688V13.1688C7.6174 13.3677 7.69641 13.5584 7.83705 13.699C7.97769 13.8397 8.16843 13.9187 8.36732 13.9187C8.56621 13.9187 8.75696 13.8397 8.8976 13.699C9.03823 13.5584 9.11724 13.3677 9.11724 13.1688V12.6688Z" fill="black"/>
<path fill-rule="evenodd" clip-rule="evenodd" d="M0.618164 8.91926C0.618164 6.86406 1.43459 4.89303 2.88784 3.43978C4.34109 1.98653 6.31212 1.1701 8.36732 1.1701C10.4225 1.1701 12.3936 1.98653 13.8468 3.43978C15.3001 4.89303 16.1165 6.86406 16.1165 8.91926C16.1165 10.9745 15.3001 12.9455 13.8468 14.3987C12.3936 15.852 10.4225 16.6684 8.36732 16.6684C6.31212 16.6684 4.34109 15.852 2.88784 14.3987C1.43459 12.9455 0.618164 10.9745 0.618164 8.91926ZM8.36732 2.66994C6.7099 2.66994 5.12036 3.32835 3.94839 4.50033C2.77641 5.6723 2.118 7.26184 2.118 8.91926C2.118 10.5767 2.77641 12.1662 3.94839 13.3382C5.12036 14.5102 6.7099 15.1686 8.36732 15.1686C10.0247 15.1686 11.6143 14.5102 12.7863 13.3382C13.9582 12.1662 14.6166 10.5767 14.6166 8.91926C14.6166 7.26184 13.9582 5.6723 12.7863 4.50033C11.6143 3.32835 10.0247 2.66994 8.36732 2.66994Z" fill="black"/>
</g>
</g>
<defs>
<clipPath id="clip0_207_7300">
<rect width="15.9983" height="15.9983" fill="white" transform="translate(0.368164 0.920105)"/>
</clipPath>
<clipPath id="clip1_207_7300">
<rect width="15.9983" height="15.9983" fill="white" transform="translate(0.368164 0.920105)"/>
</clipPath>
</defs>
</svg>
