<svg width="16" height="17" viewBox="0 0 16 17" fill="none" xmlns="http://www.w3.org/2000/svg">
<g clip-path="url(#clip0_207_8446)">
<g clip-path="url(#clip1_207_8446)">
<path fill-rule="evenodd" clip-rule="evenodd" d="M10.7408 2.85918C10.7068 2.08527 10.4369 1.34235 9.77894 0.879396C9.26295 0.515522 8.64702 0.32019 8.01563 0.32019C7.38425 0.32019 6.76832 0.515522 6.25233 0.879396C5.43442 1.45433 5.26643 2.24925 5.24444 2.86018C4.45752 2.88218 3.61061 2.91618 2.87369 2.96817C2.18977 3.01616 1.53884 3.08516 1.12988 3.19215L1.50684 4.64299C1.76481 4.57599 2.28376 4.513 2.97868 4.46401C4.6305 4.34702 6.29132 4.32402 7.94614 4.31902C9.63996 4.31702 11.3418 4.34402 13.0316 4.46401C13.7265 4.514 14.2465 4.57599 14.5034 4.64299L14.8824 3.19215C14.4724 3.08516 13.8225 3.01616 13.1376 2.96817C12.3392 2.91522 11.5408 2.87888 10.7408 2.85918ZM8.91504 2.10526C8.6518 1.91933 8.33742 1.8195 8.01514 1.8195C7.69285 1.8195 7.37848 1.91933 7.11523 2.10526C6.84126 2.29824 6.77027 2.49122 6.75527 2.82918C7.58281 2.81797 8.41046 2.81797 9.238 2.82918C9.21801 2.55421 9.15301 2.27325 8.91504 2.10526Z" fill="black"/>
<path d="M5.16548 14.1839C4.46556 14.1039 4.0616 14.0159 3.95861 13.244C3.85862 12.4941 3.80863 11.5722 3.78263 10.8263C3.7467 9.54642 3.73636 8.26597 3.75164 6.98569C3.75364 6.51275 3.75664 6.0408 3.75664 5.56885H2.2568C2.2568 6.0418 2.2548 6.51475 2.2518 6.98869C2.23663 8.2853 2.24729 9.58209 2.2838 10.8783C2.30979 11.6382 2.36379 12.6181 2.47177 13.441C2.66875 14.9188 3.62765 15.5178 4.9955 15.6738C6.03839 15.7927 7.09227 15.8167 8.14216 15.8167C8.56811 15.8137 9.91197 15.7967 10.9958 15.6738C11.4098 15.6268 11.8448 15.5578 12.1637 15.4438C13.2006 15.0758 13.4476 14.1289 13.5396 13.442C13.6496 12.6271 13.7026 11.6472 13.7296 10.8853C13.7735 9.58541 13.7675 8.28255 13.7595 6.98169C13.7575 6.51075 13.7556 6.0398 13.7556 5.56885H12.2557C12.2557 6.0408 12.2577 6.51374 12.2607 6.98569C12.2763 8.26829 12.2663 9.55108 12.2307 10.8333C12.2037 11.5832 12.1527 12.5031 12.0537 13.243L12.0507 13.263C12.0137 13.541 11.9617 13.9249 11.6608 14.0309C11.5168 14.0829 11.2308 14.1379 10.8269 14.1839C9.86097 14.2929 8.53712 14.3139 8.13016 14.3169C7.14227 14.3169 6.14838 14.2949 5.16548 14.1839Z" fill="black"/>
<path d="M10.5063 7.06873H9.00635V12.0687H10.5063V7.06873ZM5.50635 7.06873H7.00635V12.0687H5.50635V7.06873Z" fill="black"/>
</g>
</g>
<defs>
<clipPath id="clip0_207_8446">
<rect width="15.9983" height="15.9983" fill="white" transform="translate(0.00683594 0.069458)"/>
</clipPath>
<clipPath id="clip1_207_8446">
<rect width="15.9983" height="15.9983" fill="white" transform="translate(0.00683594 0.069458)"/>
</clipPath>
</defs>
</svg>
