<svg width="16" height="17" viewBox="0 0 16 17" fill="none" xmlns="http://www.w3.org/2000/svg">
<g clip-path="url(#clip0_207_8460)">
<g clip-path="url(#clip1_207_8460)">
<path fill-rule="evenodd" clip-rule="evenodd" d="M10.7408 3.38347C10.7068 2.60956 10.4369 1.86664 9.77894 1.40369C9.26295 1.03981 8.64702 0.844482 8.01563 0.844482C7.38425 0.844482 6.76832 1.03981 6.25233 1.40369C5.43442 1.97863 5.26643 2.77354 5.24444 3.38447C4.45752 3.40647 3.61061 3.44047 2.87369 3.49246C2.18977 3.54046 1.53884 3.60945 1.12988 3.71644L1.50684 5.16728C1.76481 5.10029 2.28376 5.03729 2.97868 4.9883C4.6305 4.87131 6.29132 4.84831 7.94614 4.84331C9.63996 4.84132 11.3418 4.86831 13.0316 4.9883C13.7265 5.03829 14.2465 5.10029 14.5034 5.16728L14.8824 3.71644C14.4724 3.60945 13.8225 3.54046 13.1376 3.49246C12.3392 3.43951 11.5408 3.40317 10.7408 3.38347ZM8.91504 2.62956C8.6518 2.44362 8.33742 2.34379 8.01514 2.34379C7.69285 2.34379 7.37848 2.44362 7.11523 2.62956C6.84126 2.82253 6.77027 3.01551 6.75527 3.35348C7.58281 3.34226 8.41046 3.34226 9.238 3.35348C9.21801 3.07851 9.15301 2.79754 8.91504 2.62956Z" fill="black"/>
<path d="M5.16548 14.7082C4.46556 14.6282 4.0616 14.5402 3.95861 13.7683C3.85862 13.0184 3.80863 12.0965 3.78263 11.3506C3.7467 10.0707 3.73636 8.79026 3.75164 7.50999C3.75364 7.03704 3.75664 6.56509 3.75664 6.09314H2.2568C2.2568 6.56609 2.2548 7.03904 2.2518 7.51299C2.23663 8.8096 2.24729 10.1064 2.2838 11.4026C2.30979 12.1625 2.36379 13.1424 2.47177 13.9653C2.66875 15.4431 3.62765 16.0421 4.9955 16.198C6.03839 16.317 7.09227 16.341 8.14216 16.341C8.56811 16.338 9.91197 16.321 10.9958 16.198C11.4098 16.151 11.8448 16.0821 12.1637 15.9681C13.2006 15.6001 13.4476 14.6532 13.5396 13.9663C13.6496 13.1514 13.7026 12.1715 13.7296 11.4096C13.7735 10.1097 13.7675 8.80685 13.7595 7.50599C13.7575 7.03504 13.7556 6.56409 13.7556 6.09314H12.2557C12.2557 6.56509 12.2577 7.03804 12.2607 7.50999C12.2763 8.79259 12.2663 10.0754 12.2307 11.3576C12.2037 12.1075 12.1527 13.0274 12.0537 13.7673L12.0507 13.7873C12.0137 14.0653 11.9617 14.4492 11.6608 14.5552C11.5168 14.6072 11.2308 14.6622 10.8269 14.7082C9.86097 14.8172 8.53712 14.8382 8.13016 14.8412C7.14227 14.8412 6.14838 14.8192 5.16548 14.7082Z" fill="black"/>
<path d="M10.5063 7.59299H9.00635V12.593H10.5063V7.59299ZM5.50635 7.59299H7.00635V12.593H5.50635V7.59299Z" fill="black"/>
</g>
</g>
<defs>
<clipPath id="clip0_207_8460">
<rect width="15.9983" height="15.9983" fill="white" transform="translate(0.00683594 0.59375)"/>
</clipPath>
<clipPath id="clip1_207_8460">
<rect width="15.9983" height="15.9983" fill="white" transform="translate(0.00683594 0.59375)"/>
</clipPath>
</defs>
</svg>
