<svg width="17" height="17" viewBox="0 0 17 17" fill="none" xmlns="http://www.w3.org/2000/svg">
<g clip-path="url(#clip0_207_7604)">
<g clip-path="url(#clip1_207_7604)">
<path fill-rule="evenodd" clip-rule="evenodd" d="M8.65014 2.88701C7.92087 2.88701 7.22147 3.17671 6.7058 3.69238C6.19013 4.20805 5.90043 4.90745 5.90043 5.63672C5.90043 6.36598 6.19013 7.06538 6.7058 7.58105C7.22147 8.09672 7.92087 8.38642 8.65014 8.38642C9.3794 8.38642 10.0788 8.09672 10.5945 7.58105C11.1101 7.06538 11.3998 6.36598 11.3998 5.63672C11.3998 4.90745 11.1101 4.20805 10.5945 3.69238C10.0788 3.17671 9.3794 2.88701 8.65014 2.88701ZM4.4006 5.63672C4.4006 4.50967 4.84832 3.42878 5.64526 2.63184C6.4422 1.83489 7.52309 1.38718 8.65014 1.38718C9.77718 1.38718 10.8581 1.83489 11.655 2.63184C12.452 3.42878 12.8997 4.50967 12.8997 5.63672C12.8997 6.76376 12.452 7.84465 11.655 8.64159C10.8581 9.43854 9.77718 9.88625 8.65014 9.88625C7.52309 9.88625 6.4422 9.43854 5.64526 8.64159C4.84832 7.84465 4.4006 6.76376 4.4006 5.63672ZM8.65014 12.386C5.98542 12.386 3.65768 14.0408 2.86076 16.3776L1.44092 15.8936C2.45581 12.9179 5.37749 10.8861 8.65014 10.8861C11.9228 10.8861 14.8445 12.9179 15.8594 15.8936L14.4395 16.3776C13.6426 14.0408 11.3148 12.386 8.65014 12.386Z" fill="black"/>
</g>
</g>
<defs>
<clipPath id="clip0_207_7604">
<rect width="15.9983" height="15.9983" fill="white" transform="translate(0.650879 0.637177)"/>
</clipPath>
<clipPath id="clip1_207_7604">
<rect width="15.9983" height="15.9983" fill="white" transform="translate(0.650879 0.637177)"/>
</clipPath>
</defs>
</svg>
