<svg width="17" height="17" viewBox="0 0 17 17" fill="none" xmlns="http://www.w3.org/2000/svg">
<g clip-path="url(#clip0_207_8432)">
<g clip-path="url(#clip1_207_8432)">
<path d="M5.54422 9.53725C5.54422 9.80243 5.43887 10.0568 5.25135 10.2443C5.06384 10.4318 4.80951 10.5371 4.54433 10.5371C4.27914 10.5371 4.02481 10.4318 3.83729 10.2443C3.64978 10.0568 3.54443 9.80243 3.54443 9.53725C3.54443 9.27206 3.64978 9.01773 3.83729 8.83022C4.02481 8.6427 4.27914 8.53735 4.54433 8.53735C4.80951 8.53735 5.06384 8.6427 5.25135 8.83022C5.43887 9.01773 5.54422 9.27206 5.54422 9.53725ZM9.54378 9.53725C9.54378 9.80243 9.43844 10.0568 9.25092 10.2443C9.0634 10.4318 8.80908 10.5371 8.54389 10.5371C8.2787 10.5371 8.02438 10.4318 7.83686 10.2443C7.64934 10.0568 7.544 9.80243 7.544 9.53725C7.544 9.27206 7.64934 9.01773 7.83686 8.83022C8.02438 8.6427 8.2787 8.53735 8.54389 8.53735C8.80908 8.53735 9.0634 8.6427 9.25092 8.83022C9.43844 9.01773 9.54378 9.27206 9.54378 9.53725ZM12.5435 10.5371C12.8086 10.5371 13.063 10.4318 13.2505 10.2443C13.438 10.0568 13.5433 9.80243 13.5433 9.53725C13.5433 9.27206 13.438 9.01773 13.2505 8.83022C13.063 8.6427 12.8086 8.53735 12.5435 8.53735C12.2783 8.53735 12.0239 8.6427 11.8364 8.83022C11.6489 9.01773 11.5436 9.27206 11.5436 9.53725C11.5436 9.80243 11.6489 10.0568 11.8364 10.2443C12.0239 10.4318 12.2783 10.5371 12.5435 10.5371Z" fill="black"/>
<path fill-rule="evenodd" clip-rule="evenodd" d="M5.29426 2.83396C7.30004 2.78696 9.79077 2.77297 11.7936 2.80596V0.538208H13.2934V2.84496C13.8153 2.86396 14.2693 2.88895 14.6212 2.91995C15.5951 3.00694 16.0041 3.32591 16.1161 4.3118C16.2391 5.39668 16.2931 7.50645 16.2931 9.61522C16.2931 11.0221 16.2671 12.4299 16.2161 13.5088C16.1975 13.9614 16.1641 14.4132 16.1161 14.8637C15.9981 15.8585 15.5511 16.1085 14.6092 16.1705C13.4094 16.2505 10.9666 16.2865 8.51991 16.2865C6.07217 16.2865 3.63044 16.2495 2.43057 16.1705C1.48167 16.1065 1.03472 15.8525 0.92773 14.8497C0.814742 13.7888 0.784745 11.677 0.797744 9.56023C0.809743 7.44046 0.867736 5.32669 0.959726 4.2908C1.04672 3.31691 1.42268 3.02594 2.38357 2.95295C2.74453 2.92495 3.22948 2.89995 3.79342 2.87895V0.538208H5.29326L5.29426 2.83396ZM3.79442 4.37979V5.53767H5.29426V4.3348C7.29204 4.2878 9.80577 4.2728 11.7936 4.3058V5.53767H13.2934V4.34579C13.5354 4.35479 14.6072 4.43479 14.6072 4.43479C14.6072 4.43479 14.7932 8.72132 14.7932 9.61422C14.7965 10.8888 14.7712 12.1633 14.7172 13.4368C14.6932 13.9488 14.6632 14.3687 14.6292 14.6657C12.8944 14.7957 11.1436 14.7917 9.40181 14.7877L8.51991 14.7867L7.65 14.7877C5.90619 14.7917 4.15338 14.7957 2.41657 14.6657C2.32258 13.7508 2.28458 11.656 2.29658 9.56823C2.30958 7.48445 2.37057 5.39268 2.45156 4.45178C2.89852 4.41679 3.34647 4.39679 3.79442 4.37979Z" fill="black"/>
</g>
</g>
<defs>
<clipPath id="clip0_207_8432">
<rect width="15.9983" height="15.9983" fill="white" transform="translate(0.544922 0.538208)"/>
</clipPath>
<clipPath id="clip1_207_8432">
<rect width="15.9983" height="15.9983" fill="white" transform="translate(0.544922 0.538208)"/>
</clipPath>
</defs>
</svg>
