<svg width="25" height="25" viewBox="0 0 25 25" fill="none" xmlns="http://www.w3.org/2000/svg">
<path d="M4.84105 18.4298C4.6247 18.6462 4.50315 18.9396 4.50315 19.2456C4.50315 19.5516 4.6247 19.845 4.84105 20.0614C5.05741 20.2777 5.35085 20.3993 5.65682 20.3993C5.96279 20.3993 6.25623 20.2777 6.47258 20.0614L12.1805 14.351L17.8897 20.0614C17.9968 20.1685 18.124 20.2535 18.264 20.3114C18.4039 20.3694 18.5539 20.3993 18.7054 20.3993C18.8569 20.3993 19.007 20.3694 19.1469 20.3114C19.2869 20.2535 19.4141 20.1685 19.5212 20.0614C19.6283 19.9542 19.7133 19.8271 19.7713 19.6871C19.8293 19.5471 19.8591 19.3971 19.8591 19.2456C19.8591 19.0941 19.8293 18.9441 19.7713 18.8041C19.7133 18.6641 19.6283 18.537 19.5212 18.4298L13.8109 12.7207L19.5212 7.01154C19.6283 6.90441 19.7133 6.77723 19.7713 6.63726C19.8293 6.49729 19.8591 6.34727 19.8591 6.19577C19.8591 6.04427 19.8293 5.89425 19.7713 5.75428C19.7133 5.61432 19.6283 5.48714 19.5212 5.38001C19.4141 5.27288 19.2869 5.1879 19.1469 5.12993C19.007 5.07195 18.8569 5.04211 18.7054 5.04211C18.5539 5.04211 18.4039 5.07195 18.264 5.12993C18.124 5.1879 17.9968 5.27288 17.8897 5.38001L12.1805 11.0916L6.47138 5.37881C6.25503 5.16246 5.96159 5.04091 5.65562 5.04091C5.34965 5.04091 5.05621 5.16246 4.83985 5.37881C4.6235 5.59516 4.50195 5.8886 4.50195 6.19457C4.50195 6.50054 4.6235 6.79398 4.83985 7.01034L10.5502 12.7207L4.83985 18.4286L4.84105 18.4298Z" fill="white"/>
</svg>
