<svg width="17" height="17" viewBox="0 0 17 17" fill="none" xmlns="http://www.w3.org/2000/svg">
<g clip-path="url(#clip0_207_7290)">
<g clip-path="url(#clip1_207_7290)">
<path fill-rule="evenodd" clip-rule="evenodd" d="M6.09861 0.390625C4.83896 0.390625 3.63091 0.891016 2.74021 1.78172C1.84951 2.67242 1.34912 3.88047 1.34912 5.14011V16.1389H2.84896V5.14011C2.84896 4.27825 3.19133 3.45169 3.80076 2.84226C4.41019 2.23283 5.23675 1.89046 6.09861 1.89046H7.84842C8.83831 1.89046 9.67822 2.52939 9.97918 3.4163C8.46535 3.51129 7.30248 3.86725 6.47956 4.51318C5.46667 5.30709 5.09871 6.43297 5.09871 7.63984C5.09877 7.82259 5.16555 7.99903 5.28651 8.13601C5.40748 8.273 5.5743 8.3611 5.75564 8.38376C9.8122 8.8907 12.3799 8.8937 15.9545 8.38176C16.133 8.35604 16.2962 8.26688 16.4143 8.13063C16.5324 7.99437 16.5974 7.82014 16.5975 7.63984C16.5975 6.43297 16.2295 5.30709 15.2176 4.51318C14.3597 3.84025 13.1328 3.48229 11.526 3.4063C11.3561 2.556 10.8968 1.79084 10.2263 1.24102C9.55582 0.691201 8.71552 0.390691 7.84842 0.390625H6.09861ZM6.65455 6.98091C9.92719 7.35687 12.1759 7.35887 15.0436 6.99191C14.9426 6.43397 14.6967 6.01102 14.2907 5.69305C13.7028 5.2321 12.6539 4.89014 10.8481 4.89014C9.04229 4.89014 7.9934 5.2321 7.40546 5.69305C7.00251 6.00902 6.75653 6.42797 6.65455 6.98091Z" fill="black"/>
<path d="M13.3486 12.1395V10.1395H14.8486V12.1395H13.3486ZM6.84863 13.1395V15.1395H8.34863V13.1395H6.84863ZM14.8486 13.1395H13.3486V15.1395H14.8486V13.1395ZM10.0986 12.6395V10.6395H11.5986V12.6395H10.0986ZM6.84863 10.1395V12.1395H8.34863V10.1395H6.84863ZM11.5986 14.1395H10.0986V16.1395H11.5986V14.1395Z" fill="black"/>
</g>
</g>
<defs>
<clipPath id="clip0_207_7290">
<rect width="15.9983" height="15.9983" fill="white" transform="translate(0.849121 0.140625)"/>
</clipPath>
<clipPath id="clip1_207_7290">
<rect width="15.9983" height="15.9983" fill="white" transform="translate(0.849121 0.140625)"/>
</clipPath>
</defs>
</svg>
