<svg width="16" height="17" viewBox="0 0 16 17" fill="none" xmlns="http://www.w3.org/2000/svg">
<g clip-path="url(#clip0_207_8474)">
<g clip-path="url(#clip1_207_8474)">
<path fill-rule="evenodd" clip-rule="evenodd" d="M10.7408 3.46334C10.7068 2.68942 10.4369 1.9465 9.77894 1.48355C9.26295 1.11968 8.64702 0.924347 8.01563 0.924347C7.38425 0.924347 6.76832 1.11968 6.25233 1.48355C5.43442 2.05849 5.26643 2.8534 5.24444 3.46434C4.45752 3.48634 3.61061 3.52033 2.87369 3.57233C2.18977 3.62032 1.53884 3.68931 1.12988 3.7963L1.50684 5.24714C1.76481 5.18015 2.28376 5.11716 2.97868 5.06816C4.6305 4.95118 6.29132 4.92818 7.94614 4.92318C9.63996 4.92118 11.3418 4.94818 13.0316 5.06816C13.7265 5.11816 14.2465 5.18015 14.5034 5.24714L14.8824 3.7963C14.4724 3.68931 13.8225 3.62032 13.1376 3.57233C12.3392 3.51937 11.5408 3.48304 10.7408 3.46334ZM8.91504 2.70942C8.6518 2.52349 8.33742 2.42366 8.01514 2.42366C7.69285 2.42366 7.37848 2.52349 7.11523 2.70942C6.84126 2.9024 6.77027 3.09538 6.75527 3.43334C7.58281 3.42212 8.41046 3.42212 9.238 3.43334C9.21801 3.15837 9.15301 2.8774 8.91504 2.70942Z" fill="black"/>
<path d="M5.16548 14.7881C4.46556 14.7081 4.0616 14.6201 3.95861 13.8482C3.85862 13.0983 3.80863 12.1764 3.78263 11.4304C3.7467 10.1506 3.73636 8.87012 3.75164 7.58985C3.75364 7.1169 3.75664 6.64495 3.75664 6.173H2.2568C2.2568 6.64595 2.2548 7.1189 2.2518 7.59285C2.23663 8.88946 2.24729 10.1862 2.2838 11.4824C2.30979 12.2423 2.36379 13.2222 2.47177 14.0452C2.66875 15.523 3.62765 16.1219 4.9955 16.2779C6.03839 16.3969 7.09227 16.4209 8.14216 16.4209C8.56811 16.4179 9.91197 16.4009 10.9958 16.2779C11.4098 16.2309 11.8448 16.1619 12.1637 16.0479C13.2006 15.68 13.4476 14.7331 13.5396 14.0461C13.6496 13.2312 13.7026 12.2513 13.7296 11.4894C13.7735 10.1896 13.7675 8.88671 13.7595 7.58585C13.7575 7.1149 13.7556 6.64395 13.7556 6.173H12.2557C12.2557 6.64495 12.2577 7.1179 12.2607 7.58985C12.2763 8.87245 12.2663 10.1552 12.2307 11.4374C12.2037 12.1874 12.1527 13.1073 12.0537 13.8472L12.0507 13.8672C12.0137 14.1451 11.9617 14.5291 11.6608 14.6351C11.5168 14.6871 11.2308 14.7421 10.8269 14.7881C9.86097 14.8971 8.53712 14.9181 8.13016 14.9211C7.14227 14.9211 6.14838 14.8991 5.16548 14.7881Z" fill="black"/>
<path d="M10.5063 7.67285H9.00635V12.6729H10.5063V7.67285ZM5.50635 7.67285H7.00635V12.6729H5.50635V7.67285Z" fill="black"/>
</g>
</g>
<defs>
<clipPath id="clip0_207_8474">
<rect width="15.9983" height="15.9983" fill="white" transform="translate(0.00683594 0.673615)"/>
</clipPath>
<clipPath id="clip1_207_8474">
<rect width="15.9983" height="15.9983" fill="white" transform="translate(0.00683594 0.673615)"/>
</clipPath>
</defs>
</svg>
