<svg width="17" height="17" viewBox="0 0 17 17" fill="none" xmlns="http://www.w3.org/2000/svg">
<g clip-path="url(#clip0_207_8441)">
<g clip-path="url(#clip1_207_8441)">
<path fill-rule="evenodd" clip-rule="evenodd" d="M6.38488 6.78761C5.9208 6.78761 5.47573 6.97197 5.14758 7.30012C4.81943 7.62827 4.63507 8.07334 4.63507 8.53742C4.63507 9.0015 4.81943 9.44657 5.14758 9.77472C5.47573 10.1029 5.9208 10.2872 6.38488 10.2872C6.84896 10.2872 7.29403 10.1029 7.62219 9.77472C7.95034 9.44657 8.13469 9.0015 8.13469 8.53742C8.13469 8.07334 7.95034 7.62827 7.62219 7.30012C7.29403 6.97197 6.84896 6.78761 6.38488 6.78761ZM3.13524 8.53742C3.13524 7.67556 3.47761 6.849 4.08704 6.23957C4.69646 5.63015 5.52302 5.28777 6.38488 5.28777C7.24674 5.28777 8.0733 5.63015 8.68273 6.23957C9.29216 6.849 9.63453 7.67556 9.63453 8.53742C9.63453 9.39928 9.29216 10.2258 8.68273 10.8353C8.0733 11.4447 7.24674 11.7871 6.38488 11.7871C5.52302 11.7871 4.69646 11.4447 4.08704 10.8353C3.47761 10.2258 3.13524 9.39928 3.13524 8.53742ZM12.3842 2.78805C11.9202 2.78805 11.4751 2.9724 11.1469 3.30055C10.8188 3.62871 10.6344 4.07378 10.6344 4.53786C10.6344 5.00193 10.8188 5.447 11.1469 5.77516C11.4751 6.10331 11.9202 6.28767 12.3842 6.28767C12.8483 6.28767 13.2934 6.10331 13.6215 5.77516C13.9497 5.447 14.134 5.00193 14.134 4.53786C14.134 4.07378 13.9497 3.62871 13.6215 3.30055C13.2934 2.9724 12.8483 2.78805 12.3842 2.78805ZM9.13458 4.53786C9.13458 4.11111 9.21864 3.68853 9.38195 3.29427C9.54526 2.9 9.78463 2.54177 10.0864 2.24001C10.3881 1.93825 10.7464 1.69888 11.1406 1.53557C11.5349 1.37226 11.9575 1.28821 12.3842 1.28821C12.811 1.28821 13.2336 1.37226 13.6278 1.53557C14.0221 1.69888 14.3803 1.93825 14.6821 2.24001C14.9838 2.54177 15.2232 2.9 15.3865 3.29427C15.5498 3.68853 15.6339 4.11111 15.6339 4.53786C15.6339 5.39972 15.2915 6.22628 14.6821 6.8357C14.0727 7.44513 13.2461 7.7875 12.3842 7.7875C11.5224 7.7875 10.6958 7.44513 10.0864 6.8357C9.47696 6.22628 9.13458 5.39972 9.13458 4.53786ZM6.38488 13.7869C5.10502 13.7869 3.98214 14.6068 3.59719 15.7716L2.17334 15.3017C2.76328 13.5139 4.46709 12.287 6.38488 12.287C8.30267 12.287 10.0065 13.5139 10.5964 15.3017L9.17258 15.7716C8.78762 14.6078 7.66474 13.7869 6.38488 13.7869ZM12.3842 9.78729C11.8963 9.78729 11.4303 9.90727 11.0194 10.1202L10.3295 8.78839C10.9494 8.46743 11.6503 8.28745 12.3842 8.28745C14.302 8.28745 16.0058 9.51432 16.5958 11.3021L15.1719 11.7721C14.787 10.6082 13.6641 9.78729 12.3842 9.78729Z" fill="black"/>
</g>
</g>
<defs>
<clipPath id="clip0_207_8441">
<rect width="15.9983" height="15.9983" fill="white" transform="translate(0.885254 0.538208)"/>
</clipPath>
<clipPath id="clip1_207_8441">
<rect width="15.9983" height="15.9983" fill="white" transform="translate(0.885254 0.538208)"/>
</clipPath>
</defs>
</svg>
