<svg width="17" height="17" viewBox="0 0 17 17" fill="none" xmlns="http://www.w3.org/2000/svg">
<g clip-path="url(#clip0_207_7335)">
<g clip-path="url(#clip1_207_7335)">
<path d="M5.59868 0.145813C5.59868 0.996721 5.4017 1.37568 5.19772 1.73464C4.95475 2.15959 4.59879 2.68754 4.59879 3.64543H6.09863C6.09863 3.19948 6.28461 2.85352 6.49958 2.47856C6.79555 1.96162 7.09852 1.32568 7.09852 0.145813H5.59868ZM9.19729 1.73464C9.40127 1.37668 9.59825 0.996721 9.59825 0.145813H11.0981C11.0981 1.32568 10.7951 1.96162 10.4991 2.47856C10.2842 2.85352 10.0982 3.19948 10.0982 3.64543H8.59835C8.59835 2.68754 8.95432 2.15959 9.19729 1.73464ZM12.291 14.1463C8.37438 14.4463 6.3466 14.4583 2.40803 14.1463L2.29004 15.6421C6.3096 15.9601 8.41637 15.9471 12.4049 15.6421L12.291 14.1463Z" fill="black"/>
<path fill-rule="evenodd" clip-rule="evenodd" d="M1.59912 5.64521C1.59912 5.44632 1.67813 5.25558 1.81877 5.11494C1.9594 4.9743 2.15015 4.89529 2.34904 4.89529H13.3478C14.0771 4.89529 14.7765 5.18499 15.2922 5.70066C15.8078 6.21633 16.0975 6.91573 16.0975 7.645C16.0975 8.37426 15.8078 9.07366 15.2922 9.58933C14.7765 10.105 14.0771 10.3947 13.3478 10.3947H13.0219C12.6649 12.1055 11.0981 13.1564 9.45227 13.3874C8.00543 13.5904 6.84055 13.5874 5.25572 13.3884C3.35793 13.1514 1.59912 11.7905 1.59912 9.64478V5.64521ZM13.0979 8.89486H13.3478C13.6793 8.89486 13.9972 8.76318 14.2316 8.52878C14.466 8.29439 14.5977 7.97648 14.5977 7.645C14.5977 7.31351 14.466 6.9956 14.2316 6.76121C13.9972 6.52681 13.6793 6.39513 13.3478 6.39513H13.0979V8.89486ZM3.09896 6.39513V9.64478C3.09896 10.8117 4.05085 11.7266 5.4417 11.9005C6.91154 12.0835 7.94343 12.0845 9.24429 11.9015C10.6511 11.7046 11.598 10.8047 11.598 9.64478V6.39513H3.09896Z" fill="black"/>
</g>
</g>
<defs>
<clipPath id="clip0_207_7335">
<rect width="15.9983" height="15.9983" fill="white" transform="translate(0.349121 0.145813)"/>
</clipPath>
<clipPath id="clip1_207_7335">
<rect width="15.9983" height="15.9983" fill="white" transform="translate(0.349121 0.145813)"/>
</clipPath>
</defs>
</svg>
