<svg width="20" height="20" viewBox="0 0 20 20" fill="none" xmlns="http://www.w3.org/2000/svg">
<path d="M3.95837 4.79171C3.95837 4.33147 4.33147 3.95837 4.79171 3.95837H7.70837C8.16861 3.95837 8.54171 4.33147 8.54171 4.79171V7.70837C8.54171 8.16861 8.16861 8.54171 7.70837 8.54171H4.79171C4.33147 8.54171 3.95837 8.16861 3.95837 7.70837V4.79171Z" fill="white" stroke="white" stroke-width="1.5" stroke-linecap="round" stroke-linejoin="round"/>
<path d="M3.95837 12.2917C3.95837 11.8315 4.33147 11.4584 4.79171 11.4584H7.70837C8.16861 11.4584 8.54171 11.8315 8.54171 12.2917V15.2084C8.54171 15.6686 8.16861 16.0417 7.70837 16.0417H4.79171C4.33147 16.0417 3.95837 15.6686 3.95837 15.2084V12.2917Z" stroke="white" stroke-width="1.5" stroke-linecap="round" stroke-linejoin="round"/>
<path d="M11.4584 4.79171C11.4584 4.33147 11.8315 3.95837 12.2917 3.95837H15.2084C15.6686 3.95837 16.0417 4.33147 16.0417 4.79171V7.70837C16.0417 8.16861 15.6686 8.54171 15.2084 8.54171H12.2917C11.8315 8.54171 11.4584 8.16861 11.4584 7.70837V4.79171Z" stroke="black" stroke-width="1.5" stroke-linecap="round" stroke-linejoin="round"/>
<path d="M11.4584 12.2917C11.4584 11.8315 11.8315 11.4584 12.2917 11.4584H15.2084C15.6686 11.4584 16.0417 11.8315 16.0417 12.2917V15.2084C16.0417 15.6686 15.6686 16.0417 15.2084 16.0417H12.2917C11.8315 16.0417 11.4584 15.6686 11.4584 15.2084V12.2917Z" stroke="black" stroke-width="1.5" stroke-linecap="round" stroke-linejoin="round"/>
</svg>
