<svg width="20" height="20" viewBox="0 0 20 20" fill="none" xmlns="http://www.w3.org/2000/svg">
<path d="M3.95825 4.79159C3.95825 4.33135 4.33135 3.95825 4.79159 3.95825H7.70825C8.16849 3.95825 8.54159 4.33135 8.54159 4.79159V7.70825C8.54159 8.16849 8.16849 8.54159 7.70825 8.54159H4.79159C4.33135 8.54159 3.95825 8.16849 3.95825 7.70825V4.79159Z" stroke="black" stroke-width="1.5" stroke-linecap="round" stroke-linejoin="round"/>
<path d="M3.95825 12.2916C3.95825 11.8313 4.33135 11.4583 4.79159 11.4583H7.70825C8.16849 11.4583 8.54159 11.8313 8.54159 12.2916V15.2083C8.54159 15.6685 8.16849 16.0416 7.70825 16.0416H4.79159C4.33135 16.0416 3.95825 15.6685 3.95825 15.2083V12.2916Z" stroke="black" stroke-width="1.5" stroke-linecap="round" stroke-linejoin="round"/>
<path d="M11.4583 4.79159C11.4583 4.33135 11.8313 3.95825 12.2916 3.95825H15.2083C15.6685 3.95825 16.0416 4.33135 16.0416 4.79159V7.70825C16.0416 8.16849 15.6685 8.54159 15.2083 8.54159H12.2916C11.8313 8.54159 11.4583 8.16849 11.4583 7.70825V4.79159Z" stroke="black" stroke-width="1.5" stroke-linecap="round" stroke-linejoin="round"/>
<path d="M11.4583 12.2916C11.4583 11.8313 11.8313 11.4583 12.2916 11.4583H15.2083C15.6685 11.4583 16.0416 11.8313 16.0416 12.2916V15.2083C16.0416 15.6685 15.6685 16.0416 15.2083 16.0416H12.2916C11.8313 16.0416 11.4583 15.6685 11.4583 15.2083V12.2916Z" stroke="black" stroke-width="1.5" stroke-linecap="round" stroke-linejoin="round"/>
</svg>
