<svg width="24" height="26" viewBox="0 0 24 26" fill="none" xmlns="http://www.w3.org/2000/svg">
<g clip-path="url(#clip0_207_8523)">
<g clip-path="url(#clip1_207_8523)">
<path fill-rule="evenodd" clip-rule="evenodd" d="M22.1948 4.76743C20.9947 4.76743 8.28888 4.76743 1.19325 4.76743C0.593207 4.76743 -0.00683594 5.39272 -0.00683594 6.01802C-0.00683594 9.7774 -0.00683579 17.2733 -0.00683594 18.5239C-0.00683601 19.7744 0.593207 20.3997 1.79329 20.3997C8.48726 20.3997 20.9947 20.3997 22.1948 20.3997C23.3949 20.3997 23.9949 19.7744 23.9949 18.5239C23.9949 17.2733 23.9949 10.7971 23.9949 6.64331C23.9949 5.39272 23.3949 4.76743 22.1948 4.76743Z" fill="#F4F4F4"/>
<path fill-rule="evenodd" clip-rule="evenodd" d="M15.7213 12.866H15.7306H15.7486H15.7666H15.7846H15.8026H15.8206H15.8386H15.8566H15.8746H15.8926H15.9106H15.9287H15.9467H15.9647H15.9827H16.0007H16.0186H16.0367H16.0546H16.0726H16.0906H16.1086H16.1266H16.1446H16.1626H16.1806H16.1986H16.2166H16.2346H16.2526H16.2706H16.2886H16.3066H16.3246H16.3426H16.3606H16.3786H16.3966H16.4146H16.4326H16.4506H16.4685H16.4865H16.5045H16.5225H16.5405H16.5585H16.5765H16.5945H16.6125H16.6305H16.6485H16.6665H16.6845H16.7025H16.7205H16.7385H16.7565H16.7745H16.7925H16.8074H16.8105C16.816 12.8662 16.8221 12.8664 16.8285 12.8668C16.8342 12.8671 16.8403 12.8675 16.8465 12.8681C16.8524 12.8685 16.8584 12.869 16.8645 12.8695C16.8705 12.8701 16.8765 12.8708 16.8825 12.8715C16.8886 12.8721 16.8947 12.873 16.9004 12.8738C16.9069 12.8746 16.913 12.8756 16.9184 12.8765C16.9224 12.8772 16.9261 12.878 16.9293 12.8787L16.9364 12.8804C16.9425 12.8818 16.9485 12.8834 16.9544 12.8851C16.9605 12.8869 16.9665 12.8887 16.9724 12.8907C16.9785 12.8926 16.9845 12.8948 16.9904 12.8971C16.9965 12.8993 17.0025 12.9018 17.0084 12.9043C17.0145 12.9069 17.0205 12.9096 17.0264 12.9124C17.0325 12.9153 17.0385 12.9183 17.0444 12.9215C17.0505 12.9246 17.0565 12.928 17.0624 12.9315C17.0685 12.935 17.0745 12.9388 17.0804 12.9426C17.0865 12.9465 17.0925 12.9506 17.0984 12.9548C17.1045 12.9592 17.1105 12.9636 17.1164 12.9683C17.1225 12.9731 17.1285 12.978 17.1344 12.9832C17.1405 12.9884 17.1465 12.9939 17.1524 12.9995C17.1585 13.0055 17.1645 13.0114 17.1704 13.0176C17.1766 13.0242 17.1825 13.0309 17.1884 13.0379C17.1946 13.0451 17.2006 13.0528 17.2064 13.0605C17.2126 13.0688 17.2186 13.0773 17.2244 13.0862C17.2307 13.0958 17.2367 13.1057 17.2424 13.1158C17.2488 13.1272 17.2548 13.139 17.2604 13.1511C17.267 13.1654 17.273 13.1801 17.2784 13.1953C17.2856 13.2157 17.2917 13.2368 17.2965 13.2586C17.3047 13.2964 17.3091 13.3363 17.3091 13.3779C17.3091 13.4196 17.3047 13.4596 17.2965 13.4975C17.2917 13.5194 17.2856 13.5406 17.2784 13.561C17.273 13.5762 17.267 13.591 17.2604 13.6054C17.2548 13.6174 17.2488 13.6292 17.2424 13.6407C17.2367 13.6508 17.2307 13.6607 17.2244 13.6704C17.2186 13.6791 17.2126 13.6876 17.2064 13.696C17.2006 13.7038 17.1946 13.7113 17.1884 13.7186C17.1825 13.7256 17.1766 13.7322 17.1704 13.7388C17.1645 13.745 17.1585 13.751 17.1524 13.7569C17.1465 13.7625 17.1405 13.768 17.1344 13.7733C17.1285 13.7783 17.1225 13.7833 17.1164 13.7881C17.1105 13.7926 17.1045 13.7971 17.0984 13.8015C17.0925 13.8057 17.0865 13.8097 17.0804 13.8136C17.0745 13.8174 17.0685 13.8212 17.0624 13.8247C17.0565 13.8282 17.0505 13.8315 17.0444 13.8346C17.0385 13.8378 17.0325 13.8408 17.0264 13.8437C17.0205 13.8464 17.0145 13.8491 17.0084 13.8517C17.0025 13.8542 16.9965 13.8566 16.9904 13.8588C16.9845 13.8611 16.9785 13.8632 16.9724 13.8651C16.9665 13.8671 16.9605 13.8689 16.9544 13.8706C16.9485 13.8722 16.9425 13.8739 16.9364 13.8753L16.9293 13.8769C16.9261 13.8778 16.9224 13.8785 16.9184 13.8792C16.913 13.8803 16.9069 13.8812 16.9004 13.8821C16.8947 13.883 16.8886 13.8837 16.8825 13.8844C16.8765 13.885 16.8705 13.8857 16.8645 13.8863C16.8584 13.8868 16.8524 13.8873 16.8465 13.8878C16.8403 13.8883 16.8342 13.8887 16.8285 13.889C16.8221 13.8893 16.816 13.8895 16.8105 13.8897L16.8008 13.8898H16.7925H16.7745H16.7565H16.7385H16.7205H16.7025H16.6845H16.6665H16.6485H16.6305H16.6125H16.5945H16.5765H16.5585H16.5405H16.5225H16.5045H16.4865H16.4685H16.4506H16.4326H16.4146H16.3966H16.3786H16.3606H16.3426H16.3246H16.3066H16.2886H16.2706H16.2526H16.2346H16.2166H16.1986H16.1806H16.1626H16.1446H16.1266H16.1086H16.0906H16.0726H16.0546H16.0367H16.0186H16.0007H15.9827H15.9647H15.9467H15.9287H15.9106H15.8926H15.8746H15.8566H15.8386H15.8206H15.8026H15.7846H15.7666H15.7486H15.7306H15.7213V12.866ZM17.1704 11.7071C17.1777 11.7415 17.1816 11.7779 17.1816 11.8162C17.1816 11.8545 17.1777 11.8909 17.1704 11.9253C17.1658 11.9473 17.1598 11.9685 17.1524 11.9888C17.1471 12.0037 17.1411 12.0181 17.1345 12.0319C17.1289 12.0435 17.1229 12.0548 17.1165 12.0658C17.1108 12.0754 17.1048 12.0847 17.0985 12.0939C17.0927 12.1021 17.0867 12.1101 17.0805 12.118C17.0747 12.1253 17.0687 12.1323 17.0625 12.1392C17.0566 12.1456 17.0506 12.1518 17.0445 12.1579C17.0386 12.1636 17.0326 12.1692 17.0265 12.1745C17.0206 12.1797 17.0146 12.1847 17.0085 12.1895C17.0026 12.1942 16.9966 12.1987 16.9905 12.2031C16.9846 12.2072 16.9786 12.2113 16.9725 12.2151C16.9666 12.2189 16.9606 12.2225 16.9545 12.2261C16.9486 12.2295 16.9426 12.2328 16.9365 12.2359C16.9306 12.239 16.9246 12.2419 16.9185 12.2447C16.9126 12.2474 16.9066 12.2501 16.9005 12.2525C16.8946 12.255 16.8886 12.2573 16.8825 12.2595C16.8766 12.2617 16.8706 12.2637 16.8645 12.2656C16.8586 12.2674 16.8526 12.2692 16.8465 12.2709C16.8406 12.2725 16.8346 12.274 16.8285 12.2754C16.8226 12.2767 16.8166 12.278 16.8105 12.279L16.8062 12.2798C16.8027 12.2805 16.798 12.2812 16.7925 12.2819C16.7872 12.2826 16.7811 12.2834 16.7746 12.284C16.7689 12.2846 16.7628 12.2853 16.7566 12.2858C16.7507 12.2863 16.7446 12.2867 16.7386 12.2871C16.7325 12.2875 16.7265 12.2879 16.7206 12.2882C16.7143 12.2884 16.7083 12.2886 16.7026 12.2886H16.6997H16.6846H16.6666H16.6486H16.6306H16.6126H16.5946H16.5766H16.5586H16.5406H16.5226H16.5046H16.4866H16.4686H16.4506H16.4326H16.4146H16.3967H16.3787H16.3607H16.3427H16.3247H16.3067H16.2887H16.2707H16.2527H16.2347H16.2167H16.1987H16.1807H16.1627H16.1447H16.1267H16.1087H16.0907H16.0728H16.0547H16.0368H16.0188H16.0008H15.9828H15.9648H15.9468H15.9288H15.9107H15.8927H15.8747H15.8567H15.8387H15.8207H15.8027H15.7847H15.7667H15.7487H15.7307H15.7213V11.3438H15.7307H15.7487H15.7667H15.7847H15.8027H15.8207H15.8387H15.8567H15.8747H15.8927H15.9107H15.9288H15.9468H15.9648H15.9828H16.0008H16.0188H16.0368H16.0547H16.0728H16.0907H16.1087H16.1267H16.1447H16.1627H16.1807H16.1987H16.2167H16.2347H16.2527H16.2707H16.2887H16.3067H16.3247H16.3427H16.3607H16.3787H16.3967H16.4146H16.4326H16.4506H16.4686H16.4866H16.5046H16.5226H16.5406H16.5586H16.5766H16.5946H16.6126H16.6306H16.6486H16.6666H16.6846H16.7026H16.7102L16.7206 11.3441C16.7265 11.3444 16.7325 11.3447 16.7386 11.3451C16.7446 11.3456 16.7507 11.3461 16.7566 11.3465C16.7628 11.347 16.7689 11.3476 16.7746 11.3483C16.7811 11.3489 16.7872 11.3495 16.7925 11.3503C16.798 11.3509 16.8027 11.3515 16.8062 11.352L16.8105 11.3529C16.8166 11.3539 16.8226 11.3553 16.8285 11.3566C16.8346 11.358 16.8406 11.3595 16.8465 11.3611C16.8526 11.3628 16.8586 11.3645 16.8645 11.3664C16.8706 11.3684 16.8766 11.3704 16.8825 11.3725C16.8886 11.3747 16.8946 11.3771 16.9005 11.3795C16.9066 11.382 16.9126 11.3846 16.9185 11.3874C16.9246 11.3903 16.9306 11.3932 16.9365 11.3963C16.9426 11.3994 16.9486 11.4026 16.9545 11.4061C16.9606 11.4096 16.9666 11.4133 16.9725 11.417C16.9786 11.421 16.9846 11.425 16.9905 11.4292C16.9966 11.4335 17.0026 11.4381 17.0085 11.4428C17.0146 11.4475 17.0206 11.4525 17.0265 11.4576C17.0326 11.4631 17.0386 11.4687 17.0445 11.4744C17.0506 11.4805 17.0566 11.4867 17.0625 11.4931C17.0687 11.4999 17.0747 11.507 17.0805 11.5143C17.0867 11.522 17.0927 11.5301 17.0985 11.5384C17.1048 11.5475 17.1108 11.5569 17.1165 11.5666C17.1229 11.5774 17.1289 11.5888 17.1345 11.6004C17.1411 11.6142 17.1471 11.6287 17.1524 11.6435C17.1598 11.6638 17.1658 11.685 17.1704 11.7071ZM19.4024 6.80779H19.4098L19.4097 16.5115C19.4097 16.5695 19.4072 16.6269 19.4024 16.6836C19.3982 16.7335 19.3921 16.7828 19.3844 16.8315C19.3791 16.8642 19.3731 16.8967 19.3664 16.9289C19.3609 16.955 19.3549 16.981 19.3484 17.0068C19.3427 17.029 19.3367 17.0511 19.3304 17.073C19.3246 17.0928 19.3187 17.1125 19.3124 17.132C19.3066 17.1497 19.3006 17.1673 19.2944 17.1848C19.2886 17.2011 19.2826 17.2173 19.2764 17.2334C19.2706 17.2485 19.2646 17.2635 19.2584 17.2784C19.2525 17.2925 19.2465 17.3066 19.2404 17.3206C19.2345 17.3338 19.2285 17.347 19.2224 17.3601C19.2165 17.3728 19.2105 17.3853 19.2044 17.3978C19.1985 17.4096 19.1925 17.4215 19.1864 17.4333C19.1805 17.4445 19.1745 17.4558 19.1684 17.4669C19.1625 17.4778 19.1565 17.4885 19.1504 17.4992C19.1445 17.5095 19.1385 17.5199 19.1324 17.5301C19.1265 17.5401 19.1205 17.5501 19.1144 17.56C19.1085 17.5696 19.1024 17.5791 19.0964 17.5886C19.0905 17.5978 19.0844 17.6068 19.0784 17.616C19.0725 17.6248 19.0665 17.6338 19.0604 17.6425C19.0544 17.6512 19.0485 17.6597 19.0424 17.6683C19.0365 17.6766 19.0304 17.6847 19.0244 17.693C19.0184 17.701 19.0125 17.709 19.0064 17.717C19.0004 17.7248 18.9945 17.7325 18.9884 17.7403C18.9825 17.7478 18.9764 17.7553 18.9704 17.7626C18.9644 17.77 18.9585 17.7774 18.9524 17.7847C18.9465 17.7918 18.9404 17.7988 18.9344 17.8058C18.9285 17.8128 18.9224 17.8196 18.9164 17.8264C18.9104 17.8332 18.9045 17.8398 18.8984 17.8465C18.8925 17.8531 18.8864 17.8594 18.8804 17.8659C18.8744 17.8723 18.8685 17.8787 18.8624 17.885C18.8565 17.8912 18.8504 17.8972 18.8444 17.9033C18.8384 17.9093 18.8325 17.9155 18.8264 17.9214C18.8204 17.9272 18.8144 17.9331 18.8084 17.9388C18.8024 17.9445 18.7964 17.9503 18.7904 17.9559C18.7844 17.9614 18.7785 17.9669 18.7724 17.9724C18.7664 17.9779 18.7604 17.9833 18.7544 17.9886C18.7484 17.9939 18.7425 17.9992 18.7364 18.0044C18.7305 18.0096 18.7244 18.0147 18.7184 18.0197C18.7124 18.0248 18.7065 18.0298 18.7004 18.0348C18.6945 18.0397 18.6884 18.0445 18.6823 18.0494C18.6763 18.0542 18.6704 18.059 18.6643 18.0637C18.6584 18.0684 18.6523 18.073 18.6463 18.0775C18.6403 18.0821 18.6344 18.0867 18.6283 18.0912C18.6224 18.0957 18.6163 18.0999 18.6103 18.1043C18.6043 18.1087 18.5984 18.1131 18.5923 18.1173C18.5864 18.1216 18.5803 18.1257 18.5743 18.1298C18.5683 18.134 18.5624 18.1381 18.5563 18.1421C18.5504 18.1462 18.5443 18.1501 18.5383 18.1541C18.5323 18.158 18.5264 18.1619 18.5203 18.1658C18.5144 18.1696 18.5084 18.1734 18.5023 18.1771L18.4843 18.1883C18.4783 18.1918 18.4724 18.1955 18.4663 18.1991C18.4604 18.2026 18.4543 18.2061 18.4483 18.2095C18.4423 18.213 18.4364 18.2165 18.4303 18.2198C18.4244 18.2233 18.4183 18.2265 18.4123 18.2297C18.4063 18.2331 18.4004 18.2364 18.3943 18.2396C18.3884 18.2429 18.3823 18.2459 18.3763 18.249C18.3703 18.2521 18.3644 18.2553 18.3583 18.2583C18.3524 18.2613 18.3463 18.2642 18.3403 18.2672L18.3223 18.276L18.3043 18.2844C18.2984 18.2872 18.2924 18.2899 18.2863 18.2926C18.2803 18.2954 18.2744 18.2982 18.2684 18.3008C18.2624 18.3034 18.2564 18.3059 18.2503 18.3084C18.2443 18.311 18.2384 18.3136 18.2324 18.3161C18.2264 18.3186 18.2204 18.3209 18.2144 18.3233C18.2084 18.3257 18.2024 18.3281 18.1964 18.3304L18.1784 18.3373C18.1724 18.3395 18.1663 18.3417 18.1603 18.3439C18.1544 18.3461 18.1484 18.3484 18.1424 18.3505C18.1364 18.3525 18.1303 18.3545 18.1244 18.3566L18.1064 18.3626C18.1004 18.3646 18.0944 18.3665 18.0884 18.3684L18.0704 18.374C18.0644 18.3759 18.0584 18.3778 18.0524 18.3795C18.0464 18.3812 18.0404 18.3829 18.0344 18.3845C18.0284 18.3863 18.0224 18.388 18.0164 18.3896L17.9984 18.3943L17.9804 18.3989L17.9624 18.4034C17.9564 18.4048 17.9504 18.4061 17.9444 18.4074C17.9384 18.4088 17.9324 18.4103 17.9264 18.4115L17.9084 18.4153L17.8904 18.4189C17.8844 18.42 17.8784 18.4213 17.8724 18.4224C17.8664 18.4235 17.8604 18.4244 17.8544 18.4255L17.8364 18.4286L17.8184 18.4314L17.8004 18.434C17.7944 18.4349 17.7884 18.4359 17.7824 18.4367C17.7764 18.4374 17.7704 18.4381 17.7644 18.4388C17.7584 18.4395 17.7524 18.4403 17.7464 18.441C17.7404 18.4416 17.7344 18.4423 17.7284 18.4429C17.7224 18.4435 17.7164 18.444 17.7104 18.4445C17.7044 18.4451 17.6984 18.4458 17.6924 18.4462C17.6864 18.4467 17.6804 18.4471 17.6744 18.4475L17.6564 18.4487C17.6504 18.4491 17.6444 18.4495 17.6384 18.4498C17.6324 18.4501 17.6264 18.4504 17.6204 18.4506L17.6024 18.4513L17.5844 18.4517C17.5784 18.4519 17.5724 18.4519 17.5664 18.452L17.5484 18.4522H17.5447H17.5304H17.5124H17.4944H17.4764H17.4584H17.4404H17.4224H17.4044H17.3864H17.3684H17.3504H17.3324H17.3144H17.2964H17.2784H17.2603H17.2423H17.2243H17.2063H17.1883H17.1703H17.1523H17.1343H17.1163H17.0983H17.0803H17.0623H17.0443H17.0263H17.0083H16.9903H16.9723H16.9543H16.9363H16.9183H16.9004H16.8823H16.8644H16.8464H16.8284H16.8104H16.7923H16.7744H16.7564H16.7384H16.7204H16.7024H16.6844H16.6664H16.6484H16.6304H16.6124H16.5944H16.5764H16.5584H16.5404H16.5224H16.5044H16.4864H16.4684H16.4504H16.4324H16.4144H16.3964H16.3784H16.3604H16.3424H16.3244H16.3064H16.2884H16.2704H16.2524H16.2344H16.2164H16.1984H16.1804H16.1624H16.1444H16.1264H16.1084H16.0904H16.0724H16.0544H16.0364H16.0184H16.0004H15.9824H15.9644H15.9464H15.9284H15.9104H15.8923H15.8743H15.8563H15.8383H15.8203H15.8023H15.7843H15.7663H15.7483H15.7303H15.7123H15.6943H15.6763H15.6583H15.6403H15.6223H15.6043H15.5863H15.5683H15.5503H15.5324H15.5143H15.4964H15.4784H15.4604H15.4424H15.4244H15.4064H15.3884H15.3704H15.3524H15.3344H15.3164H15.2984H15.2804H15.2624H15.2444H15.2264H15.2084H15.1904H15.1724H15.1544H15.1364H15.1184H15.1004H15.0824H15.0644H15.0464H15.0284H15.0104H14.9924H14.9744H14.9564H14.9384H14.9204H14.9024H14.8844H14.8664H14.8484H14.8096V14.4958H14.8484H14.8664H14.8844H14.9024H14.9204H14.9384H14.9564H14.9744H14.9924H15.0104H15.0284H15.0464H15.0644H15.0824H15.1004H15.1184H15.1364H15.1544H15.1724H15.1904H15.2084H15.2264H15.2444H15.2624H15.2804H15.2984H15.3164H15.3344H15.3524H15.3704H15.3884H15.4064H15.4244H15.4424H15.4604H15.4784H15.4964H15.5143H15.5324H15.5503H15.5683H15.5863H15.6043H15.6223H15.6403H15.6583H15.6763H15.6943H15.7123H15.7303H15.7483H15.7663H15.7843H15.8023H15.8203H15.8383H15.8563H15.8743H15.8923H15.9104H15.9284H15.9464H15.9644H15.9824H16.0004H16.0184H16.0364H16.0544H16.0724H16.0904H16.1084H16.1264H16.1444H16.1624H16.1804H16.1984H16.2164H16.2344H16.2524H16.2704H16.2884H16.3064H16.3244H16.3424H16.3604H16.3784H16.3964H16.4144H16.4324H16.4504H16.4684H16.4864H16.5044H16.5224H16.5404H16.5584H16.5764H16.5944H16.6124H16.6304H16.6484H16.6664H16.6844H16.7024H16.7204H16.7384H16.7564H16.7744H16.7923H16.8104H16.8284H16.8464H16.8644H16.8823H16.9004H16.9183H16.9363H16.9543H16.9723H16.9903H17.0083H17.0263H17.0443H17.0623H17.0803H17.0983H17.1163H17.1343H17.1523H17.1703H17.1883H17.2063H17.2243H17.2423H17.2603H17.2784H17.2964H17.3144H17.3324H17.3504H17.3684H17.3864H17.4044H17.4224H17.4404H17.4584H17.4764H17.4944H17.5124H17.5304H17.5484H17.5664H17.5844H17.6024H17.6204H17.6384H17.6564H17.6744H17.6924H17.7019L17.7104 14.4957L17.7284 14.4955L17.7464 14.4951C17.7524 14.4949 17.7584 14.4948 17.7644 14.4946C17.7704 14.4944 17.7764 14.4941 17.7824 14.4939L17.8004 14.493L17.8184 14.4918L17.8364 14.4906L17.8544 14.4891L17.8724 14.4873C17.8784 14.4868 17.8844 14.4862 17.8904 14.4856C17.8964 14.4849 17.9024 14.4842 17.9084 14.4835L17.9264 14.4812C17.9324 14.4804 17.9384 14.4795 17.9444 14.4787C17.9504 14.4779 17.9564 14.4768 17.9624 14.476C17.9684 14.4749 17.9744 14.474 17.9804 14.4731L17.9984 14.4699L18.0164 14.4665C18.0224 14.4654 18.0284 14.4642 18.0344 14.463C18.0404 14.4617 18.0464 14.4605 18.0524 14.4591L18.0704 14.455C18.0764 14.4537 18.0824 14.4522 18.0884 14.4508C18.0944 14.4493 18.1004 14.4478 18.1064 14.4462C18.1124 14.4446 18.1184 14.4431 18.1244 14.4414C18.1304 14.4398 18.1364 14.4382 18.1424 14.4364C18.1484 14.4347 18.1544 14.4329 18.1603 14.4311C18.1664 14.4292 18.1724 14.4274 18.1784 14.4256L18.1964 14.4196C18.2024 14.4176 18.2084 14.4156 18.2144 14.4135C18.2204 14.4114 18.2264 14.4092 18.2324 14.407C18.2384 14.4048 18.2444 14.4026 18.2503 14.4004C18.2564 14.3981 18.2624 14.3957 18.2684 14.3933C18.2744 14.3908 18.2804 14.3884 18.2863 14.3859C18.2924 14.3834 18.2984 14.3808 18.3043 14.3782C18.3104 14.3756 18.3164 14.3729 18.3223 14.3701C18.3284 14.3673 18.3344 14.3645 18.3403 14.3617C18.3464 14.3588 18.3524 14.3559 18.3583 14.353C18.3644 14.3499 18.3704 14.3469 18.3763 14.3438C18.3824 14.3407 18.3884 14.3374 18.3943 14.3342C18.4004 14.331 18.4064 14.3275 18.4123 14.3242C18.4184 14.3208 18.4244 14.3173 18.4303 14.3138C18.4364 14.3103 18.4424 14.3066 18.4483 14.303C18.4544 14.2992 18.4604 14.2955 18.4663 14.2916C18.4724 14.2876 18.4784 14.2837 18.4843 14.2796C18.4904 14.2756 18.4964 14.2714 18.5023 14.2672C18.5084 14.263 18.5144 14.2586 18.5203 14.2542C18.5264 14.2497 18.5324 14.2451 18.5383 14.2406C18.5444 14.2359 18.5504 14.2312 18.5563 14.2263C18.5624 14.2214 18.5684 14.2164 18.5743 14.2114C18.5804 14.2062 18.5864 14.201 18.5923 14.1957C18.5984 14.1903 18.6044 14.1847 18.6103 14.1791C18.6164 14.1734 18.6224 14.1675 18.6283 14.1617C18.6344 14.1557 18.6404 14.1495 18.6463 14.1434C18.6524 14.1369 18.6584 14.1305 18.6643 14.1238C18.6704 14.117 18.6764 14.1101 18.6823 14.1032C18.6885 14.0959 18.6945 14.0886 18.7004 14.0811C18.7066 14.0734 18.7125 14.0656 18.7184 14.0575C18.7245 14.0493 18.7306 14.0409 18.7364 14.0323C18.7426 14.0234 18.7486 14.0141 18.7544 14.0048C18.7606 13.995 18.7666 13.985 18.7724 13.9749C18.7786 13.9641 18.7846 13.9531 18.7904 13.9419C18.7967 13.9298 18.8027 13.9175 18.8084 13.905C18.8148 13.8912 18.8208 13.877 18.8264 13.8626C18.8329 13.8462 18.8389 13.8295 18.8444 13.8125C18.8512 13.7916 18.8571 13.7703 18.8624 13.7485C18.8701 13.7168 18.8761 13.6842 18.8804 13.6508C18.8856 13.6103 18.8884 13.5687 18.8884 13.5259C18.8884 13.4842 18.8857 13.4438 18.8804 13.4045C18.8761 13.3722 18.8701 13.3408 18.8624 13.3101C18.8572 13.2892 18.8511 13.2688 18.8444 13.2487C18.8389 13.2322 18.8329 13.216 18.8264 13.2C18.8208 13.1862 18.8148 13.1726 18.8084 13.1592C18.8027 13.1472 18.7967 13.1354 18.7904 13.1236C18.7846 13.1129 18.7786 13.1022 18.7724 13.0917C18.7666 13.0819 18.7606 13.0723 18.7544 13.0629C18.7486 13.054 18.7426 13.045 18.7364 13.0364C18.7306 13.0282 18.7246 13.02 18.7184 13.012C18.7125 13.0044 18.7066 12.9968 18.7004 12.9893C18.6945 12.9821 18.6885 12.975 18.6823 12.9681C18.6764 12.9613 18.6704 12.9546 18.6643 12.9481C18.6584 12.9417 18.6524 12.9355 18.6463 12.9293C18.6404 12.9234 18.6344 12.9174 18.6283 12.9116C18.6224 12.9059 18.6164 12.9004 18.6103 12.8948C18.6044 12.8894 18.5984 12.8841 18.5923 12.8788C18.5864 12.8737 18.5804 12.8687 18.5743 12.8637C18.5684 12.8588 18.5624 12.8539 18.5563 12.8492C18.5504 12.8445 18.5444 12.8399 18.5383 12.8355C18.5324 12.831 18.5264 12.8266 18.5203 12.8222C18.5144 12.818 18.5084 12.8138 18.5023 12.8096C18.4964 12.8056 18.4904 12.8016 18.4843 12.7976C18.4784 12.7937 18.4724 12.7898 18.4663 12.7861C18.4604 12.7823 18.4544 12.7787 18.4483 12.775C18.4424 12.7715 18.4364 12.7681 18.4303 12.7645C18.4244 12.7612 18.4184 12.7578 18.4123 12.7545C18.4064 12.7512 18.4004 12.748 18.3943 12.7448C18.3884 12.7416 18.3824 12.7385 18.3763 12.7355C18.3704 12.7324 18.3644 12.7294 18.3583 12.7265C18.3524 12.7237 18.3464 12.7209 18.3403 12.7181C18.3344 12.7153 18.3284 12.7125 18.3223 12.7098C18.3164 12.7072 18.3104 12.7046 18.3043 12.702C18.2984 12.6995 18.2924 12.6969 18.2863 12.6944C18.2804 12.692 18.2744 12.6896 18.2684 12.6872C18.2624 12.6849 18.2564 12.6826 18.2503 12.6805C18.2444 12.6782 18.2384 12.676 18.2324 12.6738C18.2264 12.6717 18.2204 12.6695 18.2144 12.6674C18.2084 12.6655 18.2024 12.6635 18.1964 12.6615C18.1904 12.6595 18.1844 12.6576 18.1784 12.6558L18.1603 12.6503C18.1544 12.6485 18.1484 12.6467 18.1424 12.6449C18.1364 12.6433 18.1304 12.6416 18.1244 12.64C18.1184 12.6384 18.1124 12.6368 18.1064 12.6353C18.1004 12.6338 18.0944 12.6322 18.0884 12.6308C18.0824 12.6293 18.0764 12.628 18.0704 12.6265C18.0644 12.6251 18.0584 12.6238 18.0524 12.6225C18.0464 12.6212 18.0404 12.6199 18.0344 12.6187L18.0164 12.6151L17.9984 12.6118C17.9924 12.6107 17.9864 12.6096 17.9804 12.6086L17.9624 12.6057C17.9564 12.6047 17.9504 12.6038 17.9444 12.603L17.9264 12.6004L17.9084 12.598L17.8904 12.5959L17.8724 12.5939L17.8544 12.5922L17.8364 12.5907L17.8198 12.5893L17.8197 12.5668L17.8364 12.5641L17.8544 12.5611C17.8604 12.5599 17.8664 12.5589 17.8724 12.5578L17.8904 12.5542C17.8964 12.553 17.9024 12.5516 17.9084 12.5504L17.9264 12.5463C17.9324 12.5448 17.9384 12.5434 17.9444 12.5419C17.9504 12.5404 17.9564 12.5388 17.9624 12.5372C17.9684 12.5357 17.9744 12.534 17.9804 12.5322C17.9864 12.5306 17.9924 12.5288 17.9984 12.527C18.0044 12.5253 18.0104 12.5234 18.0164 12.5215C18.0224 12.5196 18.0284 12.5176 18.0344 12.5157C18.0404 12.5137 18.0464 12.5116 18.0524 12.5095C18.0584 12.5073 18.0644 12.5051 18.0704 12.503C18.0764 12.5008 18.0824 12.4985 18.0884 12.4962C18.0944 12.4938 18.1004 12.4914 18.1064 12.489C18.1124 12.4865 18.1184 12.484 18.1244 12.4814C18.1304 12.4788 18.1364 12.4762 18.1424 12.4735C18.1484 12.4707 18.1544 12.468 18.1603 12.465C18.1664 12.4622 18.1724 12.4592 18.1784 12.4563C18.1844 12.4533 18.1904 12.4501 18.1964 12.447C18.2024 12.4439 18.2084 12.4407 18.2144 12.4373C18.2204 12.434 18.2264 12.4306 18.2324 12.4272C18.2384 12.4237 18.2444 12.4201 18.2503 12.4165C18.2564 12.4129 18.2624 12.4091 18.2684 12.4054C18.2744 12.4014 18.2804 12.3975 18.2863 12.3936C18.2924 12.3895 18.2984 12.3854 18.3043 12.3812C18.3104 12.3769 18.3164 12.3725 18.3223 12.3682C18.3284 12.3637 18.3344 12.3591 18.3403 12.3545C18.3464 12.3498 18.3524 12.345 18.3583 12.3401C18.3644 12.3351 18.3704 12.3301 18.3763 12.325C18.3824 12.3197 18.3884 12.3143 18.3943 12.309C18.4004 12.3034 18.4064 12.2976 18.4123 12.2919C18.4184 12.2861 18.4244 12.28 18.4303 12.274C18.4364 12.2678 18.4425 12.2614 18.4483 12.2549C18.4545 12.2483 18.4605 12.2415 18.4663 12.2346C18.4725 12.2275 18.4785 12.2203 18.4843 12.213C18.4905 12.2053 18.4965 12.1975 18.5023 12.1896C18.5085 12.1814 18.5145 12.1731 18.5203 12.1645C18.5265 12.1556 18.5325 12.1464 18.5383 12.1372C18.5445 12.1274 18.5505 12.1175 18.5563 12.1075C18.5626 12.0966 18.5686 12.0856 18.5743 12.0745C18.5806 12.0622 18.5866 12.0498 18.5923 12.0373C18.5987 12.0232 18.6047 12.0089 18.6103 11.9944C18.6169 11.9776 18.6229 11.9606 18.6283 11.9433C18.6352 11.9216 18.6412 11.8995 18.6463 11.8771C18.6546 11.8409 18.6606 11.8039 18.6643 11.7662C18.6672 11.7365 18.6689 11.7064 18.6689 11.676C18.6689 11.6438 18.6672 11.6125 18.6643 11.5819C18.6606 11.543 18.6546 11.5053 18.6463 11.4688C18.6412 11.4461 18.6352 11.4239 18.6283 11.4022C18.6228 11.3848 18.6168 11.3679 18.6103 11.3512C18.6047 11.3368 18.5987 11.3228 18.5923 11.3089C18.5866 11.2965 18.5806 11.2843 18.5743 11.2724C18.5686 11.2615 18.5626 11.2507 18.5563 11.24C18.5505 11.2303 18.5445 11.2205 18.5383 11.2109C18.5325 11.2019 18.5265 11.1932 18.5203 11.1844C18.5145 11.1762 18.5085 11.1681 18.5023 11.1601C18.4965 11.1524 18.4905 11.1449 18.4843 11.1374C18.4785 11.1305 18.4725 11.1235 18.4663 11.1166C18.4605 11.1099 18.4544 11.1035 18.4483 11.097C18.4424 11.0908 18.4364 11.0847 18.4303 11.0787C18.4244 11.0728 18.4184 11.067 18.4123 11.0613C18.4064 11.0558 18.4004 11.0504 18.3943 11.0449C18.3884 11.0397 18.3824 11.0346 18.3763 11.0295C18.3704 11.0246 18.3644 11.0197 18.3583 11.0149C18.3524 11.0102 18.3464 11.0056 18.3403 11.0011C18.3344 10.9966 18.3284 10.9922 18.3223 10.9879C18.3164 10.9837 18.3104 10.9795 18.3043 10.9754C18.2984 10.9714 18.2924 10.9674 18.2863 10.9635C18.2804 10.9596 18.2744 10.9559 18.2684 10.9521C18.2624 10.9485 18.2564 10.9449 18.2503 10.9413C18.2444 10.9378 18.2384 10.9344 18.2324 10.931C18.2264 10.9277 18.2204 10.9244 18.2144 10.9212C18.2084 10.918 18.2024 10.9148 18.1964 10.9118C18.1904 10.9087 18.1844 10.9057 18.1784 10.9027C18.1724 10.8998 18.1664 10.897 18.1603 10.8942C18.1544 10.8914 18.1484 10.8887 18.1424 10.8861C18.1364 10.8834 18.1304 10.8808 18.1244 10.8783C18.1184 10.8757 18.1124 10.8733 18.1064 10.8708C18.1004 10.8684 18.0944 10.866 18.0884 10.8637C18.0824 10.8614 18.0764 10.8591 18.0704 10.8569C18.0644 10.8547 18.0584 10.8526 18.0524 10.8505C18.0464 10.8484 18.0404 10.8464 18.0344 10.8444C18.0284 10.8424 18.0224 10.8404 18.0164 10.8385C18.0104 10.8366 18.0044 10.8347 17.9984 10.8329C17.9924 10.8311 17.9864 10.8294 17.9804 10.8277C17.9744 10.826 17.9684 10.8244 17.9624 10.8227L17.9444 10.818C17.9384 10.8164 17.9324 10.8149 17.9264 10.8135C17.9204 10.812 17.9144 10.8106 17.9084 10.8093L17.8904 10.8053C17.8844 10.804 17.8784 10.8027 17.8724 10.8015C17.8664 10.8002 17.8604 10.7991 17.8544 10.798L17.8364 10.7947C17.8304 10.7936 17.8244 10.7926 17.8184 10.7916L17.8004 10.7887L17.7824 10.7861L17.7644 10.7836L17.7464 10.7814L17.7284 10.7794L17.7104 10.7775L17.6924 10.7758L17.6744 10.7744L17.6564 10.7731L17.6384 10.772L17.6313 10.7716L17.6204 10.7709L17.6024 10.7698L17.5844 10.7687L17.5664 10.7678L17.5484 10.7668L17.5304 10.766L17.5124 10.7654L17.4944 10.7648L17.4764 10.7644L17.4584 10.7641L17.4485 10.7641H17.4404H17.4224H17.4044H17.3864H17.3684H17.3504H17.3324H17.3144H17.2964H17.2784H17.2603H17.2423H17.2243H17.2063H17.1883H17.1703H17.1523H17.1343H17.1163H17.0983H17.0803H17.0623H17.0443H17.0263H17.0083H16.9903H16.9723H16.9543H16.9363H16.9183H16.9004H16.8823H16.8644H16.8464H16.8284H16.8104H16.7923H16.7744H16.7564H16.7384H16.7204H16.7024H16.6844H16.6664H16.6484H16.6304H16.6124H16.5944H16.5764H16.5584H16.5404H16.5224H16.5044H16.4864H16.4684H16.4504H16.4324H16.4144H16.3964H16.3784H16.3604H16.3424H16.3244H16.3064H16.2884H16.2704H16.2524H16.2344H16.2164H16.1984H16.1804H16.1624H16.1444H16.1264H16.1084H16.0904H16.0724H16.0544H16.0364H16.0184H16.0004H15.9824H15.9644H15.9464H15.9284H15.9104H15.8923H15.8743H15.8563H15.8383H15.8203H15.8023H15.7843H15.7663H15.7483H15.7303H15.7123H15.6943H15.6763H15.6583H15.6403H15.6223H15.6043H15.5863H15.5683H15.5503H15.5324H15.5143H15.4964H15.4784H15.4604H15.4424H15.4244H15.4064H15.3884H15.3704H15.3524H15.3344H15.3164H15.2984H15.2804H15.2624H15.2444H15.2264H15.2084H15.1904H15.1724H15.1544H15.1364H15.1184H15.1004H15.0824H15.0644H15.0464H15.0284H15.0104H14.9924H14.9744H14.9564H14.9384H14.9204H14.9024H14.8844H14.8664H14.8484H14.8096V8.7487C14.8096 8.61312 14.823 8.4808 14.8484 8.35306C14.8539 8.32571 14.8599 8.29858 14.8664 8.27168C14.872 8.24866 14.878 8.2258 14.8844 8.20312C14.8901 8.18286 14.8961 8.16274 14.9024 8.14275C14.9082 8.1245 14.9141 8.10633 14.9204 8.08832C14.9262 8.07162 14.9322 8.055 14.9384 8.03852C14.9442 8.02312 14.9502 8.00779 14.9564 7.99259C14.9622 7.97825 14.9682 7.96396 14.9744 7.94979C14.9802 7.93632 14.9863 7.92296 14.9924 7.90967C14.9982 7.89699 15.0043 7.8844 15.0104 7.87187C15.0163 7.85981 15.0223 7.84787 15.0284 7.83596C15.0343 7.82448 15.0403 7.81308 15.0464 7.80175C15.0523 7.79076 15.0583 7.77987 15.0644 7.76901C15.0703 7.75848 15.0763 7.748 15.0824 7.73762C15.0883 7.72754 15.0943 7.71754 15.1004 7.70759C15.1063 7.69795 15.1123 7.6884 15.1184 7.67889C15.1243 7.66956 15.1303 7.66028 15.1364 7.65107C15.1423 7.64205 15.1483 7.63303 15.1544 7.62413C15.1603 7.61549 15.1663 7.60697 15.1724 7.59845C15.1783 7.59006 15.1843 7.58174 15.1904 7.57347C15.1963 7.56531 15.2023 7.55714 15.2084 7.54909C15.2143 7.54126 15.2203 7.53356 15.2264 7.52583C15.2323 7.51821 15.2383 7.51065 15.2444 7.50314C15.2503 7.49571 15.2563 7.48829 15.2624 7.48096C15.2683 7.47382 15.2743 7.4668 15.2804 7.45976C15.2863 7.45277 15.2923 7.44577 15.2984 7.43888C15.3043 7.43213 15.3103 7.42543 15.3164 7.41875C15.3223 7.41217 15.3283 7.40564 15.3344 7.39913C15.3403 7.39272 15.3463 7.3863 15.3524 7.37997C15.3583 7.37374 15.3643 7.36762 15.3704 7.36148C15.3763 7.35538 15.3823 7.34922 15.3884 7.34321C15.3943 7.33732 15.4003 7.33157 15.4064 7.32577C15.4123 7.31999 15.4183 7.31421 15.4244 7.30851C15.4303 7.3029 15.4363 7.29741 15.4424 7.2919C15.4483 7.28642 15.4543 7.28094 15.4604 7.27553C15.4663 7.27021 15.4723 7.26496 15.4784 7.25971C15.4843 7.25451 15.4903 7.24932 15.4964 7.2442C15.5023 7.23913 15.5083 7.23411 15.5143 7.22913L15.5324 7.21439L15.5503 7.20004C15.5563 7.19534 15.5623 7.19067 15.5683 7.18604C15.5743 7.18146 15.5803 7.1769 15.5863 7.17238L15.6043 7.15907C15.6103 7.15471 15.6163 7.15038 15.6223 7.14609L15.6403 7.13341L15.6583 7.12106C15.6643 7.11701 15.6703 7.11298 15.6763 7.109L15.6943 7.09729C15.7003 7.09343 15.7063 7.08956 15.7123 7.08578C15.7183 7.08202 15.7243 7.07838 15.7303 7.07469C15.7363 7.07101 15.7423 7.0673 15.7483 7.0637C15.7543 7.06015 15.7603 7.05671 15.7663 7.05322C15.7723 7.04973 15.7783 7.04617 15.7843 7.04276C15.7903 7.03939 15.7963 7.03613 15.8023 7.03282C15.8083 7.02951 15.8143 7.02619 15.8203 7.02295C15.8263 7.01973 15.8323 7.01662 15.8383 7.01348C15.8443 7.01035 15.8503 7.00722 15.8563 7.00416L15.8743 6.9951C15.8803 6.99215 15.8863 6.98925 15.8923 6.98635C15.8983 6.98346 15.9043 6.98053 15.9104 6.97771C15.9164 6.97491 15.9224 6.97224 15.9284 6.96951C15.9344 6.96677 15.9404 6.96399 15.9464 6.96132C15.9524 6.95869 15.9584 6.95617 15.9644 6.95359C15.9704 6.95103 15.9764 6.94844 15.9824 6.94594L16.0004 6.93856L16.0184 6.93144C16.0244 6.92907 16.0304 6.92669 16.0364 6.92441C16.0424 6.92214 16.0484 6.92001 16.0544 6.9178C16.0604 6.91561 16.0664 6.91336 16.0724 6.91121C16.0784 6.90908 16.0844 6.90707 16.0904 6.90501L16.1084 6.89894C16.1144 6.89696 16.1204 6.89495 16.1264 6.89303C16.1324 6.89112 16.1384 6.88931 16.1444 6.88747C16.1504 6.88561 16.1564 6.88368 16.1624 6.8819C16.1684 6.88013 16.1744 6.87848 16.1804 6.87677C16.1864 6.87506 16.1924 6.87334 16.1984 6.8717L16.2164 6.86685C16.2224 6.86528 16.2284 6.86379 16.2344 6.86229C16.2404 6.86078 16.2464 6.85917 16.2524 6.85772C16.2584 6.85629 16.2644 6.85499 16.2704 6.8536L16.2884 6.84952L16.3064 6.84566C16.3124 6.84442 16.3184 6.84325 16.3244 6.84207C16.3304 6.84088 16.3364 6.83961 16.3424 6.83847C16.3484 6.83733 16.3544 6.83638 16.3604 6.83532L16.3784 6.83222C16.3844 6.83122 16.3904 6.8302 16.3964 6.82926C16.4024 6.82833 16.4084 6.82751 16.4144 6.82664C16.4204 6.82577 16.4264 6.82482 16.4324 6.82402C16.4384 6.82321 16.4444 6.82249 16.4504 6.82175L16.4684 6.8196C16.4744 6.81893 16.4804 6.81817 16.4864 6.81754C16.4924 6.81692 16.4984 6.81644 16.5044 6.81589L16.5224 6.81422L16.5404 6.8128C16.5464 6.81236 16.5524 6.812 16.5584 6.81162C16.5644 6.81124 16.5703 6.81076 16.5764 6.81043C16.5824 6.8101 16.5884 6.80992 16.5944 6.80966L16.6124 6.80896C16.6184 6.80875 16.6244 6.80849 16.6304 6.80835C16.6364 6.80821 16.6424 6.8082 16.6484 6.80811C16.6544 6.80801 16.6604 6.8079 16.6664 6.80787L16.6709 6.80781H16.6844H16.7024H16.7204H16.7384H16.7564H16.7744H16.7923H16.8104H16.8284H16.8464H16.8644H16.8823H16.9004H16.9183H16.9363H16.9543H16.9723H16.9903H17.0083H17.0263H17.0443H17.0623H17.0803H17.0983H17.1163H17.1343H17.1523H17.1703H17.1883H17.2063H17.2243H17.2423H17.2603H17.2784H17.2964H17.3144H17.3324H17.3504H17.3684H17.3864H17.4044H17.4224H17.4404H17.4584H17.4764H17.4944H17.5124H17.5304H17.5484H17.5664H17.5844H17.6024H17.6204H17.6384H17.6564H17.6744H17.6924H17.7104H17.7284H17.7464H17.7644H17.7824H17.8004H17.8184H17.8364H17.8544H17.8724H17.8904H17.9084H17.9264H17.9444H17.9624H17.9804H17.9984H18.0164H18.0344H18.0524H18.0704H18.0884H18.1064H18.1244H18.1424H18.1603H18.1784H18.1964H18.2144H18.2324H18.2503H18.2684H18.2863H18.3043H18.3223H18.3403H18.3583H18.3763H18.3943H18.4123H18.4303H18.4483H18.4663H18.4843H18.5023H18.5203H18.5383H18.5563H18.5743H18.5923H18.6103H18.6283H18.6463H18.6643H18.6823H18.7004H18.7184H18.7364H18.7544H18.7724H18.7904H18.8084H18.8264H18.8444H18.8624H18.8804H18.8984H18.9164H18.9344H18.9524H18.9704H18.9884H19.0064H19.0244H19.0424H19.0604H19.0784H19.0964H19.1144H19.1324H19.1504H19.1684H19.1864H19.2044H19.2224H19.2404H19.2584H19.2764H19.2944H19.3124H19.3304H19.3484H19.3664H19.3844L19.4024 6.80779Z" fill="#479951"/>
<path fill-rule="evenodd" clip-rule="evenodd" d="M4.55373 13.5609C4.54086 13.5545 4.528 13.5481 4.51514 13.5416V8.74856C4.51514 8.61336 4.52845 8.48139 4.55373 8.35399C4.55916 8.32663 4.56519 8.29953 4.57171 8.2726C4.57729 8.24955 4.5833 8.22668 4.58967 8.20396C4.59535 8.18371 4.60135 8.16363 4.60763 8.14366C4.61339 8.12539 4.61934 8.10719 4.62561 8.08915C4.63141 8.07246 4.63736 8.05587 4.64358 8.03939C4.64938 8.024 4.65538 8.00864 4.66155 7.99342C4.66738 7.97908 4.67337 7.96483 4.67951 7.95066C4.68536 7.9372 4.69136 7.92385 4.69747 7.91056C4.70332 7.89786 4.70935 7.88526 4.71545 7.87272C4.72131 7.86066 4.72731 7.8487 4.73341 7.83682C4.73929 7.82534 4.74528 7.81394 4.75137 7.80261C4.75726 7.79164 4.76325 7.78073 4.76936 7.76988C4.77526 7.75936 4.78122 7.74886 4.78732 7.73847C4.79322 7.7284 4.79922 7.71842 4.80529 7.70849C4.81117 7.69886 4.81721 7.6893 4.82325 7.67978C4.82918 7.67046 4.83514 7.66117 4.84121 7.65196C4.84718 7.64293 4.85309 7.63391 4.85919 7.62499C4.86508 7.61637 4.87112 7.60786 4.87715 7.59934C4.88309 7.59095 4.88907 7.58263 4.89513 7.57436C4.90108 7.56623 4.90702 7.55803 4.9131 7.54999C4.91901 7.54217 4.92505 7.53449 4.93106 7.52678C4.937 7.51915 4.94298 7.51156 4.94903 7.50403C4.95499 7.49662 4.96094 7.48924 4.967 7.48192C4.97292 7.47476 4.97894 7.46773 4.98497 7.46066C4.99092 7.45366 4.99688 7.44667 5.00293 7.43979C5.00885 7.43303 5.01488 7.42637 5.02089 7.4197C5.02684 7.41311 5.03283 7.40657 5.03887 7.40007C5.04482 7.39365 5.0508 7.38725 5.05684 7.38091C5.06278 7.37468 5.0688 7.36855 5.07481 7.36242C5.0808 7.35632 5.08672 7.35017 5.09278 7.34416C5.0987 7.33828 5.10474 7.33253 5.11074 7.32673C5.11672 7.32093 5.12266 7.31513 5.12871 7.30943C5.13465 7.30384 5.14068 7.29836 5.14667 7.29285C5.15265 7.28737 5.15861 7.28187 5.16465 7.27646C5.1706 7.27114 5.1766 7.26591 5.18261 7.26066C5.18857 7.25546 5.19455 7.25027 5.20058 7.24514C5.20653 7.24008 5.21254 7.23506 5.21856 7.23007C5.22452 7.22511 5.23049 7.2202 5.23652 7.21533C5.24247 7.21051 5.24848 7.20574 5.25449 7.20099C5.26046 7.19628 5.26644 7.19159 5.27245 7.18697L5.29041 7.17333C5.29638 7.16885 5.30236 7.16439 5.30839 7.15999C5.31434 7.15562 5.32035 7.1513 5.32636 7.14702C5.33233 7.14275 5.33831 7.13851 5.34432 7.13432C5.35029 7.13017 5.35629 7.12609 5.3623 7.12201C5.36826 7.11795 5.37423 7.11387 5.38026 7.10988C5.38621 7.10593 5.39222 7.10209 5.39823 7.0982C5.40422 7.09434 5.41017 7.09042 5.41619 7.08664C5.42213 7.0829 5.42816 7.07927 5.43416 7.07559C5.44015 7.0719 5.44609 7.06816 5.45213 7.06455C5.45807 7.06099 5.46412 7.05759 5.4701 7.0541C5.4761 7.0506 5.48205 7.04707 5.48808 7.04363C5.49403 7.04025 5.50004 7.03699 5.50604 7.03368C5.51202 7.03037 5.51799 7.02705 5.524 7.02381C5.52997 7.02059 5.53596 7.01744 5.54197 7.01429L5.55994 7.00501C5.56592 7.00194 5.5719 6.99889 5.57791 6.99591C5.58388 6.99294 5.58988 6.99007 5.59587 6.98716C5.60188 6.98427 5.60782 6.9813 5.61384 6.97848C5.61979 6.97566 5.62582 6.97303 5.63182 6.97029C5.6378 6.96756 5.64377 6.96478 5.64978 6.96211C5.65575 6.95947 5.66176 6.95692 5.66776 6.95435L5.68572 6.9467L5.70368 6.93929L5.72165 6.93217C5.72765 6.92982 5.73359 6.92738 5.73962 6.92508C5.74558 6.92281 5.75162 6.9207 5.7576 6.9185C5.76358 6.91629 5.76955 6.91406 5.77556 6.91191L5.79352 6.90566L5.8115 6.89959C5.81748 6.8976 5.82345 6.89557 5.82946 6.89364C5.83541 6.89174 5.84144 6.88991 5.84742 6.88807C5.85341 6.8862 5.85938 6.88431 5.86539 6.88251C5.87136 6.88073 5.87736 6.87906 5.88336 6.87734L5.90134 6.87227C5.90732 6.87062 5.91329 6.86894 5.9193 6.86736C5.92527 6.86578 5.93128 6.86433 5.93726 6.86281C5.94324 6.86129 5.94923 6.8597 5.95524 6.85825C5.9612 6.8568 5.96722 6.85544 5.9732 6.85407L5.99117 6.85C5.99716 6.84866 6.00312 6.84731 6.00913 6.84606C6.01511 6.84481 6.02112 6.84366 6.02711 6.84247C6.0331 6.84128 6.03907 6.84003 6.04508 6.8389C6.05106 6.83777 6.05705 6.83674 6.06304 6.83567L6.08102 6.83256C6.087 6.83157 6.09297 6.8305 6.09898 6.82955C6.10495 6.8286 6.11096 6.82781 6.11694 6.82692C6.12292 6.82606 6.1289 6.82513 6.13492 6.82431L6.15289 6.82197L6.17086 6.81983C6.17686 6.81913 6.18281 6.81833 6.18882 6.81769C6.19479 6.81706 6.2008 6.81659 6.20678 6.81602L6.22476 6.81437C6.23074 6.81384 6.23672 6.81333 6.24272 6.81288C6.2487 6.81242 6.2547 6.81207 6.2607 6.81168C6.26669 6.8113 6.27266 6.81084 6.27866 6.81051C6.28462 6.81016 6.29062 6.80992 6.29663 6.80965L6.3146 6.80893C6.32058 6.80871 6.32655 6.80839 6.33256 6.80824C6.33853 6.80808 6.34454 6.8081 6.35052 6.80801C6.35651 6.80791 6.3625 6.8078 6.3685 6.80777L6.37648 6.80766H6.38646H6.40444H6.4224H6.44037H6.45834H6.4763H6.49428H6.51224H6.5302H6.54818H6.56614H6.58412H6.60209H6.62005H6.63802H6.65598H6.67396H6.69192H6.70989H6.72787H6.74583H6.7638H6.78176H6.79972H6.8177H6.83566H6.85365H6.87161H6.88957H6.90754H6.9255H6.94348H6.96144H6.9794H6.99739H7.01535H7.03331H7.05128H7.06925H7.08722H7.10518H7.12315H7.14113H7.15909H7.17706H7.19503H7.21299H7.23096H7.24892H7.26691H7.28487H7.30283H7.32081H7.33877H7.35674H7.3747H7.39266H7.41065H7.42861H7.44657H7.46455H7.48251H7.50048H7.51844H7.53643H7.55439H7.57235H7.59033H7.60829H7.62625H7.64422H7.66219H7.68017H7.69813H7.71609H7.73407H7.75203H7.77001H7.78797H7.80593H7.82391H7.84187H7.85985H7.87781H7.89577H7.91375H7.93171H7.94968H7.96765H7.98561H8.00359H8.02155H8.03953H8.05749H8.07545H8.09343H8.11139H8.12937H8.14733H8.16529H8.18327H8.20123H8.21919H8.23718H8.25514H8.27311H8.29107H8.30905H8.32701H8.34497H8.36295H8.38092H8.39888H8.41685H8.43481H8.45279H8.47075H8.48871H8.5067H8.52466H8.54262H8.56059H8.57856H8.59653H8.61449H8.63247H8.65044H8.6684H8.68637H8.70434H8.7223H8.74027H8.75823H8.77622H8.79418H8.81214H8.83012H8.84808H8.86605H8.88401H8.90197H8.91995H8.93792H8.9559H8.97386H8.99182H9.00979H9.02775H9.04571H9.0637H9.08166H9.09964H9.11488V16.5114C9.11488 16.5959 9.10968 16.679 9.09964 16.7606C9.0948 16.7998 9.08872 16.8387 9.08166 16.8772C9.07629 16.9065 9.07032 16.9356 9.0637 16.9643C9.05812 16.9886 9.05215 17.0127 9.04571 17.0366C9.04006 17.0575 9.03405 17.0784 9.02775 17.0991C9.02204 17.1177 9.01603 17.1364 9.00979 17.1548C9.00402 17.1719 8.99804 17.189 8.99182 17.2059C8.98601 17.2216 8.98003 17.2372 8.97386 17.2527C8.96804 17.2674 8.96204 17.282 8.9559 17.2965C8.95005 17.3101 8.94405 17.3238 8.93792 17.3374C8.93207 17.3504 8.92608 17.3632 8.91995 17.376C8.91407 17.3882 8.90809 17.4004 8.90197 17.4125C8.8961 17.4242 8.89011 17.4358 8.88401 17.4472C8.87811 17.4584 8.87217 17.4695 8.86605 17.4806C8.86016 17.4912 8.85416 17.5017 8.84808 17.5122C8.8422 17.5223 8.83617 17.5324 8.83012 17.5424C8.82421 17.5522 8.81821 17.5619 8.81214 17.5716C8.8062 17.5811 8.80027 17.5906 8.79418 17.5998C8.78827 17.6089 8.78226 17.6179 8.77622 17.6268C8.77031 17.6356 8.76429 17.6442 8.75823 17.6529C8.7523 17.6614 8.74633 17.6698 8.74027 17.6783C8.73435 17.6864 8.72835 17.6945 8.7223 17.7026C8.71637 17.7106 8.71036 17.7184 8.70434 17.7262C8.69838 17.7339 8.69243 17.7416 8.68637 17.7492C8.68045 17.7567 8.67443 17.764 8.6684 17.7714C8.66246 17.7786 8.65648 17.7858 8.65044 17.793C8.64447 17.7999 8.63853 17.807 8.63247 17.814C8.62654 17.8208 8.6205 17.8274 8.61449 17.8342C8.60852 17.8409 8.60259 17.8475 8.59653 17.8541C8.59059 17.8606 8.58458 17.8669 8.57856 17.8733C8.5726 17.8795 8.56664 17.8858 8.56059 17.892C8.55464 17.8982 8.54866 17.9042 8.54262 17.9102C8.53668 17.9162 8.53067 17.9221 8.52466 17.928C8.51869 17.9338 8.51274 17.9396 8.5067 17.9454C8.50075 17.951 8.49472 17.9565 8.48871 17.9621C8.48273 17.9676 8.47681 17.9732 8.47075 17.9787C8.46483 17.984 8.45877 17.9892 8.45279 17.9945C8.44681 17.9997 8.44086 18.005 8.43481 18.0102C8.42888 18.0154 8.42285 18.0204 8.41685 18.0254C8.41087 18.0304 8.40492 18.0354 8.39888 18.0402C8.39294 18.0451 8.38691 18.0498 8.38092 18.0546C8.37493 18.0593 8.36899 18.0641 8.36295 18.0688C8.35701 18.0734 8.35097 18.078 8.34497 18.0824C8.33899 18.087 8.33305 18.0915 8.32701 18.096C8.32107 18.1004 8.31505 18.1046 8.30905 18.109C8.30305 18.1133 8.29711 18.1176 8.29107 18.1219C8.28514 18.1261 8.27911 18.13 8.27311 18.1342C8.26711 18.1383 8.26118 18.1424 8.25514 18.1465C8.2492 18.1505 8.24316 18.1543 8.23718 18.1582C8.23119 18.162 8.22524 18.166 8.21919 18.1698C8.21324 18.1736 8.20721 18.1772 8.20123 18.181C8.19525 18.1846 8.18929 18.1884 8.18327 18.192C8.1773 18.1956 8.1713 18.1991 8.16529 18.2026C8.15933 18.2062 8.15334 18.2096 8.14733 18.2131C8.14136 18.2165 8.13538 18.2199 8.12937 18.2233L8.11139 18.2331C8.10541 18.2364 8.09945 18.2396 8.09343 18.2427C8.08747 18.2459 8.08146 18.249 8.07545 18.2521C8.06947 18.2551 8.06351 18.2583 8.05749 18.2613C8.05154 18.2643 8.04551 18.2671 8.03953 18.27C8.03353 18.273 8.02758 18.276 8.02155 18.2788C8.0156 18.2816 8.00957 18.2843 8.00359 18.2871L7.98561 18.2952L7.96765 18.3032C7.96169 18.3058 7.95567 18.3084 7.94968 18.3109C7.94369 18.3134 7.93772 18.316 7.93171 18.3185C7.92575 18.3209 7.91974 18.3232 7.91375 18.3256C7.90775 18.3279 7.9018 18.3304 7.89577 18.3326C7.8898 18.3349 7.88381 18.3371 7.87781 18.3393L7.85985 18.346L7.84187 18.3523C7.83591 18.3544 7.82989 18.3564 7.82391 18.3584C7.81792 18.3605 7.81195 18.3625 7.80593 18.3645C7.79997 18.3664 7.79395 18.3683 7.78797 18.3701L7.77001 18.3757L7.75203 18.381C7.74606 18.3827 7.74007 18.3844 7.73407 18.3861C7.72807 18.3877 7.72211 18.3895 7.71609 18.3911C7.71014 18.3926 7.7041 18.3941 7.69813 18.3957C7.69215 18.3972 7.68617 18.3988 7.68017 18.4002L7.66219 18.4045L7.64422 18.4086C7.63823 18.4099 7.63228 18.4114 7.62625 18.4126C7.62028 18.414 7.61427 18.415 7.60829 18.4163C7.60231 18.4174 7.59632 18.4187 7.59033 18.4198L7.57235 18.4232C7.56638 18.4243 7.56039 18.4252 7.55439 18.4263C7.54839 18.4273 7.54243 18.4285 7.53643 18.4294C7.53045 18.4304 7.52444 18.4312 7.51844 18.4321L7.50048 18.4347C7.4945 18.4356 7.48852 18.4364 7.48251 18.4371C7.47654 18.438 7.47053 18.4386 7.46455 18.4393C7.45855 18.44 7.45258 18.4408 7.44657 18.4415C7.4406 18.4421 7.43461 18.4426 7.42861 18.4433L7.41065 18.4449C7.40465 18.4455 7.39869 18.4461 7.39266 18.4466C7.3867 18.447 7.38069 18.4473 7.3747 18.4477L7.35674 18.4489L7.33877 18.4499C7.3328 18.4502 7.32679 18.4504 7.32081 18.4507C7.31481 18.4509 7.30883 18.4512 7.30283 18.4514C7.29686 18.4515 7.29085 18.4516 7.28487 18.4517L7.26691 18.4519C7.26136 18.452 7.25583 18.4521 7.25024 18.4521H7.24892H7.23096H7.21299H7.19503H7.17706H7.15909H7.14113H7.12315H7.10518H7.08722H7.06925H7.05128H7.03331H7.01535H6.99739H6.9794H6.96144H6.94348H6.9255H6.90754H6.88957H6.87161H6.85365H6.83566H6.8177H6.79972H6.78176H6.7638H6.74583H6.72787H6.70989H6.69192H6.67396H6.65598H6.63802H6.62005H6.60209H6.58412H6.56614H6.54818H6.5302H6.51224H6.49428H6.4763H6.45834H6.44037H6.4224H6.40444H6.38646H6.3685H6.35052H6.33256H6.3146H6.29663H6.27866H6.2607H6.24272H6.22476H6.20678H6.18882H6.17086H6.15289H6.13492H6.11694H6.09898H6.08102H6.06304H6.04508H6.02711H6.00913H5.99117H5.9732H5.95524H5.93726H5.9193H5.90134H5.88336H5.86539H5.84742H5.82946H5.8115H5.79352H5.77556H5.7576H5.73962H5.72165H5.70368H5.68572H5.66776H5.64978H5.63182H5.61384H5.59587H5.57791H5.55994H5.54197H5.524H5.50604H5.48808H5.4701H5.45213H5.43416H5.41619H5.39823H5.38026H5.3623H5.34432H5.32636H5.30839H5.29041H5.27245H5.25449H5.23652H5.21856H5.20058H5.18261H5.16465H5.14667H5.12871H5.11074H5.09278H5.07481H5.05684H5.03887H5.02089H5.00293H4.98497H4.967H4.94903H4.93106H4.9131H4.89513H4.87715H4.85919H4.84121H4.82325H4.80529H4.78732H4.76936H4.75137H4.73341H4.71545H4.69747H4.67951H4.66155H4.64358H4.62561H4.60763H4.58967H4.57171H4.55373H4.51514V14.3621C4.51514 14.3621 4.52842 14.3659 4.55373 14.3725L4.57171 14.3772L4.58967 14.3818L4.60763 14.3863L4.62561 14.3908L4.64358 14.395L4.66155 14.3993L4.67951 14.4036L4.69747 14.4077L4.71545 14.4118L4.73341 14.4159L4.75137 14.4198L4.76936 14.4238L4.78732 14.4277L4.80529 14.4315L4.82325 14.4354L4.84121 14.4391L4.85919 14.4427L4.87715 14.4464L4.89513 14.45L4.9131 14.4536L4.93106 14.457L4.94903 14.4606L4.967 14.4639L4.98497 14.4673L5.00293 14.4707L5.02089 14.4739L5.03887 14.4771L5.05684 14.4804L5.07481 14.4835L5.09278 14.4866L5.11074 14.4897L5.12871 14.4927L5.14667 14.4957L5.16465 14.4987L5.18261 14.5015L5.20058 14.5044L5.21856 14.5072L5.23652 14.51L5.25449 14.5127L5.27245 14.5155L5.29041 14.5181L5.30839 14.5207L5.32636 14.5233L5.34432 14.5259L5.3623 14.5283L5.38026 14.5308L5.39823 14.5332L5.41619 14.5356L5.43416 14.5379L5.45213 14.5401L5.4701 14.5424L5.48808 14.5446L5.50604 14.5468L5.524 14.5489L5.54197 14.5511L5.55994 14.5531L5.57791 14.555L5.59587 14.5571L5.61384 14.559L5.63182 14.5609L5.64978 14.5627L5.66776 14.5645L5.68572 14.5663L5.70368 14.5681L5.72165 14.5697L5.73962 14.5714L5.7576 14.573L5.77556 14.5745L5.79352 14.5761L5.8115 14.5775L5.82946 14.579L5.84742 14.5805L5.86539 14.5818L5.88336 14.5831L5.90134 14.5844L5.9193 14.5856L5.93726 14.5868L5.95524 14.588L5.9732 14.5891L5.99117 14.5901L6.00913 14.5912L6.02711 14.5922L6.04508 14.5932L6.06304 14.594L6.08102 14.5949L6.09898 14.5958L6.11694 14.5965L6.13492 14.5973L6.15289 14.598L6.17086 14.5986L6.18882 14.5992L6.20678 14.5997L6.22476 14.6004L6.24272 14.6008L6.2607 14.6012L6.27866 14.6016L6.29663 14.6019L6.3146 14.6022L6.33256 14.6025L6.35052 14.6027L6.3685 14.603L6.38646 14.6031L6.40444 14.6032H6.4224H6.42934H6.44037L6.45834 14.6031L6.4763 14.603L6.49428 14.6029L6.51224 14.6027L6.5302 14.6023L6.54818 14.602L6.56614 14.6017L6.58412 14.6013L6.60209 14.6009L6.62005 14.6002L6.63802 14.5997L6.65598 14.5991L6.67396 14.5985L6.69192 14.5976L6.70989 14.5969L6.72787 14.596L6.74583 14.5952L6.7638 14.5942L6.78176 14.5931L6.79972 14.592L6.8177 14.5909L6.83566 14.5897L6.85365 14.5884L6.87161 14.587L6.88957 14.5857L6.90754 14.5841L6.9255 14.5825L6.94348 14.5809L6.96144 14.5793L6.9794 14.5775L6.99739 14.5757L7.01535 14.5737L7.03331 14.5718L7.05128 14.5697L7.06925 14.5675L7.08722 14.5654L7.10518 14.5632L7.12315 14.5608L7.14113 14.5583L7.15909 14.5558L7.17706 14.5532C7.18312 14.5522 7.18901 14.5513 7.19503 14.5504L7.21299 14.5475L7.23096 14.5447L7.24892 14.5418C7.25497 14.5408 7.2609 14.5396 7.26691 14.5386L7.28487 14.5355C7.29082 14.5344 7.29692 14.5334 7.30283 14.5323C7.30889 14.5312 7.31478 14.53 7.32081 14.5289L7.33877 14.5254L7.35674 14.5219L7.3747 14.5182C7.38074 14.517 7.38667 14.5157 7.39266 14.5144L7.41065 14.5106L7.42861 14.5066C7.43468 14.5052 7.44056 14.5038 7.44657 14.5024L7.46455 14.4982C7.4705 14.4967 7.4766 14.4955 7.48251 14.494C7.48858 14.4924 7.49447 14.4909 7.50048 14.4894L7.51844 14.4848C7.52441 14.4833 7.5305 14.4818 7.53643 14.4801C7.54247 14.4786 7.54841 14.4769 7.55439 14.4752L7.57235 14.4702C7.57833 14.4686 7.58441 14.467 7.59033 14.4652C7.59637 14.4636 7.60231 14.4617 7.60829 14.4599L7.62625 14.4545C7.63223 14.4527 7.6383 14.451 7.64422 14.4491L7.66219 14.4434L7.68017 14.4375C7.68614 14.4356 7.69222 14.4337 7.69813 14.4317L7.71609 14.4255L7.73407 14.4191C7.74004 14.417 7.74614 14.4149 7.75203 14.4127C7.7581 14.4106 7.76399 14.4083 7.77001 14.406L7.78797 14.3992C7.79395 14.3968 7.8 14.3946 7.80593 14.3922C7.81201 14.3898 7.81792 14.3873 7.82391 14.3849C7.82991 14.3825 7.83595 14.38 7.84187 14.3776L7.85985 14.37L7.87781 14.3621C7.88378 14.3595 7.88988 14.3569 7.89577 14.3543C7.90186 14.3515 7.90773 14.3487 7.91375 14.3459L7.93171 14.3374L7.94968 14.3288C7.95572 14.3259 7.96169 14.3227 7.96765 14.3198C7.97364 14.3168 7.97972 14.3138 7.98561 14.3108C7.9917 14.3075 7.99759 14.3043 8.00359 14.3011C8.00959 14.298 8.01564 14.2947 8.02155 14.2915C8.02762 14.2882 8.03354 14.2847 8.03953 14.2814C8.04555 14.278 8.05155 14.2746 8.05749 14.2711C8.06353 14.2676 8.06951 14.2641 8.07545 14.2606C8.08151 14.2569 8.08748 14.2533 8.09343 14.2495C8.09945 14.2459 8.10547 14.2421 8.11139 14.2384C8.11747 14.2345 8.1234 14.2306 8.12937 14.2267C8.13538 14.2227 8.14142 14.2188 8.14733 14.2148C8.1534 14.2108 8.15933 14.2065 8.16529 14.2023C8.1713 14.1982 8.17736 14.194 8.18327 14.1897C8.18935 14.1854 8.19526 14.1809 8.20123 14.1765C8.20724 14.172 8.2133 14.1675 8.21919 14.163C8.22529 14.1583 8.23122 14.1536 8.23718 14.1488C8.24322 14.144 8.24923 14.1392 8.25514 14.1343C8.26119 14.1293 8.26717 14.1243 8.27311 14.1192C8.27917 14.1141 8.28515 14.1089 8.29107 14.1036C8.29711 14.0983 8.30316 14.093 8.30905 14.0875C8.31515 14.0819 8.32106 14.0763 8.32701 14.0706C8.33304 14.0648 8.33909 14.0591 8.34497 14.0533C8.35107 14.0472 8.35702 14.0412 8.36295 14.035C8.36902 14.0288 8.37501 14.0224 8.38092 14.0161C8.38696 14.0096 8.39301 14.0032 8.39888 13.9966C8.40499 13.9897 8.41092 13.9827 8.41685 13.9758C8.42295 13.9686 8.42892 13.9614 8.43481 13.9541C8.44089 13.9467 8.44693 13.9392 8.45279 13.9316C8.45888 13.9237 8.46489 13.9159 8.47075 13.9079C8.47688 13.8995 8.48282 13.8912 8.48871 13.8826C8.49484 13.8739 8.50081 13.865 8.5067 13.8562C8.51283 13.8468 8.51881 13.8375 8.52466 13.8281C8.53079 13.8182 8.53679 13.8083 8.54262 13.7983C8.54876 13.7876 8.55478 13.777 8.56059 13.7663C8.56677 13.7548 8.57275 13.7434 8.57856 13.7318C8.58476 13.7195 8.59074 13.707 8.59653 13.6945C8.60277 13.6811 8.60873 13.6674 8.61449 13.6538C8.62074 13.6389 8.62675 13.6239 8.63247 13.6088C8.63877 13.5922 8.64478 13.5754 8.65044 13.5585C8.65685 13.5392 8.6628 13.5198 8.6684 13.5002C8.67493 13.4773 8.68091 13.4542 8.68637 13.4309C8.69315 13.4019 8.69916 13.3726 8.70434 13.3431C8.71203 13.299 8.71797 13.2542 8.7223 13.2088C8.72834 13.1456 8.73128 13.0812 8.73128 13.0158V10.764H8.7223H8.70434H8.68637H8.6684H8.65044H8.63247H8.61449H8.59653H8.57856H8.56059H8.54262H8.52466H8.5067H8.48871H8.47075H8.45279H8.43481H8.41685H8.39888H8.38092H8.36295H8.34497H8.32701H8.30905H8.29107H8.27311H8.25514H8.23718H8.21919H8.20123H8.18327H8.16529H8.14733H8.12937H8.11139H8.09343H8.07545H8.05749H8.03953H8.02155H8.00359H7.98561H7.96765H7.94968H7.93171H7.91375H7.89577H7.87781H7.85985H7.84187H7.82391H7.80593H7.78797H7.77001H7.75203H7.73407H7.71609H7.69813H7.68017H7.66219H7.64422H7.62625H7.60829H7.59033H7.57235H7.55439H7.53643H7.51844H7.50048H7.48251H7.46455H7.44657H7.42861H7.41065H7.39266H7.3747H7.35674H7.33877H7.32081H7.30283H7.28487H7.26691H7.24892H7.23096H7.21299H7.19503H7.17706H7.15909H7.14113H7.12751V13.0158C7.12751 13.051 7.12603 13.0857 7.12315 13.1197C7.11948 13.1631 7.11346 13.2052 7.10518 13.2464C7.10007 13.2717 7.09407 13.2966 7.08722 13.3211C7.08176 13.3406 7.07579 13.3597 7.06925 13.3785C7.06367 13.3945 7.05765 13.4104 7.05128 13.4259C7.0456 13.4397 7.03962 13.4535 7.03331 13.4669C7.02757 13.4792 7.02161 13.4913 7.01535 13.5032C7.00959 13.5142 7.00356 13.5249 6.99739 13.5356C6.99158 13.5456 6.9856 13.5555 6.9794 13.5651C6.97358 13.5743 6.96759 13.5834 6.96144 13.5922C6.95559 13.6007 6.94964 13.6091 6.94348 13.6173C6.93763 13.6251 6.93162 13.6329 6.9255 13.6405C6.91964 13.6477 6.91366 13.6548 6.90754 13.6619C6.90167 13.6688 6.89568 13.6756 6.88957 13.6822C6.88368 13.6886 6.87771 13.6949 6.87161 13.7012C6.86571 13.7071 6.85973 13.7131 6.85365 13.7189C6.84775 13.7246 6.84173 13.7301 6.83566 13.7357C6.82977 13.741 6.82377 13.7462 6.8177 13.7514C6.81179 13.7564 6.80578 13.7614 6.79972 13.7663C6.79382 13.771 6.78782 13.7757 6.78176 13.7804C6.77584 13.7848 6.76986 13.7893 6.7638 13.7937C6.75788 13.798 6.7519 13.8021 6.74583 13.8063C6.7399 13.8102 6.73392 13.8142 6.72787 13.8182C6.72194 13.822 6.71595 13.8258 6.70989 13.8294C6.70397 13.8331 6.69796 13.8366 6.69192 13.8401C6.686 13.8436 6.68 13.8469 6.67396 13.8502C6.66802 13.8535 6.66204 13.8566 6.65598 13.8597C6.65005 13.8629 6.64406 13.8659 6.63802 13.8689C6.63207 13.8718 6.6261 13.8747 6.62005 13.8775C6.61409 13.8802 6.60813 13.883 6.60209 13.8857C6.59616 13.8883 6.59015 13.8908 6.58412 13.8933C6.57819 13.8958 6.57218 13.8982 6.56614 13.9005C6.56019 13.9029 6.55422 13.9051 6.54818 13.9073C6.54223 13.9095 6.53624 13.9117 6.5302 13.9138C6.52426 13.9159 6.51827 13.918 6.51224 13.9199C6.5063 13.9218 6.50029 13.9237 6.49428 13.9256C6.48833 13.9273 6.48233 13.9292 6.4763 13.9309C6.47034 13.9326 6.46437 13.9343 6.45834 13.936C6.45239 13.9375 6.4464 13.9391 6.44037 13.9406C6.43443 13.9421 6.42842 13.9435 6.4224 13.9449C6.41645 13.9463 6.41046 13.9476 6.40444 13.949C6.39847 13.9502 6.3925 13.9515 6.38646 13.9527C6.38051 13.9539 6.37451 13.9549 6.3685 13.9561C6.36253 13.9571 6.35655 13.9583 6.35052 13.9593L6.33256 13.9621C6.32661 13.9631 6.32061 13.9639 6.3146 13.9646C6.30864 13.9655 6.30267 13.9663 6.29663 13.967L6.27866 13.9691C6.2727 13.9697 6.26671 13.9704 6.2607 13.9709C6.25471 13.9714 6.24875 13.972 6.24272 13.9725C6.23677 13.973 6.23077 13.9734 6.22476 13.9738C6.21879 13.9742 6.2128 13.9745 6.20678 13.9748C6.2008 13.9751 6.19485 13.9756 6.18882 13.9758C6.18287 13.976 6.17686 13.9762 6.17086 13.9764L6.15289 13.9768C6.14692 13.9769 6.14093 13.9769 6.13492 13.9769L6.12816 13.977H6.11694L6.09898 13.9768L6.08102 13.9766L6.06304 13.9762L6.04508 13.9757L6.02711 13.9751L6.00913 13.9743L5.99117 13.9735L5.9732 13.9725L5.95524 13.9714L5.93726 13.9701L5.9193 13.9689L5.90134 13.9674L5.88336 13.9659L5.86539 13.9642L5.84742 13.9624L5.82946 13.9605L5.8115 13.9585L5.79352 13.9563L5.77556 13.954L5.7576 13.9517L5.73962 13.9492L5.72165 13.9466L5.70368 13.9439L5.68572 13.9411L5.66776 13.9382L5.64978 13.9351L5.63182 13.932L5.61384 13.9288L5.59587 13.9254L5.57791 13.9219L5.55994 13.9184L5.54197 13.9146L5.524 13.9109L5.50604 13.9069L5.48808 13.903L5.4701 13.8989L5.45213 13.8946L5.43416 13.8904L5.41619 13.8859L5.39823 13.8814L5.38026 13.8767L5.3623 13.872L5.34432 13.8671L5.32636 13.8622L5.30839 13.8572L5.29041 13.8521L5.27245 13.8468L5.25449 13.8415L5.23652 13.8361L5.21856 13.8306L5.20058 13.8249L5.18261 13.8192L5.16465 13.8134L5.14667 13.8074L5.12871 13.8014L5.11074 13.7952L5.09278 13.7891L5.07481 13.7827L5.05684 13.7764L5.03887 13.7699L5.02089 13.7633L5.00293 13.7566L4.98497 13.7498L4.967 13.743L4.94903 13.736L4.93106 13.729L4.9131 13.7218L4.89513 13.7146L4.87715 13.7073L4.85919 13.6998L4.84121 13.6923L4.82325 13.6848L4.80529 13.6771L4.78732 13.6694L4.76936 13.6615L4.75137 13.6536L4.73341 13.6456L4.71545 13.6375L4.69747 13.6293L4.67951 13.621L4.66155 13.6126L4.64358 13.6042L4.62561 13.5958L4.60763 13.5871L4.58967 13.5785L4.57171 13.5697L4.55373 13.5609Z" fill="#265797"/>
<path fill-rule="evenodd" clip-rule="evenodd" d="M9.7754 11.2561C9.7623 11.2671 9.74941 11.2783 9.73682 11.2895V8.74869C9.73682 8.61356 9.75014 8.48168 9.7754 8.35432C9.78083 8.32698 9.78684 8.29989 9.79336 8.27298C9.79895 8.2499 9.80497 8.227 9.81134 8.20425C9.81702 8.18399 9.82302 8.16387 9.82931 8.14389C9.83505 8.12563 9.84102 8.10747 9.84727 8.08946C9.85306 8.07276 9.85904 8.05616 9.86526 8.03968C9.87108 8.02428 9.87704 8.00896 9.88322 7.99374C9.88905 7.9794 9.89503 7.96515 9.90118 7.95097C9.90701 7.93751 9.91304 7.92414 9.91916 7.91086C9.925 7.89815 9.93101 7.88557 9.93712 7.87303C9.94298 7.86098 9.94899 7.84903 9.95509 7.83712C9.96097 7.82565 9.96697 7.81425 9.97305 7.80292C9.97894 7.79194 9.98493 7.78101 9.99103 7.77018C9.9969 7.75965 10.0029 7.74917 10.009 7.73876C10.0149 7.72872 10.0209 7.71874 10.027 7.70881C10.0329 7.69916 10.0389 7.68962 10.0449 7.68008C10.0509 7.67075 10.0568 7.66148 10.0629 7.65227C10.0688 7.64324 10.0748 7.6342 10.0809 7.62529C10.0868 7.61666 10.0928 7.60817 10.0988 7.59966C10.1048 7.59127 10.1108 7.58294 10.1168 7.57466C10.1228 7.56651 10.1287 7.55834 10.1348 7.5503C10.1407 7.54249 10.1467 7.53479 10.1527 7.52707C10.1587 7.51945 10.1647 7.51185 10.1707 7.50434C10.1767 7.49693 10.1826 7.48953 10.1887 7.48222C10.1946 7.47508 10.2006 7.46803 10.2066 7.46098C10.2126 7.454 10.2186 7.44698 10.2246 7.44007C10.2305 7.43331 10.2366 7.42664 10.2426 7.41998C10.2485 7.4134 10.2545 7.40687 10.2605 7.40035C10.2665 7.39394 10.2725 7.38753 10.2785 7.3812C10.2844 7.37499 10.2904 7.36885 10.2965 7.36272C10.3024 7.35662 10.3084 7.35047 10.3144 7.34445C10.3204 7.33856 10.3264 7.33282 10.3324 7.32701C10.3384 7.32122 10.3443 7.31542 10.3504 7.30972C10.3563 7.30413 10.3623 7.29864 10.3683 7.29313C10.3743 7.28763 10.3803 7.28215 10.3863 7.27674C10.3923 7.27142 10.3983 7.26619 10.4043 7.26094C10.4102 7.25574 10.4162 7.25053 10.4222 7.2454C10.4282 7.24033 10.4342 7.23532 10.4402 7.23033C10.4462 7.22539 10.4522 7.22046 10.4582 7.21558C10.4641 7.21077 10.4701 7.20601 10.4761 7.20126C10.4821 7.19655 10.4881 7.19187 10.4941 7.18724C10.5001 7.18264 10.5061 7.1781 10.5121 7.17359C10.518 7.16912 10.524 7.16465 10.53 7.16024C10.536 7.15588 10.542 7.15157 10.548 7.14727C10.554 7.143 10.56 7.13875 10.566 7.13456C10.5719 7.13042 10.5779 7.12633 10.584 7.12225C10.5899 7.11818 10.5959 7.11412 10.6019 7.11013C10.6079 7.10618 10.6139 7.10232 10.6199 7.09845C10.6259 7.09458 10.6318 7.09067 10.6379 7.08688C10.6438 7.08313 10.6498 7.07949 10.6558 7.07581C10.6618 7.07213 10.6678 7.06838 10.6738 7.06477C10.6797 7.06122 10.6858 7.0578 10.6918 7.0543C10.6978 7.05081 10.7037 7.04729 10.7097 7.04388C10.7157 7.04049 10.7217 7.03723 10.7277 7.03391C10.7337 7.03059 10.7396 7.02728 10.7457 7.02403L10.7637 7.01451L10.7817 7.00522C10.7877 7.00217 10.7936 6.99909 10.7997 6.99612C10.8056 6.99316 10.8116 6.99028 10.8176 6.98738C10.8236 6.98449 10.8296 6.98151 10.8356 6.97868C10.8415 6.97588 10.8476 6.97323 10.8536 6.9705C10.8596 6.96777 10.8655 6.96499 10.8715 6.96231C10.8775 6.95968 10.8835 6.95712 10.8895 6.95454L10.9075 6.9469C10.9134 6.9444 10.9194 6.94191 10.9254 6.93947C10.9314 6.93704 10.9374 6.93471 10.9434 6.93235C10.9494 6.92999 10.9553 6.92755 10.9614 6.92526C10.9673 6.92299 10.9734 6.92088 10.9793 6.91868C10.9853 6.91647 10.9913 6.91424 10.9973 6.91209C11.0033 6.90995 11.0093 6.9079 11.0153 6.90583L11.0332 6.89976C11.0392 6.89778 11.0452 6.89574 11.0512 6.8938C11.0572 6.8919 11.0632 6.89009 11.0692 6.88825C11.0752 6.88639 11.0811 6.88447 11.0871 6.88267C11.0931 6.88089 11.0991 6.87923 11.1051 6.8775L11.1231 6.87243C11.1291 6.87078 11.135 6.8691 11.141 6.86752C11.147 6.86595 11.153 6.86448 11.159 6.86296C11.165 6.86144 11.171 6.85985 11.177 6.85839C11.183 6.85695 11.189 6.85559 11.1949 6.85421L11.2129 6.85015C11.2189 6.84882 11.2249 6.84746 11.2309 6.8462C11.2368 6.84495 11.2429 6.84381 11.2489 6.84262C11.2548 6.84142 11.2608 6.84017 11.2668 6.83903L11.2848 6.8358L11.3028 6.83271C11.3088 6.8317 11.3147 6.83063 11.3207 6.82969C11.3267 6.82874 11.3327 6.82795 11.3387 6.82706C11.3447 6.82619 11.3507 6.82527 11.3567 6.82445L11.3746 6.8221L11.3926 6.81997C11.3986 6.81926 11.4046 6.81846 11.4106 6.81782C11.4165 6.81719 11.4225 6.81672 11.4285 6.81615L11.4465 6.8145C11.4525 6.81397 11.4585 6.81346 11.4645 6.81301C11.4704 6.81256 11.4764 6.8122 11.4824 6.81181C11.4884 6.81143 11.4944 6.81098 11.5004 6.81064C11.5064 6.81029 11.5124 6.81006 11.5184 6.80978L11.5363 6.80906C11.5423 6.80884 11.5483 6.80852 11.5543 6.80837C11.5603 6.80821 11.5663 6.80823 11.5723 6.80814C11.5783 6.80804 11.5842 6.80793 11.5902 6.8079L11.5982 6.80779H11.6082H11.6262H11.6441H11.6621H11.6801H11.698H11.716H11.734H11.752H11.7699H11.7879H11.8059H11.8238H11.8418H11.8597H11.8777H11.8957H11.9137H11.9316H11.9496H11.9676H11.9855H12.0035H12.0215H12.0394H12.0574H12.0754H12.0933H12.1113H12.1293H12.1473H12.1653H12.1833H12.2012H12.2192H12.2372H12.2551H12.2731H12.2911H12.309H12.327H12.345H12.3629H12.3809H12.3989H12.4168H12.4348H12.4528H12.4708H12.4887H12.5067H12.5247H12.5426H12.5606H12.5785H12.5965H12.6145H12.6325H12.6504H12.6684H12.6864H12.7043H12.7223H12.7403H12.7582H12.7762H12.7942H12.8121H12.8301H12.8481H12.866H12.884H12.902H12.9199H12.9379H12.9559H12.9738H12.9918H13.0098H13.0277H13.0457H13.0637H13.0816H13.0996H13.1176H13.1356H13.1535H13.1715H13.1895H13.2074H13.2254H13.2434H13.2613H13.2793H13.2973H13.3152H13.3332H13.3512H13.3691H13.3871H13.4051H13.423H13.441H13.459H13.4769H13.4949H13.5129H13.5309H13.5489H13.5669H13.5848H13.6028H13.6208H13.6388H13.6567H13.6747H13.6927H13.7106H13.7286H13.7466H13.7645H13.7825H13.8005H13.8184H13.8364H13.8544H13.8723H13.8903H13.9083H13.9262H13.9442H13.9622H13.9801H13.9981H14.0161H14.034H14.052H14.07H14.0879H14.1059H14.1239H14.1418H14.1598H14.1778H14.1957H14.2137H14.2317H14.2496H14.2676H14.2856H14.3036H14.3215H14.3367V16.5115C14.3367 16.5959 14.3316 16.679 14.3215 16.7606C14.3167 16.7998 14.3106 16.8387 14.3036 16.8771C14.2982 16.9065 14.2922 16.9356 14.2856 16.9643C14.28 16.9886 14.274 17.0128 14.2676 17.0366C14.262 17.0576 14.256 17.0784 14.2496 17.0991C14.2439 17.1179 14.2379 17.1364 14.2317 17.1548C14.2259 17.1719 14.2199 17.189 14.2137 17.2059C14.2079 17.2216 14.2019 17.2372 14.1957 17.2528C14.1899 17.2674 14.1839 17.282 14.1778 17.2965C14.1719 17.3103 14.1659 17.3238 14.1598 17.3373C14.1539 17.3504 14.148 17.3632 14.1418 17.376C14.136 17.3883 14.13 17.4005 14.1239 17.4125C14.118 17.4242 14.112 17.4358 14.1059 17.4473C14.1 17.4585 14.0941 17.4696 14.0879 17.4806C14.0821 17.4912 14.076 17.5017 14.07 17.5122C14.0641 17.5223 14.0581 17.5324 14.052 17.5424C14.0461 17.5522 14.0401 17.562 14.034 17.5716C14.0281 17.5811 14.0222 17.5906 14.0161 17.5999C14.0102 17.609 14.0041 17.618 13.9981 17.6268C13.9922 17.6356 13.9862 17.6443 13.9801 17.653C13.9742 17.6614 13.9682 17.6699 13.9622 17.6783C13.9562 17.6865 13.9502 17.6945 13.9442 17.7026C13.9383 17.7106 13.9323 17.7184 13.9262 17.7262C13.9203 17.7339 13.9143 17.7416 13.9083 17.7492C13.9023 17.7567 13.8963 17.764 13.8903 17.7714C13.8844 17.7786 13.8784 17.7858 13.8723 17.793C13.8664 17.7999 13.8604 17.807 13.8544 17.814C13.8484 17.8208 13.8424 17.8274 13.8364 17.8342C13.8304 17.8409 13.8245 17.8475 13.8184 17.8541C13.8125 17.8606 13.8065 17.8669 13.8005 17.8733C13.7945 17.8795 13.7885 17.8858 13.7825 17.892C13.7765 17.8982 13.7706 17.9042 13.7645 17.9103C13.7586 17.9162 13.7526 17.9221 13.7466 17.928C13.7406 17.9338 13.7346 17.9396 13.7286 17.9454C13.7226 17.9511 13.7166 17.9566 13.7106 17.9621C13.7046 17.9676 13.6987 17.9733 13.6927 17.9787C13.6867 17.9841 13.6807 17.9893 13.6747 17.9945C13.6687 17.9998 13.6628 18.0051 13.6567 18.0103C13.6508 18.0154 13.6447 18.0204 13.6388 18.0254C13.6328 18.0304 13.6268 18.0354 13.6208 18.0404C13.6148 18.0451 13.6088 18.0498 13.6028 18.0546C13.5968 18.0594 13.5909 18.0642 13.5848 18.0689C13.5789 18.0735 13.5729 18.078 13.5669 18.0825C13.5609 18.087 13.5549 18.0916 13.5489 18.0961C13.543 18.1005 13.5369 18.1047 13.5309 18.109C13.525 18.1134 13.5189 18.1176 13.5129 18.1219C13.5069 18.1261 13.5009 18.1301 13.4949 18.1342C13.4889 18.1384 13.483 18.1425 13.4769 18.1465C13.471 18.1505 13.465 18.1543 13.459 18.1583C13.453 18.1621 13.447 18.1661 13.441 18.1699C13.4351 18.1737 13.429 18.1773 13.423 18.181C13.4171 18.1847 13.4111 18.1885 13.4051 18.192C13.3991 18.1957 13.3931 18.1992 13.3871 18.2028L13.3691 18.2132L13.3512 18.2233L13.3332 18.2332C13.3272 18.2364 13.3213 18.2396 13.3152 18.2429C13.3093 18.246 13.3033 18.249 13.2973 18.2521C13.2913 18.2553 13.2853 18.2584 13.2793 18.2614C13.2734 18.2644 13.2673 18.2672 13.2613 18.2701C13.2553 18.2731 13.2494 18.2761 13.2434 18.2789C13.2374 18.2817 13.2314 18.2844 13.2254 18.2872L13.2074 18.2954L13.1895 18.3033L13.1715 18.311C13.1655 18.3135 13.1595 18.3161 13.1535 18.3185C13.1476 18.321 13.1415 18.3233 13.1356 18.3256C13.1296 18.328 13.1236 18.3304 13.1176 18.3328C13.1116 18.335 13.1056 18.3372 13.0996 18.3394L13.0816 18.3461L13.0637 18.3524C13.0577 18.3545 13.0517 18.3565 13.0457 18.3585C13.0397 18.3606 13.0338 18.3626 13.0277 18.3646C13.0218 18.3665 13.0158 18.3683 13.0098 18.3701L12.9918 18.3758L12.9738 18.3811C12.9679 18.3829 12.9619 18.3844 12.9559 18.3861C12.9499 18.3878 12.9439 18.3895 12.9379 18.3912C12.9319 18.3928 12.9259 18.3942 12.9199 18.3958C12.914 18.3973 12.908 18.3988 12.902 18.4004L12.884 18.4046L12.866 18.4087C12.86 18.41 12.8541 18.4115 12.8481 18.4128C12.8421 18.414 12.8361 18.4151 12.8301 18.4164L12.8121 18.4199L12.7942 18.4233C12.7882 18.4244 12.7822 18.4254 12.7762 18.4264C12.7702 18.4274 12.7642 18.4286 12.7582 18.4295C12.7523 18.4305 12.7463 18.4313 12.7403 18.4322L12.7223 18.4348C12.7163 18.4357 12.7103 18.4365 12.7043 18.4372C12.6984 18.4381 12.6924 18.4387 12.6864 18.4394C12.6804 18.4401 12.6744 18.4409 12.6684 18.4416C12.6624 18.4422 12.6564 18.4428 12.6504 18.4434L12.6325 18.445C12.6265 18.4456 12.6205 18.4462 12.6145 18.4467C12.6085 18.4471 12.6025 18.4474 12.5965 18.4479L12.5785 18.449L12.5606 18.45C12.5546 18.4504 12.5486 18.4505 12.5426 18.4508C12.5366 18.451 12.5306 18.4513 12.5247 18.4515C12.5187 18.4516 12.5127 18.4517 12.5067 18.4518L12.4887 18.452C12.4831 18.4521 12.4776 18.4522 12.4719 18.4522H12.4708H12.4528H12.4348H12.4168H12.3989H12.3809H12.3629H12.345H12.327H12.309H12.2911H12.2731H12.2551H12.2372H12.2192H12.2012H12.1833H12.1653H12.1473H12.1293H12.1113H12.0933H12.0754H12.0574H12.0394H12.0215H12.0035H11.9855H11.9676H11.9496H11.9316H11.9137H11.8957H11.8777H11.8597H11.8418H11.8238H11.8059H11.7879H11.7699H11.752H11.734H11.716H11.698H11.6801H11.6621H11.6441H11.6262H11.6082H11.5902H11.5723H11.5543H11.5363H11.5184H11.5004H11.4824H11.4645H11.4465H11.4285H11.4106H11.3926H11.3746H11.3567H11.3387H11.3207H11.3028H11.2848H11.2668H11.2489H11.2309H11.2129H11.1949H11.177H11.159H11.141H11.1231H11.1051H11.0871H11.0692H11.0512H11.0332H11.0153H10.9973H10.9793H10.9614H10.9434H10.9254H10.9075H10.8895H10.8715H10.8536H10.8356H10.8176H10.7997H10.7817H10.7637H10.7457H10.7277H10.7097H10.6918H10.6738H10.6558H10.6379H10.6199H10.6019H10.584H10.566H10.548H10.53H10.5121H10.4941H10.4761H10.4582H10.4402H10.4222H10.4043H10.3863H10.3683H10.3504H10.3324H10.3144H10.2965H10.2785H10.2605H10.2426H10.2246H10.2066H10.1887H10.1707H10.1527H10.1348H10.1168H10.0988H10.0809H10.0629H10.0449H10.027H10.009H9.99103H9.97305H9.95509H9.93712H9.91916H9.90118H9.88322H9.86526H9.84727H9.82931H9.81134H9.79336H9.7754H9.73682V13.9713C9.74941 13.9825 9.7623 13.9937 9.7754 14.0047C9.78134 14.0097 9.78733 14.0146 9.79336 14.0196C9.79931 14.0245 9.80529 14.0293 9.81134 14.0342C9.8173 14.0389 9.82325 14.0437 9.82931 14.0484C9.83523 14.053 9.84126 14.0575 9.84727 14.0621C9.85321 14.0666 9.85923 14.0711 9.86526 14.0756C9.87121 14.0799 9.87718 14.0843 9.88322 14.0887L9.90118 14.1015C9.90712 14.1057 9.91313 14.1098 9.91916 14.114L9.93712 14.1262C9.94307 14.1301 9.94905 14.1342 9.95509 14.1382C9.96101 14.142 9.96704 14.1459 9.97305 14.1497L9.99103 14.1611C9.997 14.1648 10.003 14.1686 10.009 14.1722C10.0149 14.1759 10.0209 14.1794 10.027 14.183L10.0449 14.1937L10.0629 14.204L10.0809 14.2141C10.0868 14.2174 10.0928 14.2208 10.0988 14.2241C10.1048 14.2273 10.1108 14.2306 10.1168 14.2337L10.1348 14.2432L10.1527 14.2525L10.1707 14.2615C10.1767 14.2645 10.1826 14.2675 10.1887 14.2705L10.2066 14.2791L10.2246 14.2876L10.2426 14.296L10.2605 14.3041L10.2785 14.3121L10.2965 14.3199L10.3144 14.3275L10.3324 14.335L10.3504 14.3424L10.3683 14.3495C10.3743 14.3519 10.3803 14.3543 10.3863 14.3566L10.4043 14.3634C10.4103 14.3657 10.4162 14.368 10.4222 14.3703C10.4282 14.3724 10.4342 14.3745 10.4402 14.3767L10.4582 14.3833L10.4761 14.3895C10.4821 14.3916 10.4881 14.3937 10.4941 14.3958C10.5 14.3979 10.5061 14.3997 10.5121 14.4018L10.53 14.4078L10.548 14.4135L10.566 14.4192L10.584 14.4247L10.6019 14.4303L10.6199 14.4356L10.6379 14.4408L10.6558 14.4459L10.6738 14.4508L10.6918 14.4558L10.7097 14.4605L10.7277 14.4651L10.7457 14.4697L10.7637 14.4742L10.7817 14.4786L10.7997 14.4829L10.8176 14.487L10.8356 14.4911L10.8536 14.4951L10.8715 14.499L10.8895 14.5029L10.9075 14.5065L10.9254 14.5101L10.9434 14.5137L10.9614 14.5171L10.9793 14.5206L10.9973 14.5238L11.0153 14.527L11.0332 14.5301L11.0512 14.5332L11.0692 14.5362L11.0871 14.539L11.1051 14.5419L11.1231 14.5446L11.141 14.5473L11.159 14.5499L11.177 14.5524L11.1949 14.5548L11.2129 14.5572L11.2309 14.5595L11.2489 14.5618L11.2668 14.564L11.2848 14.5661L11.3028 14.5682L11.3207 14.57L11.3387 14.572L11.3567 14.5739L11.3746 14.5757L11.3926 14.5774L11.4106 14.579L11.4285 14.5807L11.4465 14.5822L11.4645 14.5837L11.4824 14.585L11.5004 14.5865L11.5184 14.5878L11.5363 14.589L11.5543 14.5903L11.5723 14.5913L11.5902 14.5924L11.6082 14.5935L11.6262 14.5944L11.6441 14.5954L11.6621 14.5963L11.6801 14.597L11.698 14.5978L11.716 14.5986L11.734 14.5991L11.752 14.5997L11.7699 14.6004L11.7879 14.6009L11.8059 14.6013L11.8238 14.6018L11.8418 14.6021L11.8597 14.6024L11.8777 14.6028L11.8957 14.603L11.9137 14.6031L11.9316 14.6033L11.9496 14.6034H11.9676H11.9855H12.0035L12.0215 14.6033L12.0394 14.6032L12.0574 14.603L12.0754 14.6028L12.0933 14.6025L12.1113 14.6022L12.1293 14.6018L12.1473 14.6015L12.1653 14.6011L12.1833 14.6006L12.2012 14.6001L12.2192 14.5995L12.2372 14.599L12.2551 14.5984L12.2731 14.5978L12.2911 14.5971L12.309 14.5963L12.327 14.5956L12.345 14.5947L12.3538 14.5943L12.3629 14.5939L12.3809 14.593L12.3989 14.592L12.4168 14.591L12.4348 14.5898L12.4528 14.5887L12.4708 14.5874L12.4887 14.5862L12.5067 14.5847L12.5247 14.5834L12.5426 14.5819L12.5606 14.5804L12.5785 14.5788L12.5965 14.5771L12.6145 14.5755L12.6325 14.5737L12.6504 14.5719L12.6684 14.57L12.6864 14.5682L12.7043 14.5661L12.7223 14.5641L12.7403 14.562L12.7582 14.5599L12.7762 14.5578L12.7942 14.5556L12.8121 14.5534L12.8301 14.5511L12.8481 14.5487L12.866 14.5463L12.884 14.5439L12.902 14.5414L12.9199 14.5389L12.9379 14.5363L12.9559 14.5337L12.9738 14.5311L12.9918 14.5284L13.0098 14.5257L13.0277 14.5229L13.0457 14.52L13.0637 14.5172L13.0816 14.5143L13.0996 14.5114L13.1176 14.5084L13.1356 14.5054L13.1535 14.5023L13.1715 14.4992L13.1895 14.4961L13.2074 14.493L13.2254 14.4897L13.2434 14.4865L13.2613 14.4833L13.2793 14.4799L13.2973 14.4766L13.3152 14.4732L13.3332 14.4697L13.3512 14.4663L13.3691 14.4628L13.3871 14.4592L13.4051 14.4557L13.423 14.4521L13.441 14.4485L13.459 14.4447L13.4769 14.4411L13.4949 14.4373L13.5129 14.4335L13.5309 14.4296L13.5489 14.4258L13.5669 14.4219L13.5848 14.418L13.6028 14.414L13.6208 14.4099L13.6388 14.4059L13.6567 14.4018L13.6747 14.3976L13.6927 14.3935L13.7106 14.3892L13.7286 14.3849L13.7466 14.3806L13.7645 14.3762L13.7825 14.3718L13.8005 14.3672L13.8183 14.3626V13.5417L13.8005 13.551L13.7825 13.5603L13.7645 13.5693L13.7466 13.5784L13.7286 13.5874L13.7106 13.5963L13.6927 13.6051L13.6747 13.6138L13.6567 13.6224L13.6388 13.631L13.6208 13.6394L13.6028 13.6478L13.5848 13.656L13.5669 13.6641L13.5489 13.6722L13.5309 13.6801L13.5129 13.688L13.4949 13.6958L13.4769 13.7034L13.459 13.711L13.441 13.7184L13.423 13.7258L13.4051 13.733L13.3871 13.7401L13.3691 13.7471L13.3512 13.7541L13.3332 13.7609L13.3152 13.7675L13.2973 13.7742L13.2793 13.7807L13.2613 13.7871L13.2434 13.7934L13.2254 13.7996L13.2074 13.8057L13.1895 13.8116L13.1715 13.8175L13.1535 13.8233L13.1356 13.8289L13.1176 13.8344L13.0996 13.8398L13.0816 13.8453L13.0637 13.8505L13.0457 13.8556L13.0277 13.8606L13.0098 13.8655L12.9918 13.8703L12.9738 13.8749L12.9559 13.8795L12.9379 13.884L12.9199 13.8884L12.902 13.8926L12.884 13.8968L12.866 13.9009L12.8481 13.9048L12.8301 13.9087L12.8121 13.9124L12.7942 13.9161L12.7762 13.9196L12.7582 13.9231L12.7403 13.9264L12.7223 13.9296L12.7043 13.9328L12.6864 13.9358L12.6684 13.9388L12.6504 13.9416L12.6325 13.9443L12.6145 13.9469L12.5965 13.9494L12.5785 13.9518L12.5606 13.9542L12.5426 13.9564L12.5247 13.9585L12.5067 13.9606L12.4887 13.9624L12.4708 13.9643L12.4528 13.966L12.4348 13.9676L12.4168 13.9692L12.406 13.97L12.3989 13.9706L12.3809 13.9718L12.3629 13.9731L12.345 13.9741L12.327 13.975L12.309 13.9759L12.2911 13.9765L12.2731 13.9771L12.2551 13.9775L12.2372 13.9778L12.2192 13.9781C12.2132 13.9781 12.2072 13.978 12.2012 13.978L12.1833 13.9779L12.1653 13.9776L12.1473 13.9772L12.1293 13.9767C12.1232 13.9765 12.1173 13.9762 12.1113 13.976C12.1053 13.9758 12.0993 13.9756 12.0933 13.9753L12.0754 13.9742L12.0574 13.9731L12.0394 13.9718L12.0215 13.9703C12.0155 13.9697 12.0094 13.9693 12.0035 13.9688C11.9975 13.9682 11.9915 13.9675 11.9855 13.9669L11.9676 13.965L11.9496 13.9629L11.9316 13.9606L11.9137 13.9581L11.8957 13.9555C11.8897 13.9545 11.8837 13.9536 11.8777 13.9526C11.8717 13.9517 11.8657 13.9506 11.8597 13.9495C11.8538 13.9485 11.8477 13.9475 11.8418 13.9465C11.8357 13.9454 11.8298 13.9441 11.8238 13.943C11.8178 13.9418 11.8118 13.9407 11.8059 13.9394C11.7998 13.9382 11.7939 13.9368 11.7879 13.9356C11.7819 13.9342 11.7759 13.933 11.7699 13.9316C11.7639 13.9303 11.7579 13.9288 11.752 13.9273L11.734 13.923C11.728 13.9214 11.722 13.9198 11.716 13.9182C11.71 13.9166 11.704 13.915 11.698 13.9134C11.692 13.9117 11.686 13.9099 11.6801 13.9082C11.6741 13.9064 11.6681 13.9047 11.6621 13.9029C11.6561 13.901 11.6501 13.8991 11.6441 13.8972C11.6381 13.8953 11.6321 13.8934 11.6262 13.8914C11.6202 13.8893 11.6142 13.8872 11.6082 13.8851C11.6022 13.8831 11.5962 13.881 11.5902 13.8788C11.5842 13.8766 11.5783 13.8743 11.5723 13.8721C11.5663 13.8698 11.5602 13.8675 11.5543 13.8653C11.5483 13.8629 11.5423 13.8604 11.5363 13.8579C11.5303 13.8554 11.5243 13.853 11.5184 13.8505C11.5123 13.8479 11.5064 13.8451 11.5004 13.8424C11.4944 13.8397 11.4884 13.8371 11.4824 13.8343C11.4764 13.8315 11.4704 13.8286 11.4645 13.8258C11.4584 13.8228 11.4524 13.8198 11.4465 13.8169C11.4405 13.8139 11.4345 13.8108 11.4285 13.8076C11.4225 13.8045 11.4165 13.8013 11.4106 13.7981C11.4046 13.7947 11.3985 13.7915 11.3926 13.7882C11.3865 13.7847 11.3806 13.7812 11.3746 13.7776C11.3686 13.7741 11.3626 13.7706 11.3567 13.7669C11.3506 13.7632 11.3446 13.7594 11.3387 13.7556C11.3326 13.7517 11.3267 13.7479 11.3207 13.7439C11.3147 13.7398 11.3087 13.7359 11.3028 13.7318C11.2967 13.7276 11.2908 13.7233 11.2848 13.719C11.2788 13.7146 11.2728 13.7103 11.2668 13.7058C11.2608 13.7013 11.2548 13.6967 11.2489 13.6921C11.2428 13.6873 11.2368 13.6825 11.2309 13.6776C11.2248 13.6728 11.2189 13.6678 11.2129 13.6628C11.2069 13.6575 11.2009 13.6524 11.1949 13.6472C11.1889 13.6418 11.1829 13.6363 11.177 13.6308C11.1709 13.6251 11.1649 13.6194 11.159 13.6136C11.153 13.6078 11.147 13.6018 11.141 13.5958C11.135 13.5896 11.129 13.5835 11.1231 13.5772C11.117 13.5708 11.111 13.5641 11.1051 13.5574C11.099 13.5507 11.0931 13.5437 11.0871 13.5367C11.0811 13.5296 11.0751 13.5223 11.0692 13.515C11.0631 13.5074 11.0571 13.4998 11.0512 13.4921C11.0451 13.4841 11.0391 13.4761 11.0332 13.4679C11.0272 13.4594 11.0211 13.451 11.0153 13.4423C11.0092 13.4333 11.0032 13.4242 10.9973 13.415C10.9912 13.4054 10.9852 13.3957 10.9793 13.3859C10.9732 13.3756 10.9672 13.365 10.9614 13.3545C10.9552 13.3435 10.9492 13.3322 10.9434 13.3208C10.9372 13.3087 10.9312 13.2965 10.9254 13.2841C10.9192 13.271 10.9132 13.2576 10.9075 13.2441C10.9013 13.2296 10.8952 13.2149 10.8895 13.2C10.8832 13.1836 10.8773 13.1668 10.8715 13.1498C10.8652 13.131 10.8592 13.112 10.8536 13.0926C10.8471 13.0701 10.8411 13.0473 10.8356 13.0241C10.8288 12.9951 10.8229 12.9657 10.8176 12.9357C10.8099 12.8911 10.8039 12.8453 10.7997 12.7983C10.7948 12.7439 10.7923 12.688 10.7923 12.6304C10.7923 12.5728 10.7948 12.5167 10.7997 12.4623C10.8039 12.4153 10.8099 12.3695 10.8176 12.3249C10.8229 12.2948 10.8288 12.2653 10.8356 12.2364C10.8411 12.2132 10.8471 12.1904 10.8536 12.1679C10.8592 12.1485 10.8652 12.1294 10.8715 12.1106C10.8773 12.0936 10.8832 12.0768 10.8895 12.0604C10.8952 12.0454 10.9013 12.0308 10.9075 12.0162C10.9132 12.0028 10.9192 11.9894 10.9254 11.9762C10.9312 11.9638 10.9372 11.9516 10.9434 11.9395C10.9492 11.9282 10.9552 11.9169 10.9614 11.9058C10.9672 11.8951 10.9732 11.8847 10.9793 11.8744C10.9852 11.8646 10.9912 11.8548 10.9973 11.8453C11.0032 11.8361 11.0092 11.827 11.0153 11.818C11.0211 11.8093 11.0272 11.8008 11.0332 11.7923C11.0391 11.7842 11.0451 11.7761 11.0512 11.7682C11.0571 11.7604 11.0631 11.7528 11.0692 11.7453C11.0751 11.7379 11.0811 11.7307 11.0871 11.7235C11.0931 11.7165 11.099 11.7095 11.1051 11.7028C11.111 11.6961 11.117 11.6894 11.1231 11.683C11.129 11.6767 11.135 11.6706 11.141 11.6644C11.147 11.6584 11.153 11.6524 11.159 11.6466C11.1649 11.6408 11.1709 11.635 11.177 11.6294C11.1829 11.6239 11.1889 11.6184 11.1949 11.613C11.2009 11.6078 11.2069 11.6026 11.2129 11.5974C11.2189 11.5924 11.2248 11.5874 11.2309 11.5825C11.2368 11.5776 11.2428 11.5728 11.2489 11.5681C11.2548 11.5634 11.2608 11.5589 11.2668 11.5543C11.2728 11.5498 11.2788 11.5455 11.2848 11.5412C11.2908 11.5368 11.2967 11.5325 11.3028 11.5283C11.3087 11.5242 11.3147 11.5203 11.3207 11.5163C11.3267 11.5123 11.3326 11.5084 11.3387 11.5045C11.3446 11.5007 11.3506 11.4969 11.3567 11.4933C11.3626 11.4896 11.3686 11.4861 11.3746 11.4824C11.3806 11.479 11.3865 11.4755 11.3926 11.472C11.3985 11.4686 11.4046 11.4654 11.4106 11.4621C11.4165 11.4588 11.4225 11.4557 11.4285 11.4524C11.4345 11.4493 11.4405 11.4463 11.4465 11.4432C11.4524 11.4403 11.4584 11.4373 11.4645 11.4344C11.4704 11.4315 11.4764 11.4286 11.4824 11.4258C11.4884 11.423 11.4944 11.4204 11.5004 11.4176C11.5064 11.4149 11.5123 11.4122 11.5184 11.4096C11.5243 11.4071 11.5303 11.4047 11.5363 11.4022C11.5423 11.3997 11.5483 11.3972 11.5543 11.3948C11.5602 11.3925 11.5663 11.3903 11.5723 11.388C11.5783 11.3858 11.5842 11.3835 11.5902 11.3812C11.5962 11.3791 11.6022 11.377 11.6082 11.3749C11.6142 11.3729 11.6202 11.3708 11.6262 11.3687C11.6321 11.3667 11.6381 11.3648 11.6441 11.3629C11.6501 11.361 11.6561 11.3591 11.6621 11.3572L11.6801 11.3519C11.686 11.3501 11.692 11.3484 11.698 11.3467C11.704 11.345 11.71 11.3435 11.716 11.3418C11.722 11.3403 11.728 11.3387 11.734 11.3371L11.752 11.3328C11.7579 11.3313 11.7639 11.3298 11.7699 11.3285C11.7759 11.327 11.7819 11.3258 11.7879 11.3245C11.7939 11.3232 11.7998 11.3218 11.8059 11.3206C11.8118 11.3193 11.8178 11.3183 11.8238 11.3171C11.8298 11.3159 11.8357 11.3147 11.8418 11.3136C11.8477 11.3124 11.8538 11.3115 11.8597 11.3105C11.8657 11.3094 11.8717 11.3084 11.8777 11.3073L11.8957 11.3046L11.9137 11.3019L11.9316 11.2994L11.9496 11.2972L11.9676 11.295L11.9855 11.2932C11.9915 11.2925 11.9975 11.2918 12.0035 11.2913C12.0094 11.2907 12.0155 11.2903 12.0215 11.2897L12.0394 11.2883L12.0574 11.2869L12.0754 11.2859L12.0933 11.2848C12.0993 11.2845 12.1053 11.2843 12.1113 11.284C12.1173 11.2838 12.1232 11.2835 12.1293 11.2833L12.1473 11.2829L12.1653 11.2824L12.1833 11.2821L12.2012 11.282C12.2072 11.282 12.2132 11.282 12.2192 11.282L12.2372 11.2822L12.2551 11.2825L12.2731 11.283L12.2911 11.2835L12.309 11.2841L12.327 11.285L12.345 11.286L12.3629 11.2869L12.3809 11.2882L12.3989 11.2894L12.406 11.2899L12.4168 11.2909L12.4348 11.2923L12.4528 11.294L12.4708 11.2957L12.4887 11.2974L12.5067 11.2993L12.5247 11.3014L12.5426 11.3035L12.5606 11.3057L12.5785 11.308L12.5965 11.3104L12.6145 11.3128L12.6325 11.3154L12.6504 11.3181L12.6684 11.3209L12.6864 11.3238L12.7043 11.3267L12.7223 11.3298L12.7403 11.3331L12.7582 11.3363L12.7762 11.3397L12.7942 11.3433L12.8121 11.3468L12.8301 11.3506L12.8481 11.3544L12.866 11.3583L12.884 11.3623L12.902 11.3665L12.9199 11.3707L12.9379 11.375L12.9559 11.3795L12.9738 11.3841L12.9918 11.3888L13.0098 11.3936L13.0277 11.3984L13.0457 11.4034L13.0637 11.4085L13.0816 11.4137L13.0996 11.419L13.1176 11.4245L13.1356 11.43L13.1535 11.4357L13.1715 11.4414L13.1895 11.4472L13.2074 11.4533L13.2254 11.4593L13.2434 11.4656L13.2613 11.4718L13.2793 11.4783L13.2973 11.4847L13.3152 11.4914L13.3332 11.4982L13.3512 11.5049L13.3691 11.5119L13.3871 11.519L13.4051 11.5262L13.423 11.5334L13.441 11.5408L13.459 11.5483L13.4769 11.5559L13.4949 11.5636L13.5129 11.5714L13.5309 11.5793L13.5489 11.5872L13.5669 11.5954L13.5848 11.6036L13.6028 11.6119L13.6208 11.6203L13.6388 11.6288L13.6567 11.6374L13.6747 11.6461L13.6927 11.6549L13.7106 11.6638L13.7286 11.6728L13.7466 11.6818L13.7645 11.691L13.7825 11.7003L13.8005 11.7095L13.8183 11.7189V10.8974L13.8005 10.8928L13.7825 10.8883L13.7645 10.8838L13.7466 10.8794L13.7286 10.8751L13.7106 10.8708L13.6927 10.8666L13.6747 10.8624L13.6567 10.8583L13.6388 10.8541L13.6208 10.8501L13.6028 10.8461L13.5848 10.8421L13.5669 10.8382L13.5489 10.8343L13.5309 10.8304L13.5129 10.8266L13.4949 10.8228L13.4769 10.819L13.459 10.8153L13.441 10.8116L13.423 10.808L13.4051 10.8044L13.3871 10.8008L13.3691 10.7973L13.3512 10.7938L13.3332 10.7903L13.3152 10.7869L13.2973 10.7835L13.2793 10.7802L13.2613 10.7769L13.2434 10.7736L13.2254 10.7703L13.2074 10.7672L13.1895 10.764L13.1715 10.7609L13.1535 10.7578L13.1356 10.7547L13.1176 10.7517L13.0996 10.7488L13.0816 10.7458L13.0637 10.7429L13.0457 10.7401L13.0277 10.7373L13.0098 10.7345L12.9918 10.7318L12.9738 10.7291L12.9559 10.7265L12.9379 10.7239L12.9199 10.7213L12.902 10.7188L12.884 10.7163L12.866 10.7139L12.8481 10.7115L12.8301 10.7092L12.8121 10.7069L12.7942 10.7046L12.7762 10.7024L12.7582 10.7003L12.7403 10.6982L12.7223 10.6961L12.7043 10.6941L12.6864 10.6922L12.6684 10.6903L12.6504 10.6884L12.6325 10.6866L12.6145 10.6849L12.5965 10.6832L12.5785 10.6816L12.5606 10.68L12.5426 10.6784L12.5247 10.677L12.5067 10.6756L12.4887 10.6742L12.4708 10.6729L12.4528 10.6717L12.4348 10.6706L12.4168 10.6694L12.3989 10.6684L12.3809 10.6674L12.3629 10.6665L12.3538 10.6661L12.345 10.6657L12.327 10.6649L12.309 10.6641L12.2911 10.6634L12.2731 10.6627L12.2551 10.6621L12.2372 10.6614L12.2192 10.6609L12.2012 10.6603L12.1833 10.6598L12.1653 10.6593L12.1473 10.659L12.1293 10.6586L12.1113 10.6582L12.0933 10.6579L12.0754 10.6577L12.0574 10.6575L12.0394 10.6573L12.0215 10.6572L12.0035 10.6571L11.9855 10.6571L11.9676 10.6571L11.9496 10.6571L11.9316 10.6572L11.9137 10.6573L11.8957 10.6575L11.8777 10.6577L11.8597 10.658L11.8418 10.6584L11.8238 10.6587L11.8059 10.6591L11.7879 10.6596L11.7699 10.6601L11.752 10.6607L11.734 10.6613L11.716 10.6619L11.698 10.6627L11.6801 10.6635L11.6621 10.6642L11.6441 10.6651L11.6262 10.6661L11.6082 10.667L11.5902 10.6681L11.5723 10.6691L11.5543 10.6702L11.5363 10.6715L11.5184 10.6727L11.5004 10.674L11.4824 10.6754L11.4645 10.6768L11.4465 10.6783L11.4285 10.6799L11.4106 10.6814L11.3926 10.6831L11.3746 10.6849L11.3567 10.6866L11.3387 10.6885L11.3207 10.6904L11.3028 10.6923L11.2848 10.6944L11.2668 10.6965L11.2489 10.6987L11.2309 10.701L11.2129 10.7033L11.1949 10.7057L11.177 10.7081L11.159 10.7106L11.141 10.7132L11.1231 10.7159L11.1051 10.7186L11.0871 10.7215L11.0692 10.7243L11.0512 10.7273L11.0332 10.7304L11.0153 10.7335L10.9973 10.7367L10.9793 10.74L10.9614 10.7434L10.9434 10.7469L10.9254 10.7504L10.9075 10.7541L10.8895 10.7577L10.8715 10.7616L10.8536 10.7654L10.8356 10.7695L10.8176 10.7735L10.7997 10.7777L10.7817 10.782L10.7637 10.7863L10.7457 10.7909L10.7277 10.7954L10.7097 10.8001L10.6918 10.8049L10.6738 10.8098L10.6558 10.8148L10.6379 10.8199L10.6199 10.8251L10.6019 10.8304L10.584 10.8359L10.566 10.8414L10.548 10.8471L10.53 10.8529L10.5121 10.8589C10.5061 10.8609 10.5 10.8628 10.4941 10.8649L10.4761 10.8711C10.4702 10.8732 10.4641 10.8753 10.4582 10.8774L10.4402 10.8839L10.4222 10.8904C10.4162 10.8926 10.4103 10.895 10.4043 10.8972C10.3983 10.8995 10.3922 10.9017 10.3863 10.904L10.3683 10.9111C10.3623 10.9135 10.3563 10.9158 10.3504 10.9183L10.3324 10.9256L10.3144 10.9331L10.2965 10.9408L10.2785 10.9486L10.2605 10.9566L10.2426 10.9647L10.2246 10.973L10.2066 10.9816L10.1887 10.9902C10.1826 10.9931 10.1767 10.9962 10.1707 10.9991L10.1527 11.0082L10.1348 11.0175L10.1168 11.027C10.1108 11.0303 10.1048 11.0334 10.0988 11.0366C10.0928 11.0399 10.0868 11.0433 10.0809 11.0466L10.0629 11.0567L10.0449 11.0671C10.0389 11.0707 10.0329 11.0742 10.027 11.0778C10.0209 11.0813 10.0149 11.0849 10.009 11.0886C10.003 11.0922 9.997 11.096 9.99103 11.0996C9.98499 11.1035 9.979 11.1072 9.97305 11.1111C9.96704 11.1149 9.96101 11.1188 9.95509 11.1226C9.94905 11.1266 9.94307 11.1306 9.93712 11.1346L9.91916 11.1468C9.91313 11.151 9.90712 11.155 9.90118 11.1593L9.88322 11.1721C9.87718 11.1765 9.87121 11.1809 9.86526 11.1853C9.85923 11.1897 9.85321 11.1942 9.84727 11.1987C9.84126 11.2033 9.83523 11.2079 9.82931 11.2124C9.82325 11.2171 9.8173 11.2219 9.81134 11.2267C9.80529 11.2315 9.79931 11.2364 9.79336 11.2412C9.78733 11.2462 9.78134 11.2511 9.7754 11.2561Z" fill="#CA4638"/>
</g>
</g>
<defs>
<clipPath id="clip0_207_8523">
<rect width="24.0017" height="25" fill="white" transform="translate(-0.00683594 0.600769)"/>
</clipPath>
<clipPath id="clip1_207_8523">
<rect width="24.0017" height="25" fill="white" transform="translate(-0.00683594 0.600769)"/>
</clipPath>
</defs>
</svg>
