<svg width="24" height="26" viewBox="0 0 24 26" fill="none" xmlns="http://www.w3.org/2000/svg">
<g clip-path="url(#clip0_207_8505)">
<g clip-path="url(#clip1_207_8505)">
<path d="M7.2547 22.7161V21.4285C7.26191 21.3205 7.24693 21.212 7.21076 21.1106C7.17459 21.009 7.11808 20.9167 7.04497 20.8397C6.97186 20.7628 6.88384 20.703 6.78678 20.6642C6.68972 20.6255 6.58584 20.6087 6.48207 20.615C6.3459 20.6058 6.20982 20.6347 6.08805 20.6989C5.96627 20.7631 5.86329 20.8601 5.78981 20.9799C5.72284 20.8637 5.627 20.7685 5.51241 20.7043C5.39782 20.64 5.26873 20.6093 5.13874 20.615C5.02543 20.6091 4.91258 20.6341 4.81139 20.6875C4.7102 20.741 4.62418 20.8211 4.56185 20.9198V20.6666H4.1333V22.7161H4.56597V21.5808C4.55638 21.5106 4.5619 21.439 4.58213 21.3713C4.60235 21.3036 4.6368 21.2414 4.68293 21.1892C4.72907 21.137 4.78578 21.0962 4.84892 21.0696C4.91208 21.0431 4.98011 21.0315 5.04809 21.0357C5.33242 21.0357 5.47664 21.2289 5.47664 21.5765V22.7161H5.9093V21.5808C5.90048 21.5107 5.90653 21.4394 5.92704 21.3721C5.94755 21.3047 5.98201 21.2429 6.028 21.1909C6.07398 21.1389 6.13037 21.0981 6.19316 21.0712C6.25595 21.0444 6.32363 21.0323 6.39142 21.0357C6.68399 21.0357 6.82409 21.2289 6.82409 21.5765V22.7161H7.2547ZM9.66528 21.6924V20.6688H9.23261V20.9176C9.15996 20.82 9.06597 20.7418 8.95847 20.6895C8.85097 20.6373 8.73305 20.6125 8.61451 20.6172C8.3413 20.6172 8.07927 20.7302 7.88607 20.9315C7.69288 21.1327 7.58435 21.4057 7.58435 21.6902C7.58435 21.9748 7.69288 22.2477 7.88607 22.449C8.07927 22.6502 8.3413 22.7633 8.61451 22.7633C8.73305 22.768 8.85097 22.7432 8.95847 22.691C9.06597 22.6387 9.15996 22.5605 9.23261 22.4629V22.7117H9.66116L9.66528 21.6924ZM8.07265 21.6924C8.07949 21.5716 8.12007 21.4556 8.18942 21.3586C8.25877 21.2615 8.35386 21.1877 8.46296 21.1463C8.57207 21.1048 8.69044 21.0974 8.80349 21.1251C8.91654 21.1528 9.01934 21.2144 9.09923 21.3022C9.17913 21.39 9.23262 21.5002 9.25313 21.6193C9.27364 21.7385 9.26027 21.8612 9.21466 21.9724C9.16906 22.0837 9.09321 22.1786 8.99646 22.2456C8.89972 22.3124 8.78629 22.3485 8.67014 22.3491C8.58813 22.3511 8.50663 22.3352 8.43084 22.3025C8.35506 22.2698 8.28665 22.221 8.23002 22.1592C8.17339 22.0974 8.12978 22.0239 8.10197 21.9436C8.07416 21.8632 8.06277 21.7776 8.06853 21.6924H8.07265ZM18.8214 20.6194C18.9625 20.619 19.1023 20.6467 19.2334 20.701C19.3586 20.7532 19.4727 20.8305 19.5692 20.9284C19.6646 21.0256 19.7403 21.1415 19.7918 21.2696C19.8995 21.5447 19.8995 21.8529 19.7918 22.1281C19.7404 22.2562 19.6647 22.3722 19.5692 22.4692C19.4727 22.5672 19.3586 22.6445 19.2334 22.6967C18.9618 22.8067 18.6604 22.8067 18.3888 22.6967C18.2642 22.6446 18.1507 22.5672 18.0549 22.4692C17.9605 22.3718 17.8856 22.2559 17.8345 22.1281C17.727 21.8529 17.727 21.5448 17.8345 21.2696C17.8856 21.1418 17.9605 21.0259 18.0549 20.9284C18.1507 20.8303 18.2642 20.7531 18.3888 20.701C18.5246 20.6423 18.6702 20.6123 18.8173 20.613L18.8214 20.6194ZM18.8214 21.0486C18.7375 21.0474 18.6542 21.0635 18.5762 21.0958C18.5028 21.1265 18.4362 21.1724 18.3805 21.231C18.3237 21.2926 18.2795 21.3657 18.2507 21.4456C18.1877 21.6169 18.1877 21.8065 18.2507 21.9778C18.2795 22.0578 18.3237 22.1309 18.3805 22.1924C18.4362 22.251 18.5028 22.297 18.5762 22.3276C18.7332 22.3916 18.9075 22.3916 19.0645 22.3276C19.1415 22.298 19.2116 22.2519 19.2705 22.1924C19.3275 22.1309 19.3716 22.0578 19.4003 21.9778C19.4632 21.8065 19.4632 21.6169 19.4003 21.4456C19.3716 21.3656 19.3275 21.2925 19.2705 21.231C19.2116 21.1715 19.1415 21.1255 19.0645 21.0958C18.9868 21.0587 18.9027 21.0383 18.8173 21.0357L18.8214 21.0486ZM11.9935 21.6924C11.9935 21.0486 11.6103 20.6194 11.0601 20.6194C10.7869 20.6234 10.5264 20.7402 10.3359 20.9443C10.1455 21.1484 10.0406 21.4228 10.0444 21.7074C10.0483 21.992 10.1604 22.2634 10.3563 22.4617C10.5522 22.6601 10.8157 22.7694 11.0889 22.7653C11.3823 22.7759 11.6691 22.6735 11.8946 22.4779L11.6885 22.1473C11.5259 22.2833 11.3243 22.3588 11.1157 22.3619C10.9741 22.3746 10.8333 22.3293 10.7232 22.2355C10.6132 22.1417 10.5426 22.0069 10.5265 21.8598H11.9873C11.9935 21.8061 11.9935 21.7524 11.9935 21.6924ZM10.5286 21.5121C10.5365 21.3759 10.5948 21.2482 10.6912 21.1558C10.7876 21.0633 10.9147 21.0134 11.0457 21.0164C11.1098 21.0149 11.1736 21.0267 11.2333 21.051C11.2931 21.0752 11.3478 21.1115 11.3941 21.1577C11.4404 21.204 11.4775 21.2592 11.5033 21.3205C11.529 21.3816 11.543 21.4474 11.5443 21.5143L10.5286 21.5121ZM13.7962 21.1902C13.6081 21.0773 13.3952 21.0168 13.1782 21.0142C12.9433 21.0142 12.8032 21.1044 12.8032 21.2546C12.8032 21.4048 12.9515 21.4306 13.1369 21.4563L13.343 21.4864C13.7715 21.5508 14.0311 21.7396 14.0311 22.1001C14.0311 22.4607 13.7014 22.7697 13.1349 22.7697C12.8312 22.7781 12.5329 22.6848 12.2839 22.5036L12.49 22.156C12.679 22.302 12.9099 22.3776 13.1452 22.3706C13.4377 22.3706 13.5943 22.2803 13.5943 22.1216C13.5943 22.0057 13.4831 21.9413 13.2482 21.907L13.0422 21.8769C12.6012 21.8125 12.3622 21.6066 12.3622 21.2718C12.3622 20.864 12.6836 20.615 13.1864 20.615C13.4677 20.6052 13.7459 20.6797 13.9878 20.8297L13.7962 21.1902ZM15.8566 21.0743H15.1581V21.9993C15.1581 22.2139 15.2281 22.3426 15.4424 22.3426C15.5762 22.3381 15.7066 22.2982 15.8216 22.2267L15.9452 22.6088C15.7845 22.7132 15.5989 22.7682 15.4094 22.7675C14.9026 22.7675 14.7255 22.4843 14.7255 22.0079V21.0743H14.3258V20.6666H14.7255V20.0442H15.1581V20.6666H15.8566V21.0743ZM17.338 20.615C17.4419 20.6156 17.545 20.6344 17.6429 20.6709L17.511 21.1001C17.4259 21.0647 17.3349 21.0472 17.2432 21.0486C16.963 21.0486 16.8311 21.2374 16.8311 21.5765V22.7246H16.4025V20.6751H16.8269V20.9241C16.8796 20.83 16.9556 20.7524 17.047 20.6995C17.1383 20.6467 17.2417 20.6205 17.3462 20.6237L17.338 20.615ZM20.3007 22.4177C20.3275 22.4174 20.3541 22.4225 20.379 22.4327C20.4026 22.4428 20.4243 22.4573 20.4429 22.4757C20.461 22.4942 20.4756 22.516 20.4861 22.54C20.4965 22.5651 20.5019 22.5921 20.5019 22.6195C20.5019 22.6468 20.4965 22.6738 20.4861 22.6989C20.4756 22.723 20.461 22.7447 20.4429 22.7633C20.4243 22.7816 20.4026 22.7961 20.379 22.8062C20.3543 22.8175 20.3277 22.8234 20.3007 22.8234C20.2616 22.8231 20.2235 22.8112 20.1906 22.7891C20.1578 22.7671 20.1317 22.7358 20.1153 22.6989C20.105 22.6738 20.0996 22.6468 20.0996 22.6195C20.0996 22.5922 20.105 22.5651 20.1153 22.54C20.1258 22.516 20.1404 22.4942 20.1585 22.4757C20.1771 22.4573 20.1988 22.4428 20.2224 22.4327C20.2441 22.4238 20.2671 22.4187 20.2904 22.4177H20.3007ZM20.3007 22.7805C20.3213 22.7806 20.3416 22.7762 20.3604 22.7675C20.3782 22.7593 20.3942 22.7476 20.4078 22.7332C20.4253 22.7148 20.4382 22.6924 20.4455 22.6676C20.4527 22.643 20.454 22.6168 20.4494 22.5914C20.4447 22.5661 20.4342 22.5422 20.4187 22.5221C20.4032 22.5019 20.3832 22.486 20.3604 22.4757C20.3416 22.4671 20.3213 22.4627 20.3007 22.4629C20.2802 22.463 20.2598 22.4673 20.241 22.4757C20.2224 22.4836 20.2056 22.4952 20.1915 22.51C20.1657 22.5393 20.1514 22.5776 20.1514 22.6173C20.1514 22.657 20.1657 22.6953 20.1915 22.7246C20.2058 22.7396 20.2228 22.7516 20.2415 22.7597C20.2603 22.7678 20.2804 22.7719 20.3007 22.7718V22.7805ZM20.3131 22.525C20.3323 22.5241 20.3512 22.5301 20.3666 22.5422C20.3729 22.5476 20.3779 22.5546 20.3811 22.5624C20.3843 22.5702 20.3857 22.5788 20.3852 22.5873C20.3855 22.5944 20.3843 22.6015 20.3818 22.6082C20.3794 22.6148 20.3756 22.6209 20.3707 22.6259C20.3588 22.6372 20.3436 22.644 20.3275 22.6452L20.3872 22.7161H20.3398L20.2842 22.6452H20.2657V22.7161H20.2265V22.5186L20.3131 22.525ZM20.2677 22.5615V22.6131H20.3131C20.3211 22.6156 20.3297 22.6156 20.3378 22.6131C20.3392 22.61 20.34 22.6067 20.34 22.6034C20.34 22.6 20.3392 22.5967 20.3378 22.5937C20.3392 22.5908 20.34 22.5874 20.34 22.5841C20.34 22.5807 20.3392 22.5774 20.3378 22.5744C20.3297 22.5719 20.3211 22.5719 20.3131 22.5744L20.2677 22.5615Z" fill="black"/>
<path d="M15.2386 5.0303H8.74854V17.1789H15.2386V5.0303Z" fill="#7673C0"/>
<path d="M9.16054 11.1056C9.15934 9.93544 9.41379 8.78033 9.9046 7.72775C10.3954 6.67516 11.1098 5.75271 11.9935 5.03022C10.8993 4.13452 9.5852 3.57754 8.20145 3.42292C6.8177 3.26832 5.42011 3.52232 4.16839 4.15591C2.91668 4.7895 1.86136 5.77711 1.12304 7.00587C0.384706 8.23463 -0.00683594 9.65496 -0.00683594 11.1045C-0.00683594 12.5541 0.384706 13.9744 1.12304 15.2032C1.86136 16.4319 2.91668 17.4195 4.16839 18.0532C5.42011 18.6867 6.8177 18.9408 8.20145 18.7861C9.5852 18.6315 10.8993 18.0745 11.9935 17.1788C11.1101 16.4566 10.3958 15.5344 9.90505 14.4822C9.41425 13.43 9.15965 12.2755 9.16054 11.1056Z" fill="#EB001B"/>
<path d="M23.286 15.8914V15.651H23.3829V15.5995H23.1377V15.651H23.2345V15.8999L23.286 15.8914ZM23.7619 15.8914V15.591H23.6878L23.6012 15.8056L23.5147 15.591H23.4385V15.8914H23.4921V15.6661L23.5724 15.8613H23.628L23.7084 15.6661V15.8936L23.7619 15.8914Z" fill="#00A1DF"/>
<path d="M23.9924 11.1059C23.9921 12.5551 23.6004 13.9751 22.8621 15.2036C22.1237 16.4319 21.0685 17.4193 19.817 18.0528C18.5655 18.6861 17.1681 18.9401 15.7846 18.7857C14.4011 18.6311 13.0872 18.0744 11.9932 17.1791C12.8762 16.4562 13.5902 15.5338 14.0811 14.4816C14.5721 13.4293 14.8272 12.2746 14.8272 11.1047C14.8272 9.93484 14.5721 8.7802 14.0811 7.72796C13.5902 6.67572 12.8762 5.75335 11.9932 5.03045C13.0872 4.13447 14.4013 3.57721 15.7851 3.42238C17.169 3.26755 18.5667 3.52139 19.8186 4.15489C21.0705 4.78839 22.126 5.77599 22.8645 7.00478C23.6029 8.23358 23.9945 9.65401 23.9945 11.1037L23.9924 11.1059Z" fill="#00A1DF"/>
</g>
</g>
<defs>
<clipPath id="clip0_207_8505">
<rect width="24.0017" height="25" fill="white" transform="translate(-0.00683594 0.600769)"/>
</clipPath>
<clipPath id="clip1_207_8505">
<rect width="24.0017" height="25" fill="white" transform="translate(-0.00683594 0.600769)"/>
</clipPath>
</defs>
</svg>
