<svg width="24" height="26" viewBox="0 0 24 26" fill="none" xmlns="http://www.w3.org/2000/svg">
<g clip-path="url(#clip0_207_8502)">
<g clip-path="url(#clip1_207_8502)">
<path fill-rule="evenodd" clip-rule="evenodd" d="M12.4063 11.515C12.3926 12.6396 13.3685 13.2671 14.1036 13.6403C14.8589 14.0232 15.1127 14.2687 15.1098 14.611C15.104 15.1349 14.5072 15.3662 13.9487 15.3751C12.9742 15.3909 12.4077 15.1012 11.9572 14.8819L11.6063 16.5928C12.0581 16.8097 12.8949 16.999 13.7628 17.0072C15.7995 17.0072 17.1321 15.9599 17.1393 14.3362C17.1473 12.2756 14.4027 12.1614 14.4214 11.2403C14.4279 10.961 14.6838 10.663 15.2446 10.5872C15.522 10.5489 16.2881 10.5196 17.1566 10.9362L17.4975 9.28098C17.0305 9.10379 16.4301 8.9341 15.6827 8.9341C13.7656 8.9341 12.4172 9.99561 12.4063 11.515ZM20.7733 9.07673C20.4013 9.07673 20.0878 9.30273 19.948 9.64954L17.0384 16.8856H19.0737L19.4788 15.7197H21.9661L22.201 16.8856H23.9949L22.4295 9.07673H20.7733ZM21.0579 11.1862L21.6453 14.1185H20.0366L21.0579 11.1862ZM9.93852 9.07673L8.33419 16.8856H10.2736L11.8772 9.07673H9.93852ZM7.0693 9.07673L5.05051 14.3917L4.23391 9.87248C4.13808 9.36804 3.7597 9.07673 3.33949 9.07673H0.0393072L-0.00683594 9.30348C0.670673 9.4566 1.44041 9.70361 1.9067 9.96786C2.19208 10.1292 2.27357 10.2704 2.36724 10.654L3.91391 16.8856H5.96372L9.10608 9.07673H7.0693Z" fill="#1A1F71"/>
</g>
</g>
<defs>
<clipPath id="clip0_207_8502">
<rect width="24.0017" height="25" fill="white" transform="translate(-0.00683594 0.600769)"/>
</clipPath>
<clipPath id="clip1_207_8502">
<rect width="24.0017" height="25" fill="white" transform="translate(-0.00683594 0.600769)"/>
</clipPath>
</defs>
</svg>
