<svg width="13" height="16" viewBox="0 0 13 16" fill="none" xmlns="http://www.w3.org/2000/svg">
<g clip-path="url(#clip0_207_7601)">
<path d="M1.71971 4.99298C1.79971 4.99298 1.87971 5.03298 1.95971 5.11298L6.69971 9.91298L11.4397 5.11298C11.5197 5.03298 11.6097 4.99298 11.7097 4.99298C11.8097 4.99298 11.8997 5.03298 11.9797 5.11298L12.5797 5.71298C12.6597 5.79298 12.6997 5.88298 12.6997 5.98298C12.6997 6.08298 12.6597 6.17298 12.5797 6.25298L6.99971 11.953C6.91971 12.033 6.81971 12.073 6.69971 12.073C6.57971 12.073 6.47971 12.033 6.39971 11.953L0.819707 6.25298C0.739707 6.21298 0.699707 6.13298 0.699707 6.01298C0.699707 5.89298 0.739707 5.79298 0.819707 5.71298L1.47971 5.11298C1.51971 5.03298 1.59971 4.99298 1.71971 4.99298Z" fill="black"/>
</g>
<defs>
<clipPath id="clip0_207_7601">
<rect width="12" height="7.08" fill="white" transform="translate(0.699707 4.99298)"/>
</clipPath>
</defs>
</svg>
