<svg width="170" height="56" viewBox="0 0 170 56" fill="none" xmlns="http://www.w3.org/2000/svg">
<g filter="url(#filter0_d_225_1347)">
<rect x="4" width="162" height="48" rx="11" fill="white"/>
<rect x="4.5" y="0.5" width="161" height="47" rx="10.5" stroke="#F6551A"/>
</g>
<rect x="9" y="3" width="82" height="42" rx="6" fill="#F6551A"/>
<path d="M26.9219 33V31.1953L28.7852 30.8438V18.1992H25.3516L25.0938 20.3789H22.8789V15.9375H37.6562V20.3789H35.4297L35.1719 18.1992H31.7383V30.8438L33.6016 31.1953V33H26.9219ZM38.5586 33V31.1953L40.3164 30.8438V22.4883L38.4648 22.1367V20.3203H43.0352L43.1875 21.9141L43.2109 22.1719C43.5469 21.5 43.957 20.9844 44.4414 20.625C44.9336 20.2656 45.5078 20.0859 46.1641 20.0859C46.3828 20.0859 46.6133 20.1055 46.8555 20.1445C47.1055 20.1836 47.3086 20.2266 47.4648 20.2734L47.125 23.0039L45.4727 22.9102C44.9336 22.8789 44.4883 22.9844 44.1367 23.2266C43.793 23.4688 43.5039 23.8047 43.2695 24.2344V30.8438L45.0273 31.1953V33H38.5586ZM48.6719 33V31.1953L50.4297 30.8438V22.4883L48.5664 22.1367V20.3203H53.3828V30.8438L55.1289 31.1953V33H48.6719ZM50.3125 17.4492V14.7188H53.3828V17.4492H50.3125ZM56.2773 37.875V36.0586L57.9883 35.707V22.4883L56.125 22.1367V20.3203H60.6367L60.8242 21.8203C61.2148 21.2656 61.6914 20.8398 62.2539 20.543C62.8164 20.2383 63.4805 20.0859 64.2461 20.0859C65.2773 20.0859 66.1602 20.3672 66.8945 20.9297C67.6289 21.4922 68.1875 22.2773 68.5703 23.2852C68.9609 24.293 69.1562 25.4727 69.1562 26.8242V27.0703C69.1562 28.3047 68.9609 29.3867 68.5703 30.3164C68.1797 31.2383 67.6172 31.957 66.8828 32.4727C66.1562 32.9883 65.2773 33.2461 64.2461 33.2461C63.5195 33.2461 62.8828 33.1211 62.3359 32.8711C61.7891 32.6133 61.3203 32.2383 60.9297 31.7461V35.707L62.7344 36.0586V37.875H56.2773ZM63.3555 30.9727C64.3242 30.9727 65.0391 30.6172 65.5 29.9062C65.9688 29.1875 66.2031 28.2422 66.2031 27.0703V26.8242C66.2031 25.9492 66.0977 25.1836 65.8867 24.5273C65.6836 23.8633 65.3672 23.3477 64.9375 22.9805C64.5156 22.6055 63.9805 22.418 63.332 22.418C62.7852 22.418 62.3086 22.543 61.9023 22.793C61.5039 23.0352 61.1797 23.3789 60.9297 23.8242V29.6367C61.1797 30.0664 61.5039 30.3984 61.9023 30.6328C62.3008 30.8594 62.7852 30.9727 63.3555 30.9727Z" fill="white"/>
<path d="M100.766 33V31.1953L102.629 30.8438V18.1992H99.1953L98.9375 20.3789H96.7227V15.9375H111.5V20.3789H109.273L109.016 18.1992H105.582V30.8438L107.445 31.1953V33H100.766ZM112.859 33V31.1953L114.617 30.8438V16.8867L112.754 16.5352V14.7188H117.559V21.9609C117.973 21.3672 118.484 20.9062 119.094 20.5781C119.703 20.25 120.391 20.0859 121.156 20.0859C122.461 20.0859 123.484 20.5039 124.227 21.3398C124.977 22.168 125.352 23.4492 125.352 25.1836V30.8438L127.109 31.1953V33H120.746V31.1953L122.41 30.8438V25.1602C122.41 24.1914 122.215 23.4922 121.824 23.0625C121.434 22.6328 120.859 22.418 120.102 22.418C119.562 22.418 119.074 22.5391 118.637 22.7812C118.207 23.0156 117.848 23.3477 117.559 23.7773V30.8438L119.223 31.1953V33H112.859ZM128.551 33V31.1953L130.309 30.8438V22.4883L128.457 22.1367V20.3203H133.027L133.18 21.9141L133.203 22.1719C133.539 21.5 133.949 20.9844 134.434 20.625C134.926 20.2656 135.5 20.0859 136.156 20.0859C136.375 20.0859 136.605 20.1055 136.848 20.1445C137.098 20.1836 137.301 20.2266 137.457 20.2734L137.117 23.0039L135.465 22.9102C134.926 22.8789 134.48 22.9844 134.129 23.2266C133.785 23.4688 133.496 23.8047 133.262 24.2344V30.8438L135.02 31.1953V33H128.551ZM138.664 33V31.1953L140.422 30.8438V22.4883L138.559 22.1367V20.3203H143.375V30.8438L145.121 31.1953V33H138.664ZM140.305 17.4492V14.7188H143.375V17.4492H140.305ZM146.305 33V31.1953L148.074 30.8438V16.8867L146.199 16.5352V14.7188H151.016V30.8438L152.785 31.1953V33H146.305ZM153.969 33V31.1953L155.738 30.8438V16.8867L153.863 16.5352V14.7188H158.68V30.8438L160.449 31.1953V33H153.969Z" fill="#F6551A"/>
<defs>
<filter id="filter0_d_225_1347" x="0" y="0" width="170" height="56" filterUnits="userSpaceOnUse" color-interpolation-filters="sRGB">
<feFlood flood-opacity="0" result="BackgroundImageFix"/>
<feColorMatrix in="SourceAlpha" type="matrix" values="0 0 0 0 0 0 0 0 0 0 0 0 0 0 0 0 0 0 127 0" result="hardAlpha"/>
<feOffset dy="4"/>
<feGaussianBlur stdDeviation="2"/>
<feComposite in2="hardAlpha" operator="out"/>
<feColorMatrix type="matrix" values="0 0 0 0 0 0 0 0 0 0 0 0 0 0 0 0 0 0 0.25 0"/>
<feBlend mode="normal" in2="BackgroundImageFix" result="effect1_dropShadow_225_1347"/>
<feBlend mode="normal" in="SourceGraphic" in2="effect1_dropShadow_225_1347" result="shape"/>
</filter>
</defs>
</svg>
