<svg width="20" height="20" viewBox="0 0 20 20" fill="none" xmlns="http://www.w3.org/2000/svg">
<g clip-path="url(#clip0_45_49)">
<path d="M0 8.3234C0 12.9139 3.73464 16.6444 8.32105 16.6444C10.4341 16.6444 12.3669 15.85 13.837 14.5478L19.14 19.8508C19.2383 19.9491 19.3653 19.9983 19.4963 19.9983C19.6274 19.9983 19.7543 19.9491 19.8526 19.8508C20.0491 19.6543 20.0491 19.339 19.8526 19.1424L14.5455 13.8394C15.8477 12.3693 16.6421 10.4405 16.6421 8.3234C16.6421 3.7329 12.9075 0.00234985 8.32105 0.00234985C3.73464 0.00234985 0 3.7329 0 8.3234ZM15.6388 8.3234C15.6388 12.357 12.3546 15.6412 8.32105 15.6412C4.28747 15.6412 1.00328 12.357 1.00328 8.3234C1.00328 4.28982 4.28747 1.00563 8.32105 1.00563C12.3546 1.00563 15.6388 4.28572 15.6388 8.3234Z" fill="black"/>
</g>
<defs>
<clipPath id="clip0_45_49">
<rect width="20" height="20" fill="white"/>
</clipPath>
</defs>
</svg>
