<svg width="24" height="24" viewBox="0 0 24 24" fill="none" xmlns="http://www.w3.org/2000/svg">
<path d="M12.0004 3.27271C9.63033 3.27271 9.33289 3.28307 8.402 3.32543C7.47294 3.36798 6.83878 3.51507 6.28389 3.73089C5.7099 3.9538 5.22301 4.25198 4.73793 4.73725C4.25249 5.22234 3.95432 5.70925 3.73069 6.28307C3.51433 6.83816 3.36707 7.47252 3.32525 8.40125C3.28361 9.33216 3.27271 9.6298 3.27271 12C3.27271 14.3702 3.28325 14.6667 3.32543 15.5976C3.36816 16.5267 3.51524 17.1609 3.73087 17.7158C3.95396 18.2898 4.25213 18.7767 4.73739 19.2618C5.22228 19.7472 5.70918 20.0462 6.2828 20.2691C6.83805 20.4849 7.4724 20.632 8.40128 20.6745C9.33216 20.7169 9.62942 20.7272 11.9993 20.7272C14.3696 20.7272 14.6662 20.7169 15.5971 20.6745C16.5261 20.632 17.161 20.4849 17.7163 20.2691C18.2901 20.0462 18.7762 19.7472 19.2611 19.2618C19.7466 18.7767 20.0447 18.2898 20.2684 17.716C20.4829 17.1609 20.6302 16.5265 20.6738 15.5978C20.7156 14.6669 20.7265 14.3702 20.7265 12C20.7265 9.6298 20.7156 9.33234 20.6738 8.40143C20.6302 7.47234 20.4829 6.83816 20.2684 6.28325C20.0447 5.70925 19.7466 5.22234 19.2611 4.73725C18.7757 4.2518 18.2903 3.95361 17.7157 3.73089C17.1594 3.51507 16.5248 3.36798 15.5958 3.32543C14.6649 3.28307 14.3686 3.27271 11.9977 3.27271H12.0004ZM11.2176 4.84543C11.4499 4.84507 11.7092 4.84543 12.0004 4.84543C14.3306 4.84543 14.6067 4.8538 15.5269 4.89561C16.3778 4.93452 16.8396 5.07671 17.1472 5.19616C17.5545 5.35434 17.8448 5.54343 18.1501 5.84889C18.4555 6.15434 18.6446 6.44525 18.8031 6.85252C18.9226 7.1598 19.065 7.62161 19.1037 8.47252C19.1455 9.39252 19.1546 9.66889 19.1546 11.998C19.1546 14.3271 19.1455 14.6034 19.1037 15.5234C19.0648 16.3743 18.9226 16.8362 18.8031 17.1434C18.645 17.5507 18.4555 17.8407 18.1501 18.146C17.8446 18.4514 17.5546 18.6405 17.1472 18.7987C16.8399 18.9187 16.3778 19.0605 15.5269 19.0994C14.6069 19.1412 14.3306 19.1503 12.0004 19.1503C9.67015 19.1503 9.39397 19.1412 8.474 19.0994C7.62312 19.0602 7.16131 18.918 6.85351 18.7985C6.44625 18.6403 6.15534 18.4513 5.8499 18.1458C5.54445 17.8403 5.35537 17.5502 5.19683 17.1427C5.07738 16.8354 4.93502 16.3736 4.89629 15.5227C4.85448 14.6027 4.84611 14.3263 4.84611 11.9958C4.84611 9.66525 4.85448 9.39034 4.89629 8.47034C4.9352 7.61943 5.07738 7.15761 5.19683 6.84998C5.35501 6.4427 5.54445 6.1518 5.8499 5.84634C6.15534 5.54089 6.44625 5.3518 6.85351 5.19325C7.16113 5.07325 7.62312 4.93143 8.474 4.89234C9.27907 4.85598 9.59106 4.84507 11.2176 4.84325V4.84543ZM16.6588 6.29452C16.0807 6.29452 15.6116 6.76307 15.6116 7.34143C15.6116 7.91961 16.0807 8.3887 16.6588 8.3887C17.237 8.3887 17.7061 7.91961 17.7061 7.34143C17.7061 6.76325 17.237 6.29416 16.6588 6.29416V6.29452ZM12.0004 7.51816C9.52542 7.51816 7.51876 9.52489 7.51876 12C7.51876 14.4751 9.52542 16.4809 12.0004 16.4809C14.4755 16.4809 16.4814 14.4751 16.4814 12C16.4814 9.52489 14.4753 7.51816 12.0003 7.51816H12.0004ZM12.0004 9.09089C13.6069 9.09089 14.9094 10.3932 14.9094 12C14.9094 13.6065 13.6069 14.9091 12.0004 14.9091C10.3938 14.9091 9.09144 13.6065 9.09144 12C9.09144 10.3932 10.3938 9.09089 12.0004 9.09089Z" fill="#4B5563"/>
</svg>
