<svg width="24" height="24" viewBox="0 0 24 24" fill="none" xmlns="http://www.w3.org/2000/svg">
<path fill-rule="evenodd" clip-rule="evenodd" d="M18.6614 9.07607C18.6672 9.22598 18.6691 9.37582 18.6691 9.52572C18.6691 14.0705 15.4721 19.3171 9.62588 19.3171C7.83003 19.3171 6.16014 18.7447 4.75317 17.7704C5.00188 17.7976 5.25447 17.8181 5.51092 17.8181C6.99993 17.8181 8.37137 17.2661 9.45922 16.3394C8.0684 16.319 6.894 15.3174 6.48896 13.9546C6.6834 13.9955 6.88365 14.016 7.08842 14.016C7.37718 14.016 7.65754 13.9752 7.92627 13.8934C6.47086 13.58 5.37462 12.19 5.37462 10.5207C5.37462 10.5002 5.37462 10.4934 5.37462 10.4797C5.80356 10.7318 6.2945 10.8885 6.81582 10.9089C5.96182 10.2889 5.40045 9.23278 5.40045 8.04038C5.40045 7.41352 5.55678 6.8207 5.83197 6.30967C7.39914 8.39466 9.74217 9.76424 12.3836 9.90733C12.3294 9.65522 12.3016 9.38955 12.3016 9.12382C12.3016 7.22279 13.7247 5.68286 15.4805 5.68286C16.3946 5.68286 17.2201 6.09856 17.7996 6.7663C18.525 6.6164 19.2046 6.33024 19.8196 5.93505C19.5812 6.73907 19.078 7.41348 18.4204 7.83593C19.0638 7.75417 19.6775 7.57034 20.2466 7.29779C19.8196 7.98597 19.2822 8.5923 18.6614 9.07607Z" fill="#4B5563"/>
</svg>
